<svg width="29" height="35" viewBox="0 0 29 35" fill="none" xmlns="http://www.w3.org/2000/svg">
<path d="M9.61455 35.0041C4.35192 34.9742 0 24.3403 0 18.9256C0 10.0799 6.70412 8.1424 9.28675 8.1424C10.4952 8.22791 11.6802 8.51624 12.7911 8.99507C13.4296 9.27153 14.1026 9.4624 14.7921 9.5626C15.2879 9.46739 15.7701 9.31283 16.2282 9.10233C17.5882 8.48156 19.0577 8.12966 20.554 8.06637H20.5636C22.0124 8.03736 23.4464 8.36032 24.7399 9.00698C26.0335 9.65364 27.1472 10.6043 27.9837 11.7757L28.5254 12.5809L27.7464 13.1633C26.8139 13.7256 26.038 14.5096 25.4893 15.444C24.9405 16.3785 24.6363 17.4338 24.6042 18.5142C24.5724 19.6698 24.8762 20.8101 25.4796 21.7997C26.0831 22.7894 26.9607 23.5868 28.0084 24.0973C28.4966 24.3878 29.0014 24.6866 29.0014 25.3424C29.0014 25.77 25.5547 34.9511 20.5485 34.9511C19.558 34.9312 18.5839 34.6971 17.6943 34.2655C16.9049 33.8744 16.0356 33.6672 15.1529 33.6599C14.4571 33.7331 13.7778 33.9165 13.1408 34.203C12.0373 34.6807 10.8547 34.954 9.65158 35.0095L9.61455 35.0041Z" fill="black"/>
<path d="M21.0875 0C21.2247 4.653 17.8561 7.88172 14.5041 7.67942C13.9404 3.96598 17.852 0 21.0875 0Z" fill="black"/>
</svg>
