<svg width="121" height="121" viewBox="0 0 121 121" fill="none" xmlns="http://www.w3.org/2000/svg">
<path d="M7.80602 31.2268H52.6926V66.3552H7.80602V31.2268Z" fill="#007AFF"/>
<path d="M80.015 66.5855L79.1421 66.149C74.1143 63.6568 69.8856 59.8056 66.9354 55.0321C63.9852 50.2587 62.4316 44.7541 62.4508 39.1426V30.4716L69.3116 32.7612C70.7584 33.2314 72.3066 33.2951 73.7871 32.9451C75.2677 32.5952 76.6235 31.8451 77.7067 30.7769L80.015 28.4686L82.3234 30.7769C83.4053 31.8479 84.7617 32.5999 86.2433 32.9499C87.7249 33.3 89.2744 33.2347 90.7212 32.7612L97.5793 30.4716V39.1426C97.5985 44.7544 96.0449 50.2594 93.0947 55.0332C90.1445 59.807 85.9158 63.6588 80.8881 66.1517L80.015 66.5855Z" fill="#FFB434"/>
<path d="M80.0151 55.4535L72.7848 48.2232L75.5457 45.4624L80.0204 49.9371L103.995 25.9433L106.756 28.7042L80.0151 55.4535Z" fill="#494A62"/>
<path d="M66.3552 97.5793H87.8237V101.484H66.3552V97.5793Z" fill="#494A62"/>
<path d="M78.0656 117.096H3.90435V27.3144H27.3144V3.90435H78.0656V30.4154L80.0177 28.4632L81.9699 30.4154V0H24.5615L0 24.5615V121H81.9672V99.2878H78.0656V117.096ZM6.66256 23.4181L23.4181 6.66256V23.4181H6.66256Z" fill="#494A62"/>
<path d="M115.971 79.5571L107.313 78.3199C107.052 78.281 106.801 78.1898 106.576 78.0518C106.35 77.9138 106.155 77.7317 106.001 77.5166L99.5502 68.4814C98.6459 67.2197 97.4541 66.1916 96.0733 65.4823C94.6925 64.773 93.1625 64.4031 91.6102 64.403H66.631C65.024 64.4007 63.4414 64.7965 62.0247 65.5549C60.6079 66.3133 59.4009 67.4106 58.5117 68.7492L53.8013 75.8134C53.5473 76.1931 53.1683 76.4717 52.7301 76.6007L37.343 81.2148C36.1351 81.5724 35.0759 82.3124 34.3245 83.3236C33.5731 84.3348 33.1702 85.5625 33.1762 86.8222V95.6271C33.1784 97.179 33.7958 98.6667 34.8931 99.764C35.9905 100.861 37.4782 101.479 39.0301 101.481H50.7405V97.5766H39.0301C38.5126 97.5759 38.0164 97.37 37.6505 97.004C37.2845 96.6381 37.0786 96.1419 37.0779 95.6244V86.8195C37.0755 86.3988 37.2097 85.9886 37.4603 85.6506C37.7109 85.3126 38.0644 85.065 38.4677 84.945L53.8575 80.331C55.1629 79.9385 56.2907 79.1033 57.0469 77.9692L61.7573 70.9049C62.2912 70.1017 63.0158 69.4431 63.8662 68.9879C64.7166 68.5328 65.6664 68.2954 66.631 68.2967H91.6129C92.5445 68.2978 93.4624 68.5205 94.2907 68.9466C95.1191 69.3727 95.8342 69.9897 96.3769 70.7469L102.831 79.7847C103.292 80.4273 103.879 80.9702 104.555 81.3811C105.232 81.7919 105.984 82.0623 106.767 82.1761L115.425 83.4133C115.888 83.4807 116.313 83.7124 116.62 84.0663C116.927 84.4202 117.097 84.8727 117.098 85.3413V95.6191C117.098 96.1366 116.892 96.6327 116.526 96.9986C116.16 97.3646 115.664 97.5705 115.146 97.5712H103.436V101.476H115.146C116.698 101.473 118.186 100.856 119.283 99.7586C120.38 98.6613 120.998 97.1736 121 95.6217V85.344C120.99 83.938 120.478 82.5819 119.556 81.5206C118.633 80.4593 117.362 79.7629 115.971 79.5571Z" fill="#494A62"/>
<path d="M65.1475 72.209L59.2936 83.9194H98.7789L92.9305 72.209H65.1475ZM65.608 80.0151L67.5602 76.1107H90.5177L92.4699 80.0151H65.608Z" fill="#494A62"/>
<path d="M50.7431 15.612H54.6475V19.5164H50.7431V15.612Z" fill="#FFB434"/>
<path d="M58.5492 15.612H62.4535V19.5164H58.5492V15.612Z" fill="#FFB434"/>
<path d="M42.9344 15.612H46.8388V19.5164H42.9344V15.612Z" fill="#FFB434"/>
<path d="M7.80602 31.2268H52.6926V35.1311H7.80602V31.2268Z" fill="#494A62"/>
<path d="M7.80602 46.8388H52.6926V50.7431H7.80602V46.8388Z" fill="#494A62"/>
<path d="M58.5491 109.29C56.6192 109.29 54.7325 108.717 53.1278 107.645C51.5231 106.573 50.2724 105.049 49.5338 103.266C48.7952 101.483 48.602 99.5207 48.9785 97.6278C49.355 95.7349 50.2844 93.996 51.6491 92.6313C53.0138 91.2666 54.7525 90.3372 56.6454 89.9607C58.5383 89.5842 60.5004 89.7775 62.2835 90.516C64.0665 91.2546 65.5905 92.5054 66.6628 94.1101C67.735 95.7148 68.3073 97.6015 68.3073 99.5315C68.3045 102.119 67.2755 104.599 65.4461 106.428C63.6167 108.258 61.1363 109.287 58.5491 109.29Z" fill="#007AFF"/>
<path d="M56.597 97.5793H60.5013V101.484H56.597V97.5793Z" fill="#494A62"/>
<path d="M95.6298 109.29C93.6999 109.29 91.8132 108.717 90.2085 107.645C88.6037 106.573 87.353 105.049 86.6144 103.266C85.8758 101.483 85.6826 99.5207 86.0591 97.6278C86.4356 95.7349 87.365 93.996 88.7297 92.6313C90.0944 91.2666 91.8332 90.3372 93.7261 89.9607C95.619 89.5842 97.5811 89.7775 99.3641 90.516C101.147 91.2546 102.671 92.5054 103.743 94.1101C104.816 95.7148 105.388 97.6015 105.388 99.5315C105.385 102.119 104.356 104.599 102.527 106.428C100.697 108.258 98.217 109.287 95.6298 109.29Z" fill="#007AFF"/>
<path d="M93.6776 97.5793H97.582V101.484H93.6776V97.5793Z" fill="#494A62"/>
<path d="M35.1284 39.0328H52.6927V42.9371H35.1284V39.0328Z" fill="#494A62"/>
<path d="M7.80602 39.0328H31.2241V42.9371H7.80602V39.0328Z" fill="#494A62"/>
<path d="M7.80602 54.6448H52.6926V58.5492H7.80602V54.6448Z" fill="#494A62"/>
<path d="M7.80602 62.4508H52.6926V66.3552H7.80602V62.4508Z" fill="#494A62"/>
<path d="M42.9344 113.194H39.0328C36.0523 113.194 34.7696 110.262 33.8323 108.119C33.4762 107.303 32.638 105.388 32.2095 105.388C31.7811 105.388 30.9429 107.303 30.5867 108.119C29.6495 110.262 28.3695 113.194 25.3836 113.194C22.3978 113.194 21.1151 110.262 20.1778 108.122C19.8217 107.303 18.9808 105.388 18.547 105.388C18.1132 105.388 17.275 107.303 16.9162 108.122C15.9762 110.264 14.6935 113.194 11.7104 113.194H7.80602V109.29H11.7104C12.1442 109.29 12.9824 107.375 13.3412 106.556C14.2811 104.413 15.5638 101.484 18.547 101.484C21.5302 101.484 22.8155 104.416 23.7528 106.556C24.1116 107.375 24.9525 109.29 25.3836 109.29C25.8148 109.29 26.6503 107.375 27.0091 106.558C27.9437 104.416 29.2264 101.484 32.2095 101.484C35.1927 101.484 36.4754 104.429 37.41 106.558C37.7661 107.375 38.6016 109.29 39.0328 109.29H42.9371L42.9344 113.194Z" fill="#494A62"/>
<path d="M46.8388 109.29H50.7431V113.191H46.8388V109.29Z" fill="#494A62"/>
<path d="M74.1612 27.3224H31.2268V7.80603H74.1612V27.3224ZM35.1311 23.4181H70.2595V11.7104H35.1311V23.4181Z" fill="#494A62"/>
</svg>
