<svg width="430" height="568" viewBox="0 0 430 568" fill="none" xmlns="http://www.w3.org/2000/svg">
<path d="M100.255 443.03C139.985 441.787 178.605 453.189 216.815 462.855C255.025 472.521 295.485 480.59 334.215 472.679C400.525 459.125 445.765 398.865 448.805 338.896C451.845 278.928 419.605 221.058 375.425 175.402C358.535 157.95 339.755 141.749 325.715 122.436C311.675 103.123 302.605 79.673 307.875 57.2024C315.405 25.0927 352.245 2.33992 389.385 0.787788C426.525 -0.764342 462.445 15.7006 488.705 38.9208C514.965 62.141 532.825 91.6227 548.495 121.36C569.375 160.983 587.185 202.247 595.215 245.363C603.245 288.479 601.115 333.728 583.145 374.445C558.105 431.169 504.355 474.884 444.915 505.821C331.565 564.819 191.715 582.88 63.9353 555.013C46.3953 551.185 28.4353 546.22 15.0853 535.47C-9.94471 515.301 -0.76469 489.964 20.3553 471.268C41.0653 452.934 71.3453 443.938 100.255 443.03Z" fill="url(#paint0_linear)"/>
<defs>
<linearGradient id="paint0_linear" x1="470.291" y1="89.3202" x2="291.655" y2="536.603" gradientUnits="userSpaceOnUse">
<stop stop-color="#7ED4EF"/>
<stop offset="0.2294" stop-color="#66BFE6"/>
<stop offset="0.711" stop-color="#4789D1"/>
<stop offset="1" stop-color="#006CE2"/>
</linearGradient>
</defs>
</svg>
