<svg width="551" height="453" viewBox="0 0 551 453" fill="none" xmlns="http://www.w3.org/2000/svg">
<path d="M51.3415 116.482C58.2802 175.592 85.6913 230.683 128.848 272.277C145.389 288.22 164.473 302.364 187.15 310.67C209.833 318.968 236.442 321.03 261.132 313.117C289.766 303.931 312.832 282.615 331.422 260.108C350.007 237.608 365.536 213.06 386.341 192.146C407.145 171.231 435.016 153.733 464.474 152.506C488.132 151.517 510.243 161.459 524.917 176.915C539.586 192.379 547.248 212.91 549.397 234.069C554.443 283.832 529.238 336.946 488.365 375.108C447.492 413.27 392.435 437.116 336.922 446.788C281.408 456.459 225.357 452.682 172.421 441.91C107.901 428.791 46.2608 404.874 -1.81066 365.98C-49.8821 327.086 -83.6016 272.337 -88.0356 211.4C-93.5458 135.83 -55.0297 59.5123 -13.1206 -10.6008C-1.25931 -30.4476 11.8751 -51.0599 32.6298 -63.648C45.7553 -71.6072 65.9178 -76.4818 79.8433 -71.093C94.5887 -65.3862 85.1107 -53.3846 79.757 -42.3704C64.0838 -10.1551 54.4392 24.0916 50.9904 58.103C49.0007 77.7172 49.089 97.3013 51.3415 116.482Z" fill="url(#paint0_linear)"/>
<defs>
<linearGradient id="paint0_linear" x1="89.5613" y1="418.739" x2="275.243" y2="19.8115" gradientUnits="userSpaceOnUse">
<stop stop-color="#7ED4EF"/>
<stop offset="0.2294" stop-color="#66BFE6"/>
<stop offset="0.711" stop-color="#298BD0"/>
<stop offset="1" stop-color="#0169C2"/>
</linearGradient>
</defs>
</svg>
