<svg width="130" height="130" viewBox="0 0 130 130" fill="none" xmlns="http://www.w3.org/2000/svg">
<path d="M78.6283 47.5123L77.5802 48.2246C77.5759 34.6154 73.1621 21.374 65 10.484C75.009 10.4854 84.6076 14.4621 91.6851 21.5396C98.7625 28.617 102.739 38.2156 102.741 48.2246L101.693 47.5123C98.2743 45.2437 94.2629 44.0337 90.1604 44.0337C86.0579 44.0337 82.0465 45.2437 78.6283 47.5123Z" fill="#007AFF"/>
<path d="M65 10.484C56.8379 21.374 52.4241 34.6154 52.4198 48.2246L51.3717 47.5123C47.9535 45.2437 43.9421 44.0337 39.8396 44.0337C35.7371 44.0337 31.7257 45.2437 28.3075 47.5123L27.2594 48.2246C27.2576 43.268 28.2326 38.3595 30.1286 33.7798C32.0246 29.2001 34.8045 25.0389 38.3094 21.534C41.8143 18.0291 45.9755 15.2492 50.5552 13.3532C55.1349 11.4572 60.0433 10.4822 65 10.484Z" fill="#007AFF"/>
<path d="M71.2888 8.93753V6.29148C71.2546 4.64585 70.5769 3.07912 69.401 1.92737C68.2251 0.775612 66.6447 0.130554 64.9987 0.130554C63.3527 0.130554 61.7722 0.775612 60.5963 1.92737C59.4204 3.07912 58.7427 4.64585 58.7086 6.29148V8.93753C49.3629 10.4371 40.8557 15.2132 34.7092 22.4112C28.5626 29.6092 25.1779 38.7594 25.1604 48.2246V52.1436L29.4775 49.2646C32.5599 47.2564 36.1594 46.1873 39.8382 46.1873C43.5171 46.1873 47.1166 47.2564 50.199 49.2646L52.4171 50.7461L54.6379 49.2646C55.9038 48.4391 57.2687 47.7767 58.7004 47.2929V70.1838H62.8929V46.3369C64.2862 46.1839 65.6921 46.1839 67.0854 46.3369V70.1702H71.2779V47.2956C72.7098 47.7789 74.0748 48.4414 75.3404 49.2673L77.5613 50.7488L79.7821 49.2673C82.8645 47.2591 86.464 46.19 90.1428 46.19C93.8217 46.19 97.4212 47.2591 100.504 49.2673L104.818 52.1463V48.2246C104.801 38.7622 101.419 29.6142 95.2764 22.4166C89.1337 15.219 80.631 10.4412 71.2888 8.93753ZM62.8929 6.29419C62.8929 5.73823 63.1138 5.20504 63.5069 4.81192C63.9 4.4188 64.4332 4.19794 64.9892 4.19794C65.5451 4.19794 66.0783 4.4188 66.4715 4.81192C66.8646 5.20504 67.0854 5.73823 67.0854 6.29419V8.49878C66.3867 8.46086 65.6961 8.39315 64.9892 8.39315C64.2823 8.39315 63.5917 8.46357 62.8929 8.49878V6.29419ZM77.5694 45.7086C73.8345 43.2496 69.4609 41.9391 64.9892 41.9391C60.5175 41.9391 56.1439 43.2496 52.409 45.7086C49.0396 43.5295 45.1627 42.2614 41.1569 42.0278C37.1511 41.7943 33.1532 42.6033 29.5533 44.3761C30.5053 35.6424 34.6489 27.5679 41.1891 21.7019C47.7292 15.8359 56.2051 12.5917 64.9905 12.5917C73.7759 12.5917 82.2519 15.8359 88.792 21.7019C95.3322 27.5679 99.4758 35.6424 100.428 44.3761C96.8293 42.6039 92.833 41.7949 88.8286 42.028C84.8243 42.261 80.9487 43.5282 77.5802 45.7059L77.5694 45.7086Z" fill="black"/>
<path d="M62.9119 130C60.7512 129.905 58.7105 128.98 57.2152 127.417C55.7199 125.854 54.8853 123.775 54.8853 121.612C54.8853 119.45 55.7199 117.37 57.2152 115.808C58.7105 114.245 60.7512 113.32 62.9119 113.225V117.417C62.0827 117.417 61.2721 117.663 60.5826 118.124C59.8932 118.584 59.3558 119.239 59.0385 120.005C58.7212 120.771 58.6382 121.614 58.7999 122.428C58.9617 123.241 59.361 123.988 59.9473 124.574C60.5337 125.16 61.2807 125.56 62.094 125.722C62.9072 125.883 63.7502 125.8 64.5163 125.483C65.2824 125.166 65.9371 124.628 66.3978 123.939C66.8585 123.249 67.1044 122.439 67.1044 121.61V98.5482H71.2969V121.612C71.2947 123.836 70.4107 125.968 68.8388 127.54C67.2668 129.112 65.1353 129.997 62.9119 130Z" fill="black"/>
<path d="M65 105.706L47.6857 88.3919C45.3634 86.0826 44.0424 82.9527 44.008 79.6779C43.9735 76.403 45.2282 73.246 47.5013 70.8883C49.7744 68.5305 52.8835 67.1613 56.1574 67.0761C59.4313 66.9909 62.6074 68.1967 65 70.433C67.3926 68.1967 70.5687 66.9909 73.8427 67.0761C77.1166 67.1613 80.2257 68.5305 82.4988 70.8883C84.7718 73.246 86.0266 76.403 85.9921 79.6779C85.9576 82.9527 84.6366 86.0826 82.3144 88.3919L65 105.706Z" fill="#FFB434"/>
<path d="M33.28 105.238L24.5104 74.5496L17.9915 85.968H0V81.7755H15.5594L25.8131 63.8328L33.819 91.8613L38.3879 79.6738H56.6042V83.8663H41.2913L33.28 105.238Z" fill="black"/>
<path d="M96.72 105.238L88.7087 83.8717H73.3877V79.6792H91.6148L96.1837 91.8667L104.19 63.8382L114.443 81.7809H129.992V85.9734H112.011L105.49 74.5497L96.72 105.238Z" fill="black"/>
</svg>
