<svg width="204" height="265" viewBox="0 0 204 265" fill="none" xmlns="http://www.w3.org/2000/svg">
<path d="M1.36508 2.76416C2.02784 2.76416 2.56506 2.29036 2.56506 1.7059C2.56506 1.12144 2.02784 0.647644 1.36508 0.647644C0.702323 0.647644 0.165039 1.12144 0.165039 1.7059C0.165039 2.29036 0.702323 2.76416 1.36508 2.76416Z" fill="#7ED4EF"/>
<path d="M15.1451 2.76416C15.8078 2.76416 16.3451 2.29036 16.3451 1.7059C16.3451 1.12144 15.8078 0.647644 15.1451 0.647644C14.4823 0.647644 13.9451 1.12144 13.9451 1.7059C13.9451 2.29036 14.4823 2.76416 15.1451 2.76416Z" fill="#7ED4EF"/>
<path d="M30.125 1.7059C30.125 2.28795 29.5851 2.76416 28.9251 2.76416C28.2651 2.76416 27.7251 2.28795 27.7251 1.7059C27.7251 1.12386 28.2651 0.647644 28.9251 0.647644C29.5851 0.647644 30.125 1.12386 30.125 1.7059Z" fill="#7ED4EF"/>
<path d="M42.7051 2.76416C43.3678 2.76416 43.905 2.29036 43.905 1.7059C43.905 1.12144 43.3678 0.647644 42.7051 0.647644C42.0424 0.647644 41.5051 1.12144 41.5051 1.7059C41.5051 2.29036 42.0424 2.76416 42.7051 2.76416Z" fill="#7ED4EF"/>
<path d="M56.4851 2.76416C57.1478 2.76416 57.6851 2.29036 57.6851 1.7059C57.6851 1.12144 57.1478 0.647644 56.4851 0.647644C55.8224 0.647644 55.2852 1.12144 55.2852 1.7059C55.2852 2.29036 55.8224 2.76416 56.4851 2.76416Z" fill="#7ED4EF"/>
<path d="M70.2651 2.76416C70.9278 2.76416 71.4651 2.29036 71.4651 1.7059C71.4651 1.12144 70.9278 0.647644 70.2651 0.647644C69.6023 0.647644 69.0651 1.12144 69.0651 1.7059C69.0651 2.29036 69.6023 2.76416 70.2651 2.76416Z" fill="#7ED4EF"/>
<path d="M84.0551 2.76416C84.7179 2.76416 85.2551 2.29036 85.2551 1.7059C85.2551 1.12144 84.7179 0.647644 84.0551 0.647644C83.3924 0.647644 82.8551 1.12144 82.8551 1.7059C82.8551 2.29036 83.3924 2.76416 84.0551 2.76416Z" fill="#7ED4EF"/>
<path d="M97.8351 2.76416C98.4979 2.76416 99.0352 2.29036 99.0352 1.7059C99.0352 1.12144 98.4979 0.647644 97.8351 0.647644C97.1723 0.647644 96.635 1.12144 96.635 1.7059C96.635 2.29036 97.1723 2.76416 97.8351 2.76416Z" fill="#7ED4EF"/>
<path d="M111.615 2.76416C112.278 2.76416 112.815 2.29036 112.815 1.7059C112.815 1.12144 112.278 0.647644 111.615 0.647644C110.952 0.647644 110.415 1.12144 110.415 1.7059C110.415 2.29036 110.952 2.76416 111.615 2.76416Z" fill="#7ED4EF"/>
<path d="M126.595 1.7059C126.595 2.28795 126.055 2.76416 125.395 2.76416C124.735 2.76416 124.195 2.28795 124.195 1.7059C124.195 1.12386 124.735 0.647644 125.395 0.647644C126.055 0.647644 126.595 1.12386 126.595 1.7059Z" fill="#7ED4EF"/>
<path d="M139.175 2.76416C139.838 2.76416 140.375 2.29036 140.375 1.7059C140.375 1.12144 139.838 0.647644 139.175 0.647644C138.512 0.647644 137.975 1.12144 137.975 1.7059C137.975 2.29036 138.512 2.76416 139.175 2.76416Z" fill="#7ED4EF"/>
<path d="M152.955 2.76416C153.618 2.76416 154.155 2.29036 154.155 1.7059C154.155 1.12144 153.618 0.647644 152.955 0.647644C152.292 0.647644 151.755 1.12144 151.755 1.7059C151.755 2.29036 152.292 2.76416 152.955 2.76416Z" fill="#7ED4EF"/>
<path d="M166.745 2.76416C167.408 2.76416 167.945 2.29036 167.945 1.7059C167.945 1.12144 167.408 0.647644 166.745 0.647644C166.082 0.647644 165.545 1.12144 165.545 1.7059C165.545 2.29036 166.082 2.76416 166.745 2.76416Z" fill="#7ED4EF"/>
<path d="M180.525 2.76416C181.188 2.76416 181.725 2.29036 181.725 1.7059C181.725 1.12144 181.188 0.647644 180.525 0.647644C179.862 0.647644 179.325 1.12144 179.325 1.7059C179.325 2.29036 179.862 2.76416 180.525 2.76416Z" fill="#7ED4EF"/>
<path d="M194.305 2.76416C194.968 2.76416 195.505 2.29036 195.505 1.7059C195.505 1.12144 194.968 0.647644 194.305 0.647644C193.642 0.647644 193.105 1.12144 193.105 1.7059C193.105 2.29036 193.642 2.76416 194.305 2.76416Z" fill="#7ED4EF"/>
<path d="M1.36508 14.6522C2.02784 14.6522 2.56506 14.1783 2.56506 13.5938C2.56506 13.0093 2.02784 12.5355 1.36508 12.5355C0.702323 12.5355 0.165039 13.0093 0.165039 13.5938C0.165039 14.1783 0.702323 14.6522 1.36508 14.6522Z" fill="#7ED4EF"/>
<path d="M15.1451 14.6522C15.8078 14.6522 16.3451 14.1783 16.3451 13.5938C16.3451 13.0093 15.8078 12.5355 15.1451 12.5355C14.4823 12.5355 13.9451 13.0093 13.9451 13.5938C13.9451 14.1783 14.4823 14.6522 15.1451 14.6522Z" fill="#7ED4EF"/>
<path d="M30.125 13.5938C30.125 14.1759 29.5851 14.6522 28.9251 14.6522C28.2651 14.6522 27.7251 14.1759 27.7251 13.5938C27.7251 13.0117 28.2651 12.5355 28.9251 12.5355C29.5851 12.5443 30.125 13.0117 30.125 13.5938Z" fill="#7ED4EF"/>
<path d="M42.7051 14.6522C43.3678 14.6522 43.905 14.1783 43.905 13.5938C43.905 13.0093 43.3678 12.5355 42.7051 12.5355C42.0424 12.5355 41.5051 13.0093 41.5051 13.5938C41.5051 14.1783 42.0424 14.6522 42.7051 14.6522Z" fill="#7ED4EF"/>
<path d="M56.4851 14.6522C57.1478 14.6522 57.6851 14.1783 57.6851 13.5938C57.6851 13.0093 57.1478 12.5355 56.4851 12.5355C55.8224 12.5355 55.2852 13.0093 55.2852 13.5938C55.2852 14.1783 55.8224 14.6522 56.4851 14.6522Z" fill="#7ED4EF"/>
<path d="M70.2651 14.6522C70.9278 14.6522 71.4651 14.1783 71.4651 13.5938C71.4651 13.0093 70.9278 12.5355 70.2651 12.5355C69.6023 12.5355 69.0651 13.0093 69.0651 13.5938C69.0651 14.1783 69.6023 14.6522 70.2651 14.6522Z" fill="#7ED4EF"/>
<path d="M84.0551 14.6522C84.7179 14.6522 85.2551 14.1783 85.2551 13.5938C85.2551 13.0093 84.7179 12.5355 84.0551 12.5355C83.3924 12.5355 82.8551 13.0093 82.8551 13.5938C82.8551 14.1783 83.3924 14.6522 84.0551 14.6522Z" fill="#7ED4EF"/>
<path d="M97.8351 14.6522C98.4979 14.6522 99.0352 14.1783 99.0352 13.5938C99.0352 13.0093 98.4979 12.5355 97.8351 12.5355C97.1723 12.5355 96.635 13.0093 96.635 13.5938C96.635 14.1783 97.1723 14.6522 97.8351 14.6522Z" fill="#7ED4EF"/>
<path d="M111.615 14.6522C112.278 14.6522 112.815 14.1783 112.815 13.5938C112.815 13.0093 112.278 12.5355 111.615 12.5355C110.952 12.5355 110.415 13.0093 110.415 13.5938C110.415 14.1783 110.952 14.6522 111.615 14.6522Z" fill="#7ED4EF"/>
<path d="M126.595 13.5938C126.595 14.1759 126.055 14.6522 125.395 14.6522C124.735 14.6522 124.195 14.1759 124.195 13.5938C124.195 13.0117 124.735 12.5355 125.395 12.5355C126.055 12.5443 126.595 13.0117 126.595 13.5938Z" fill="#7ED4EF"/>
<path d="M139.175 14.6522C139.838 14.6522 140.375 14.1783 140.375 13.5938C140.375 13.0093 139.838 12.5355 139.175 12.5355C138.512 12.5355 137.975 13.0093 137.975 13.5938C137.975 14.1783 138.512 14.6522 139.175 14.6522Z" fill="#7ED4EF"/>
<path d="M152.955 14.6522C153.618 14.6522 154.155 14.1783 154.155 13.5938C154.155 13.0093 153.618 12.5355 152.955 12.5355C152.292 12.5355 151.755 13.0093 151.755 13.5938C151.755 14.1783 152.292 14.6522 152.955 14.6522Z" fill="#7ED4EF"/>
<path d="M166.745 14.6522C167.408 14.6522 167.945 14.1783 167.945 13.5938C167.945 13.0093 167.408 12.5355 166.745 12.5355C166.082 12.5355 165.545 13.0093 165.545 13.5938C165.545 14.1783 166.082 14.6522 166.745 14.6522Z" fill="#7ED4EF"/>
<path d="M180.525 14.6522C181.188 14.6522 181.725 14.1783 181.725 13.5938C181.725 13.0093 181.188 12.5355 180.525 12.5355C179.862 12.5355 179.325 13.0093 179.325 13.5938C179.325 14.1783 179.862 14.6522 180.525 14.6522Z" fill="#7ED4EF"/>
<path d="M194.305 14.6522C194.968 14.6522 195.505 14.1783 195.505 13.5938C195.505 13.0093 194.968 12.5355 194.305 12.5355C193.642 12.5355 193.105 13.0093 193.105 13.5938C193.105 14.1783 193.642 14.6522 194.305 14.6522Z" fill="#7ED4EF"/>
<path d="M1.36508 26.5488C2.02784 26.5488 2.56506 26.075 2.56506 25.4905C2.56506 24.906 2.02784 24.4322 1.36508 24.4322C0.702323 24.4322 0.165039 24.906 0.165039 25.4905C0.165039 26.075 0.702323 26.5488 1.36508 26.5488Z" fill="#7ED4EF"/>
<path d="M15.1451 26.5488C15.8078 26.5488 16.3451 26.075 16.3451 25.4905C16.3451 24.906 15.8078 24.4322 15.1451 24.4322C14.4823 24.4322 13.9451 24.906 13.9451 25.4905C13.9451 26.075 14.4823 26.5488 15.1451 26.5488Z" fill="#7ED4EF"/>
<path d="M30.125 25.4905C30.125 26.0726 29.5851 26.5488 28.9251 26.5488C28.2651 26.5488 27.7251 26.0726 27.7251 25.4905C27.7251 24.9084 28.2651 24.4322 28.9251 24.4322C29.5851 24.4322 30.125 24.8996 30.125 25.4905Z" fill="#7ED4EF"/>
<path d="M42.7051 26.5488C43.3678 26.5488 43.905 26.075 43.905 25.4905C43.905 24.906 43.3678 24.4322 42.7051 24.4322C42.0424 24.4322 41.5051 24.906 41.5051 25.4905C41.5051 26.075 42.0424 26.5488 42.7051 26.5488Z" fill="#7ED4EF"/>
<path d="M56.4851 26.5488C57.1478 26.5488 57.6851 26.075 57.6851 25.4905C57.6851 24.906 57.1478 24.4322 56.4851 24.4322C55.8224 24.4322 55.2852 24.906 55.2852 25.4905C55.2852 26.075 55.8224 26.5488 56.4851 26.5488Z" fill="#7ED4EF"/>
<path d="M70.2651 26.5488C70.9278 26.5488 71.4651 26.075 71.4651 25.4905C71.4651 24.906 70.9278 24.4322 70.2651 24.4322C69.6023 24.4322 69.0651 24.906 69.0651 25.4905C69.0651 26.075 69.6023 26.5488 70.2651 26.5488Z" fill="#7ED4EF"/>
<path d="M84.0551 26.5488C84.7179 26.5488 85.2551 26.075 85.2551 25.4905C85.2551 24.906 84.7179 24.4322 84.0551 24.4322C83.3924 24.4322 82.8551 24.906 82.8551 25.4905C82.8551 26.075 83.3924 26.5488 84.0551 26.5488Z" fill="#7ED4EF"/>
<path d="M97.8351 26.5488C98.4979 26.5488 99.0352 26.075 99.0352 25.4905C99.0352 24.906 98.4979 24.4322 97.8351 24.4322C97.1723 24.4322 96.635 24.906 96.635 25.4905C96.635 26.075 97.1723 26.5488 97.8351 26.5488Z" fill="#7ED4EF"/>
<path d="M111.615 26.5488C112.278 26.5488 112.815 26.075 112.815 25.4905C112.815 24.906 112.278 24.4322 111.615 24.4322C110.952 24.4322 110.415 24.906 110.415 25.4905C110.415 26.075 110.952 26.5488 111.615 26.5488Z" fill="#7ED4EF"/>
<path d="M126.595 25.4905C126.595 26.0726 126.055 26.5488 125.395 26.5488C124.735 26.5488 124.195 26.0726 124.195 25.4905C124.195 24.9084 124.735 24.4322 125.395 24.4322C126.055 24.4322 126.595 24.8996 126.595 25.4905Z" fill="#7ED4EF"/>
<path d="M139.175 26.5488C139.838 26.5488 140.375 26.075 140.375 25.4905C140.375 24.906 139.838 24.4322 139.175 24.4322C138.512 24.4322 137.975 24.906 137.975 25.4905C137.975 26.075 138.512 26.5488 139.175 26.5488Z" fill="#7ED4EF"/>
<path d="M152.955 26.5488C153.618 26.5488 154.155 26.075 154.155 25.4905C154.155 24.906 153.618 24.4322 152.955 24.4322C152.292 24.4322 151.755 24.906 151.755 25.4905C151.755 26.075 152.292 26.5488 152.955 26.5488Z" fill="#7ED4EF"/>
<path d="M166.745 26.5488C167.408 26.5488 167.945 26.075 167.945 25.4905C167.945 24.906 167.408 24.4322 166.745 24.4322C166.082 24.4322 165.545 24.906 165.545 25.4905C165.545 26.075 166.082 26.5488 166.745 26.5488Z" fill="#7ED4EF"/>
<path d="M180.525 26.5488C181.188 26.5488 181.725 26.075 181.725 25.4905C181.725 24.906 181.188 24.4322 180.525 24.4322C179.862 24.4322 179.325 24.906 179.325 25.4905C179.325 26.075 179.862 26.5488 180.525 26.5488Z" fill="#7ED4EF"/>
<path d="M194.305 26.5488C194.968 26.5488 195.505 26.075 195.505 25.4905C195.505 24.906 194.968 24.4322 194.305 24.4322C193.642 24.4322 193.105 24.906 193.105 25.4905C193.105 26.075 193.642 26.5488 194.305 26.5488Z" fill="#7ED4EF"/>
<path d="M1.36508 38.4367C2.02784 38.4367 2.56506 37.9629 2.56506 37.3784C2.56506 36.7939 2.02784 36.3201 1.36508 36.3201C0.702323 36.3201 0.165039 36.7939 0.165039 37.3784C0.165039 37.9629 0.702323 38.4367 1.36508 38.4367Z" fill="#7ED4EF"/>
<path d="M15.1451 38.4367C15.8078 38.4367 16.3451 37.9629 16.3451 37.3784C16.3451 36.7939 15.8078 36.3201 15.1451 36.3201C14.4823 36.3201 13.9451 36.7939 13.9451 37.3784C13.9451 37.9629 14.4823 38.4367 15.1451 38.4367Z" fill="#7ED4EF"/>
<path d="M30.125 37.3784C30.125 37.9605 29.5851 38.4367 28.9251 38.4367C28.2651 38.4367 27.7251 37.9605 27.7251 37.3784C27.7251 36.7964 28.2651 36.3201 28.9251 36.3201C29.5851 36.3201 30.125 36.7964 30.125 37.3784Z" fill="#7ED4EF"/>
<path d="M42.7051 38.4367C43.3678 38.4367 43.905 37.9629 43.905 37.3784C43.905 36.7939 43.3678 36.3201 42.7051 36.3201C42.0424 36.3201 41.5051 36.7939 41.5051 37.3784C41.5051 37.9629 42.0424 38.4367 42.7051 38.4367Z" fill="#7ED4EF"/>
<path d="M56.4851 38.4367C57.1478 38.4367 57.6851 37.9629 57.6851 37.3784C57.6851 36.7939 57.1478 36.3201 56.4851 36.3201C55.8224 36.3201 55.2852 36.7939 55.2852 37.3784C55.2852 37.9629 55.8224 38.4367 56.4851 38.4367Z" fill="#7ED4EF"/>
<path d="M70.2651 38.4367C70.9278 38.4367 71.4651 37.9629 71.4651 37.3784C71.4651 36.7939 70.9278 36.3201 70.2651 36.3201C69.6023 36.3201 69.0651 36.7939 69.0651 37.3784C69.0651 37.9629 69.6023 38.4367 70.2651 38.4367Z" fill="#7ED4EF"/>
<path d="M84.0551 38.4367C84.7179 38.4367 85.2551 37.9629 85.2551 37.3784C85.2551 36.7939 84.7179 36.3201 84.0551 36.3201C83.3924 36.3201 82.8551 36.7939 82.8551 37.3784C82.8551 37.9629 83.3924 38.4367 84.0551 38.4367Z" fill="#7ED4EF"/>
<path d="M97.8351 38.4367C98.4979 38.4367 99.0352 37.9629 99.0352 37.3784C99.0352 36.7939 98.4979 36.3201 97.8351 36.3201C97.1723 36.3201 96.635 36.7939 96.635 37.3784C96.635 37.9629 97.1723 38.4367 97.8351 38.4367Z" fill="#7ED4EF"/>
<path d="M111.615 38.4367C112.278 38.4367 112.815 37.9629 112.815 37.3784C112.815 36.7939 112.278 36.3201 111.615 36.3201C110.952 36.3201 110.415 36.7939 110.415 37.3784C110.415 37.9629 110.952 38.4367 111.615 38.4367Z" fill="#7ED4EF"/>
<path d="M126.595 37.3784C126.595 37.9605 126.055 38.4367 125.395 38.4367C124.735 38.4367 124.195 37.9605 124.195 37.3784C124.195 36.7964 124.735 36.3201 125.395 36.3201C126.055 36.3201 126.595 36.7964 126.595 37.3784Z" fill="#7ED4EF"/>
<path d="M139.175 38.4367C139.838 38.4367 140.375 37.9629 140.375 37.3784C140.375 36.7939 139.838 36.3201 139.175 36.3201C138.512 36.3201 137.975 36.7939 137.975 37.3784C137.975 37.9629 138.512 38.4367 139.175 38.4367Z" fill="#7ED4EF"/>
<path d="M152.955 38.4367C153.618 38.4367 154.155 37.9629 154.155 37.3784C154.155 36.7939 153.618 36.3201 152.955 36.3201C152.292 36.3201 151.755 36.7939 151.755 37.3784C151.755 37.9629 152.292 38.4367 152.955 38.4367Z" fill="#7ED4EF"/>
<path d="M166.745 38.4367C167.408 38.4367 167.945 37.9629 167.945 37.3784C167.945 36.7939 167.408 36.3201 166.745 36.3201C166.082 36.3201 165.545 36.7939 165.545 37.3784C165.545 37.9629 166.082 38.4367 166.745 38.4367Z" fill="#7ED4EF"/>
<path d="M180.525 38.4367C181.188 38.4367 181.725 37.9629 181.725 37.3784C181.725 36.7939 181.188 36.3201 180.525 36.3201C179.862 36.3201 179.325 36.7939 179.325 37.3784C179.325 37.9629 179.862 38.4367 180.525 38.4367Z" fill="#7ED4EF"/>
<path d="M194.305 38.4367C194.968 38.4367 195.505 37.9629 195.505 37.3784C195.505 36.7939 194.968 36.3201 194.305 36.3201C193.642 36.3201 193.105 36.7939 193.105 37.3784C193.105 37.9629 193.642 38.4367 194.305 38.4367Z" fill="#7ED4EF"/>
<path d="M1.36508 50.3245C2.02784 50.3245 2.56506 49.8507 2.56506 49.2663C2.56506 48.6818 2.02784 48.208 1.36508 48.208C0.702323 48.208 0.165039 48.6818 0.165039 49.2663C0.165039 49.8507 0.702323 50.3245 1.36508 50.3245Z" fill="#7ED4EF"/>
<path d="M15.1451 50.3245C15.8078 50.3245 16.3451 49.8507 16.3451 49.2663C16.3451 48.6818 15.8078 48.208 15.1451 48.208C14.4823 48.208 13.9451 48.6818 13.9451 49.2663C13.9451 49.8507 14.4823 50.3245 15.1451 50.3245Z" fill="#7ED4EF"/>
<path d="M30.125 49.2663C30.125 49.8483 29.5851 50.3245 28.9251 50.3245C28.2651 50.3245 27.7251 49.8483 27.7251 49.2663C27.7251 48.6842 28.2651 48.208 28.9251 48.208C29.5851 48.208 30.125 48.6842 30.125 49.2663Z" fill="#7ED4EF"/>
<path d="M42.7051 50.3245C43.3678 50.3245 43.905 49.8507 43.905 49.2663C43.905 48.6818 43.3678 48.208 42.7051 48.208C42.0424 48.208 41.5051 48.6818 41.5051 49.2663C41.5051 49.8507 42.0424 50.3245 42.7051 50.3245Z" fill="#7ED4EF"/>
<path d="M56.4851 50.3245C57.1478 50.3245 57.6851 49.8507 57.6851 49.2663C57.6851 48.6818 57.1478 48.208 56.4851 48.208C55.8224 48.208 55.2852 48.6818 55.2852 49.2663C55.2852 49.8507 55.8224 50.3245 56.4851 50.3245Z" fill="#7ED4EF"/>
<path d="M70.2651 50.3245C70.9278 50.3245 71.4651 49.8507 71.4651 49.2663C71.4651 48.6818 70.9278 48.208 70.2651 48.208C69.6023 48.208 69.0651 48.6818 69.0651 49.2663C69.0651 49.8507 69.6023 50.3245 70.2651 50.3245Z" fill="#7ED4EF"/>
<path d="M84.0551 50.3245C84.7179 50.3245 85.2551 49.8507 85.2551 49.2663C85.2551 48.6818 84.7179 48.208 84.0551 48.208C83.3924 48.208 82.8551 48.6818 82.8551 49.2663C82.8551 49.8507 83.3924 50.3245 84.0551 50.3245Z" fill="#7ED4EF"/>
<path d="M97.8351 50.3245C98.4979 50.3245 99.0352 49.8507 99.0352 49.2663C99.0352 48.6818 98.4979 48.208 97.8351 48.208C97.1723 48.208 96.635 48.6818 96.635 49.2663C96.635 49.8507 97.1723 50.3245 97.8351 50.3245Z" fill="#7ED4EF"/>
<path d="M111.615 50.3245C112.278 50.3245 112.815 49.8507 112.815 49.2663C112.815 48.6818 112.278 48.208 111.615 48.208C110.952 48.208 110.415 48.6818 110.415 49.2663C110.415 49.8507 110.952 50.3245 111.615 50.3245Z" fill="#7ED4EF"/>
<path d="M126.595 49.2663C126.595 49.8483 126.055 50.3245 125.395 50.3245C124.735 50.3245 124.195 49.8483 124.195 49.2663C124.195 48.6842 124.735 48.208 125.395 48.208C126.055 48.208 126.595 48.6842 126.595 49.2663Z" fill="#7ED4EF"/>
<path d="M139.175 50.3245C139.838 50.3245 140.375 49.8507 140.375 49.2663C140.375 48.6818 139.838 48.208 139.175 48.208C138.512 48.208 137.975 48.6818 137.975 49.2663C137.975 49.8507 138.512 50.3245 139.175 50.3245Z" fill="#7ED4EF"/>
<path d="M152.955 50.3245C153.618 50.3245 154.155 49.8507 154.155 49.2663C154.155 48.6818 153.618 48.208 152.955 48.208C152.292 48.208 151.755 48.6818 151.755 49.2663C151.755 49.8507 152.292 50.3245 152.955 50.3245Z" fill="#7ED4EF"/>
<path d="M166.745 50.3245C167.408 50.3245 167.945 49.8507 167.945 49.2663C167.945 48.6818 167.408 48.208 166.745 48.208C166.082 48.208 165.545 48.6818 165.545 49.2663C165.545 49.8507 166.082 50.3245 166.745 50.3245Z" fill="#7ED4EF"/>
<path d="M180.525 50.3245C181.188 50.3245 181.725 49.8507 181.725 49.2663C181.725 48.6818 181.188 48.208 180.525 48.208C179.862 48.208 179.325 48.6818 179.325 49.2663C179.325 49.8507 179.862 50.3245 180.525 50.3245Z" fill="#7ED4EF"/>
<path d="M194.305 50.3245C194.968 50.3245 195.505 49.8507 195.505 49.2663C195.505 48.6818 194.968 48.208 194.305 48.208C193.642 48.208 193.105 48.6818 193.105 49.2663C193.105 49.8507 193.642 50.3245 194.305 50.3245Z" fill="#7ED4EF"/>
<path d="M1.36508 62.2125C2.02784 62.2125 2.56506 61.7387 2.56506 61.1542C2.56506 60.5697 2.02784 60.0959 1.36508 60.0959C0.702323 60.0959 0.165039 60.5697 0.165039 61.1542C0.165039 61.7387 0.702323 62.2125 1.36508 62.2125Z" fill="#7ED4EF"/>
<path d="M15.1451 62.2125C15.8078 62.2125 16.3451 61.7387 16.3451 61.1542C16.3451 60.5697 15.8078 60.0959 15.1451 60.0959C14.4823 60.0959 13.9451 60.5697 13.9451 61.1542C13.9451 61.7387 14.4823 62.2125 15.1451 62.2125Z" fill="#7ED4EF"/>
<path d="M30.125 61.1542C30.125 61.7362 29.5851 62.2125 28.9251 62.2125C28.2651 62.2125 27.7251 61.7362 27.7251 61.1542C27.7251 60.5722 28.2651 60.0959 28.9251 60.0959C29.5851 60.0959 30.125 60.5722 30.125 61.1542Z" fill="#7ED4EF"/>
<path d="M42.7051 62.2125C43.3678 62.2125 43.905 61.7387 43.905 61.1542C43.905 60.5697 43.3678 60.0959 42.7051 60.0959C42.0424 60.0959 41.5051 60.5697 41.5051 61.1542C41.5051 61.7387 42.0424 62.2125 42.7051 62.2125Z" fill="#7ED4EF"/>
<path d="M56.4851 62.2125C57.1478 62.2125 57.6851 61.7387 57.6851 61.1542C57.6851 60.5697 57.1478 60.0959 56.4851 60.0959C55.8224 60.0959 55.2852 60.5697 55.2852 61.1542C55.2852 61.7387 55.8224 62.2125 56.4851 62.2125Z" fill="#7ED4EF"/>
<path d="M70.2651 62.2125C70.9278 62.2125 71.4651 61.7387 71.4651 61.1542C71.4651 60.5697 70.9278 60.0959 70.2651 60.0959C69.6023 60.0959 69.0651 60.5697 69.0651 61.1542C69.0651 61.7387 69.6023 62.2125 70.2651 62.2125Z" fill="#7ED4EF"/>
<path d="M84.0551 62.2125C84.7179 62.2125 85.2551 61.7387 85.2551 61.1542C85.2551 60.5697 84.7179 60.0959 84.0551 60.0959C83.3924 60.0959 82.8551 60.5697 82.8551 61.1542C82.8551 61.7387 83.3924 62.2125 84.0551 62.2125Z" fill="#7ED4EF"/>
<path d="M97.8351 62.2125C98.4979 62.2125 99.0352 61.7387 99.0352 61.1542C99.0352 60.5697 98.4979 60.0959 97.8351 60.0959C97.1723 60.0959 96.635 60.5697 96.635 61.1542C96.635 61.7387 97.1723 62.2125 97.8351 62.2125Z" fill="#7ED4EF"/>
<path d="M111.615 62.2125C112.278 62.2125 112.815 61.7387 112.815 61.1542C112.815 60.5697 112.278 60.0959 111.615 60.0959C110.952 60.0959 110.415 60.5697 110.415 61.1542C110.415 61.7387 110.952 62.2125 111.615 62.2125Z" fill="#7ED4EF"/>
<path d="M126.595 61.1542C126.595 61.7362 126.055 62.2125 125.395 62.2125C124.735 62.2125 124.195 61.7362 124.195 61.1542C124.195 60.5722 124.735 60.0959 125.395 60.0959C126.055 60.0959 126.595 60.5722 126.595 61.1542Z" fill="#7ED4EF"/>
<path d="M139.175 62.2125C139.838 62.2125 140.375 61.7387 140.375 61.1542C140.375 60.5697 139.838 60.0959 139.175 60.0959C138.512 60.0959 137.975 60.5697 137.975 61.1542C137.975 61.7387 138.512 62.2125 139.175 62.2125Z" fill="#7ED4EF"/>
<path d="M152.955 62.2125C153.618 62.2125 154.155 61.7387 154.155 61.1542C154.155 60.5697 153.618 60.0959 152.955 60.0959C152.292 60.0959 151.755 60.5697 151.755 61.1542C151.755 61.7387 152.292 62.2125 152.955 62.2125Z" fill="#7ED4EF"/>
<path d="M166.745 62.2125C167.408 62.2125 167.945 61.7387 167.945 61.1542C167.945 60.5697 167.408 60.0959 166.745 60.0959C166.082 60.0959 165.545 60.5697 165.545 61.1542C165.545 61.7387 166.082 62.2125 166.745 62.2125Z" fill="#7ED4EF"/>
<path d="M180.525 62.2125C181.188 62.2125 181.725 61.7387 181.725 61.1542C181.725 60.5697 181.188 60.0959 180.525 60.0959C179.862 60.0959 179.325 60.5697 179.325 61.1542C179.325 61.7387 179.862 62.2125 180.525 62.2125Z" fill="#7ED4EF"/>
<path d="M194.305 62.2125C194.968 62.2125 195.505 61.7387 195.505 61.1542C195.505 60.5697 194.968 60.0959 194.305 60.0959C193.642 60.0959 193.105 60.5697 193.105 61.1542C193.105 61.7387 193.642 62.2125 194.305 62.2125Z" fill="#7ED4EF"/>
<path d="M1.36508 74.1003C2.02784 74.1003 2.56506 73.6266 2.56506 73.0421C2.56506 72.4577 2.02784 71.9839 1.36508 71.9839C0.702323 71.9839 0.165039 72.4577 0.165039 73.0421C0.165039 73.6266 0.702323 74.1003 1.36508 74.1003Z" fill="#7ED4EF"/>
<path d="M15.1451 74.1003C15.8078 74.1003 16.3451 73.6266 16.3451 73.0421C16.3451 72.4577 15.8078 71.9839 15.1451 71.9839C14.4823 71.9839 13.9451 72.4577 13.9451 73.0421C13.9451 73.6266 14.4823 74.1003 15.1451 74.1003Z" fill="#7ED4EF"/>
<path d="M30.125 73.0421C30.125 73.6241 29.5851 74.1003 28.9251 74.1003C28.2651 74.1003 27.7251 73.6241 27.7251 73.0421C27.7251 72.4601 28.2651 71.9839 28.9251 71.9839C29.5851 71.9927 30.125 72.4601 30.125 73.0421Z" fill="#7ED4EF"/>
<path d="M42.7051 74.1003C43.3678 74.1003 43.905 73.6266 43.905 73.0421C43.905 72.4577 43.3678 71.9839 42.7051 71.9839C42.0424 71.9839 41.5051 72.4577 41.5051 73.0421C41.5051 73.6266 42.0424 74.1003 42.7051 74.1003Z" fill="#7ED4EF"/>
<path d="M56.4851 74.1003C57.1478 74.1003 57.6851 73.6266 57.6851 73.0421C57.6851 72.4577 57.1478 71.9839 56.4851 71.9839C55.8224 71.9839 55.2852 72.4577 55.2852 73.0421C55.2852 73.6266 55.8224 74.1003 56.4851 74.1003Z" fill="#7ED4EF"/>
<path d="M70.2651 74.1003C70.9278 74.1003 71.4651 73.6266 71.4651 73.0421C71.4651 72.4577 70.9278 71.9839 70.2651 71.9839C69.6023 71.9839 69.0651 72.4577 69.0651 73.0421C69.0651 73.6266 69.6023 74.1003 70.2651 74.1003Z" fill="#7ED4EF"/>
<path d="M84.0551 74.1003C84.7179 74.1003 85.2551 73.6266 85.2551 73.0421C85.2551 72.4577 84.7179 71.9839 84.0551 71.9839C83.3924 71.9839 82.8551 72.4577 82.8551 73.0421C82.8551 73.6266 83.3924 74.1003 84.0551 74.1003Z" fill="#7ED4EF"/>
<path d="M97.8351 74.1003C98.4979 74.1003 99.0352 73.6266 99.0352 73.0421C99.0352 72.4577 98.4979 71.9839 97.8351 71.9839C97.1723 71.9839 96.635 72.4577 96.635 73.0421C96.635 73.6266 97.1723 74.1003 97.8351 74.1003Z" fill="#7ED4EF"/>
<path d="M111.615 74.1003C112.278 74.1003 112.815 73.6266 112.815 73.0421C112.815 72.4577 112.278 71.9839 111.615 71.9839C110.952 71.9839 110.415 72.4577 110.415 73.0421C110.415 73.6266 110.952 74.1003 111.615 74.1003Z" fill="#7ED4EF"/>
<path d="M126.595 73.0421C126.595 73.6241 126.055 74.1003 125.395 74.1003C124.735 74.1003 124.195 73.6241 124.195 73.0421C124.195 72.4601 124.735 71.9839 125.395 71.9839C126.055 71.9927 126.595 72.4601 126.595 73.0421Z" fill="#7ED4EF"/>
<path d="M139.175 74.1003C139.838 74.1003 140.375 73.6266 140.375 73.0421C140.375 72.4577 139.838 71.9839 139.175 71.9839C138.512 71.9839 137.975 72.4577 137.975 73.0421C137.975 73.6266 138.512 74.1003 139.175 74.1003Z" fill="#7ED4EF"/>
<path d="M152.955 74.1003C153.618 74.1003 154.155 73.6266 154.155 73.0421C154.155 72.4577 153.618 71.9839 152.955 71.9839C152.292 71.9839 151.755 72.4577 151.755 73.0421C151.755 73.6266 152.292 74.1003 152.955 74.1003Z" fill="#7ED4EF"/>
<path d="M166.745 74.1003C167.408 74.1003 167.945 73.6266 167.945 73.0421C167.945 72.4577 167.408 71.9839 166.745 71.9839C166.082 71.9839 165.545 72.4577 165.545 73.0421C165.545 73.6266 166.082 74.1003 166.745 74.1003Z" fill="#7ED4EF"/>
<path d="M180.525 74.1003C181.188 74.1003 181.725 73.6266 181.725 73.0421C181.725 72.4577 181.188 71.9839 180.525 71.9839C179.862 71.9839 179.325 72.4577 179.325 73.0421C179.325 73.6266 179.862 74.1003 180.525 74.1003Z" fill="#7ED4EF"/>
<path d="M194.305 74.1003C194.968 74.1003 195.505 73.6266 195.505 73.0421C195.505 72.4577 194.968 71.9839 194.305 71.9839C193.642 71.9839 193.105 72.4577 193.105 73.0421C193.105 73.6266 193.642 74.1003 194.305 74.1003Z" fill="#7ED4EF"/>
<path d="M1.36508 85.9971C2.02784 85.9971 2.56506 85.5233 2.56506 84.9388C2.56506 84.3544 2.02784 83.8806 1.36508 83.8806C0.702323 83.8806 0.165039 84.3544 0.165039 84.9388C0.165039 85.5233 0.702323 85.9971 1.36508 85.9971Z" fill="#7ED4EF"/>
<path d="M15.1451 85.9971C15.8078 85.9971 16.3451 85.5233 16.3451 84.9388C16.3451 84.3544 15.8078 83.8806 15.1451 83.8806C14.4823 83.8806 13.9451 84.3544 13.9451 84.9388C13.9451 85.5233 14.4823 85.9971 15.1451 85.9971Z" fill="#7ED4EF"/>
<path d="M30.125 84.9388C30.125 85.5209 29.5851 85.9971 28.9251 85.9971C28.2651 85.9971 27.7251 85.5209 27.7251 84.9388C27.7251 84.3568 28.2651 83.8806 28.9251 83.8806C29.5851 83.8806 30.125 84.348 30.125 84.9388Z" fill="#7ED4EF"/>
<path d="M42.7051 85.9971C43.3678 85.9971 43.905 85.5233 43.905 84.9388C43.905 84.3544 43.3678 83.8806 42.7051 83.8806C42.0424 83.8806 41.5051 84.3544 41.5051 84.9388C41.5051 85.5233 42.0424 85.9971 42.7051 85.9971Z" fill="#7ED4EF"/>
<path d="M56.4851 85.9971C57.1478 85.9971 57.6851 85.5233 57.6851 84.9388C57.6851 84.3544 57.1478 83.8806 56.4851 83.8806C55.8224 83.8806 55.2852 84.3544 55.2852 84.9388C55.2852 85.5233 55.8224 85.9971 56.4851 85.9971Z" fill="#7ED4EF"/>
<path d="M70.2651 85.9971C70.9278 85.9971 71.4651 85.5233 71.4651 84.9388C71.4651 84.3544 70.9278 83.8806 70.2651 83.8806C69.6023 83.8806 69.0651 84.3544 69.0651 84.9388C69.0651 85.5233 69.6023 85.9971 70.2651 85.9971Z" fill="#7ED4EF"/>
<path d="M84.0551 85.9971C84.7179 85.9971 85.2551 85.5233 85.2551 84.9388C85.2551 84.3544 84.7179 83.8806 84.0551 83.8806C83.3924 83.8806 82.8551 84.3544 82.8551 84.9388C82.8551 85.5233 83.3924 85.9971 84.0551 85.9971Z" fill="#7ED4EF"/>
<path d="M97.8351 85.9971C98.4979 85.9971 99.0352 85.5233 99.0352 84.9388C99.0352 84.3544 98.4979 83.8806 97.8351 83.8806C97.1723 83.8806 96.635 84.3544 96.635 84.9388C96.635 85.5233 97.1723 85.9971 97.8351 85.9971Z" fill="#7ED4EF"/>
<path d="M112.824 85.0958C112.926 84.5182 112.477 83.9777 111.822 83.8885C111.167 83.7993 110.554 84.1952 110.453 84.7729C110.351 85.3505 110.8 85.891 111.455 85.9802C112.11 86.0694 112.723 85.6734 112.824 85.0958Z" fill="#7ED4EF"/>
<path d="M126.595 84.9388C126.595 85.5209 126.055 85.9971 125.395 85.9971C124.735 85.9971 124.195 85.5209 124.195 84.9388C124.195 84.3568 124.735 83.8806 125.395 83.8806C126.055 83.8806 126.595 84.348 126.595 84.9388Z" fill="#7ED4EF"/>
<path d="M139.175 85.9971C139.838 85.9971 140.375 85.5233 140.375 84.9388C140.375 84.3544 139.838 83.8806 139.175 83.8806C138.512 83.8806 137.975 84.3544 137.975 84.9388C137.975 85.5233 138.512 85.9971 139.175 85.9971Z" fill="#7ED4EF"/>
<path d="M152.955 85.9971C153.618 85.9971 154.155 85.5233 154.155 84.9388C154.155 84.3544 153.618 83.8806 152.955 83.8806C152.292 83.8806 151.755 84.3544 151.755 84.9388C151.755 85.5233 152.292 85.9971 152.955 85.9971Z" fill="#7ED4EF"/>
<path d="M166.745 85.9971C167.408 85.9971 167.945 85.5233 167.945 84.9388C167.945 84.3544 167.408 83.8806 166.745 83.8806C166.082 83.8806 165.545 84.3544 165.545 84.9388C165.545 85.5233 166.082 85.9971 166.745 85.9971Z" fill="#7ED4EF"/>
<path d="M180.525 85.9971C181.188 85.9971 181.725 85.5233 181.725 84.9388C181.725 84.3544 181.188 83.8806 180.525 83.8806C179.862 83.8806 179.325 84.3544 179.325 84.9388C179.325 85.5233 179.862 85.9971 180.525 85.9971Z" fill="#7ED4EF"/>
<path d="M194.305 85.9971C194.968 85.9971 195.505 85.5233 195.505 84.9388C195.505 84.3544 194.968 83.8806 194.305 83.8806C193.642 83.8806 193.105 84.3544 193.105 84.9388C193.105 85.5233 193.642 85.9971 194.305 85.9971Z" fill="#7ED4EF"/>
<path d="M2.5618 96.9904C2.66838 96.4135 2.22448 95.8697 1.57034 95.7758C0.916203 95.6818 0.299537 96.0732 0.192966 96.65C0.0863948 97.2269 0.530281 97.7707 1.18442 97.8647C1.83856 97.9587 2.45523 97.5672 2.5618 96.9904Z" fill="#7ED4EF"/>
<path d="M16.3434 96.9917C16.45 96.4148 16.0061 95.871 15.352 95.7771C14.6978 95.6831 14.0812 96.0745 13.9746 96.6514C13.868 97.2282 14.3119 97.772 14.966 97.866C15.6202 97.9599 16.2368 97.5685 16.3434 96.9917Z" fill="#7ED4EF"/>
<path d="M30.125 96.8267C30.125 97.4088 29.5851 97.885 28.9251 97.885C28.2651 97.885 27.7251 97.4088 27.7251 96.8267C27.7251 96.2447 28.2651 95.7684 28.9251 95.7684C29.5851 95.7684 30.125 96.2447 30.125 96.8267Z" fill="#7ED4EF"/>
<path d="M43.8853 96.9382C43.9626 96.3577 43.4915 95.8319 42.8333 95.7638C42.175 95.6958 41.5788 96.1112 41.5016 96.6916C41.4244 97.2721 41.8954 97.7979 42.5537 97.866C43.2119 97.9341 43.8081 97.5187 43.8853 96.9382Z" fill="#7ED4EF"/>
<path d="M57.688 96.9954C57.7946 96.4185 57.3507 95.8747 56.6966 95.7807C56.0424 95.6867 55.4258 96.0782 55.3192 96.6551C55.2126 97.2319 55.6565 97.7758 56.3106 97.8698C56.9648 97.9637 57.5814 97.5723 57.688 96.9954Z" fill="#7ED4EF"/>
<path d="M71.4695 96.9967C71.5761 96.4198 71.1322 95.876 70.4781 95.782C69.8239 95.688 69.2073 96.0795 69.1007 96.6563C68.9941 97.2332 69.438 97.7771 70.0921 97.871C70.7463 97.965 71.3629 97.5736 71.4695 96.9967Z" fill="#7ED4EF"/>
<path d="M85.2527 96.9891C85.3593 96.4123 84.9154 95.8685 84.2613 95.7745C83.6071 95.6805 82.9905 96.0719 82.8839 96.6488C82.7773 97.2256 83.2212 97.7695 83.8753 97.8635C84.5295 97.9574 85.1462 97.566 85.2527 96.9891Z" fill="#7ED4EF"/>
<path d="M99.0343 96.9903C99.1409 96.4134 98.697 95.8696 98.0429 95.7756C97.3887 95.6817 96.7721 96.0731 96.6655 96.65C96.5589 97.2268 97.0028 97.7706 97.6569 97.8646C98.3111 97.9586 98.9278 97.5671 99.0343 96.9903Z" fill="#7ED4EF"/>
<path d="M111.615 97.885C112.278 97.885 112.815 97.4112 112.815 96.8267C112.815 96.2422 112.278 95.7684 111.615 95.7684C110.952 95.7684 110.415 96.2422 110.415 96.8267C110.415 97.4112 110.952 97.885 111.615 97.885Z" fill="#7ED4EF"/>
<path d="M126.595 96.8267C126.595 97.4088 126.055 97.885 125.395 97.885C124.735 97.885 124.195 97.4088 124.195 96.8267C124.195 96.2447 124.735 95.7684 125.395 95.7684C126.055 95.7684 126.595 96.2447 126.595 96.8267Z" fill="#7ED4EF"/>
<path d="M140.379 96.994C140.486 96.4172 140.042 95.8734 139.387 95.7794C138.733 95.6854 138.117 96.0768 138.01 96.6537C137.904 97.2305 138.347 97.7744 139.002 97.8683C139.656 97.9623 140.272 97.5709 140.379 96.994Z" fill="#7ED4EF"/>
<path d="M154.16 96.9953C154.267 96.4185 153.823 95.8746 153.169 95.7806C152.515 95.6867 151.898 96.0781 151.792 96.655C151.685 97.2319 152.129 97.7757 152.783 97.8697C153.437 97.9637 154.054 97.5722 154.16 96.9953Z" fill="#7ED4EF"/>
<path d="M167.944 96.9878C168.05 96.4109 167.606 95.8671 166.952 95.7731C166.298 95.6792 165.681 96.0706 165.575 96.6474C165.468 97.2243 165.912 97.7681 166.566 97.8621C167.22 97.9561 167.837 97.5646 167.944 96.9878Z" fill="#7ED4EF"/>
<path d="M181.725 96.989C181.832 96.4121 181.388 95.8682 180.734 95.7743C180.08 95.6803 179.463 96.0717 179.356 96.6486C179.25 97.2255 179.694 97.7694 180.348 97.8633C181.002 97.9573 181.619 97.5659 181.725 96.989Z" fill="#7ED4EF"/>
<path d="M195.507 96.9902C195.613 96.4133 195.169 95.8696 194.515 95.7756C193.861 95.6816 193.244 96.073 193.138 96.6499C193.031 97.2267 193.475 97.7706 194.129 97.8646C194.784 97.9585 195.4 97.5671 195.507 96.9902Z" fill="#7ED4EF"/>
<path d="M1.36508 109.773C2.02784 109.773 2.56506 109.299 2.56506 108.715C2.56506 108.13 2.02784 107.656 1.36508 107.656C0.702323 107.656 0.165039 108.13 0.165039 108.715C0.165039 109.299 0.702323 109.773 1.36508 109.773Z" fill="#7ED4EF"/>
<path d="M15.1451 109.773C15.8078 109.773 16.3451 109.299 16.3451 108.715C16.3451 108.13 15.8078 107.656 15.1451 107.656C14.4823 107.656 13.9451 108.13 13.9451 108.715C13.9451 109.299 14.4823 109.773 15.1451 109.773Z" fill="#7ED4EF"/>
<path d="M30.125 108.715C30.125 109.297 29.5851 109.773 28.9251 109.773C28.2651 109.773 27.7251 109.297 27.7251 108.715C27.7251 108.133 28.2651 107.656 28.9251 107.656C29.5851 107.656 30.125 108.133 30.125 108.715Z" fill="#7ED4EF"/>
<path d="M42.7051 109.773C43.3678 109.773 43.905 109.299 43.905 108.715C43.905 108.13 43.3678 107.656 42.7051 107.656C42.0424 107.656 41.5051 108.13 41.5051 108.715C41.5051 109.299 42.0424 109.773 42.7051 109.773Z" fill="#7ED4EF"/>
<path d="M56.4851 109.773C57.1478 109.773 57.6851 109.299 57.6851 108.715C57.6851 108.13 57.1478 107.656 56.4851 107.656C55.8224 107.656 55.2852 108.13 55.2852 108.715C55.2852 109.299 55.8224 109.773 56.4851 109.773Z" fill="#7ED4EF"/>
<path d="M70.2651 109.773C70.9278 109.773 71.4651 109.299 71.4651 108.715C71.4651 108.13 70.9278 107.656 70.2651 107.656C69.6023 107.656 69.0651 108.13 69.0651 108.715C69.0651 109.299 69.6023 109.773 70.2651 109.773Z" fill="#7ED4EF"/>
<path d="M84.0551 109.773C84.7179 109.773 85.2551 109.299 85.2551 108.715C85.2551 108.13 84.7179 107.656 84.0551 107.656C83.3924 107.656 82.8551 108.13 82.8551 108.715C82.8551 109.299 83.3924 109.773 84.0551 109.773Z" fill="#7ED4EF"/>
<path d="M97.8351 109.773C98.4979 109.773 99.0352 109.299 99.0352 108.715C99.0352 108.13 98.4979 107.656 97.8351 107.656C97.1723 107.656 96.635 108.13 96.635 108.715C96.635 109.299 97.1723 109.773 97.8351 109.773Z" fill="#7ED4EF"/>
<path d="M111.615 109.773C112.278 109.773 112.815 109.299 112.815 108.715C112.815 108.13 112.278 107.656 111.615 107.656C110.952 107.656 110.415 108.13 110.415 108.715C110.415 109.299 110.952 109.773 111.615 109.773Z" fill="#7ED4EF"/>
<path d="M126.595 108.715C126.595 109.297 126.055 109.773 125.395 109.773C124.735 109.773 124.195 109.297 124.195 108.715C124.195 108.133 124.735 107.656 125.395 107.656C126.055 107.656 126.595 108.133 126.595 108.715Z" fill="#7ED4EF"/>
<path d="M139.175 109.773C139.838 109.773 140.375 109.299 140.375 108.715C140.375 108.13 139.838 107.656 139.175 107.656C138.512 107.656 137.975 108.13 137.975 108.715C137.975 109.299 138.512 109.773 139.175 109.773Z" fill="#7ED4EF"/>
<path d="M152.955 109.773C153.618 109.773 154.155 109.299 154.155 108.715C154.155 108.13 153.618 107.656 152.955 107.656C152.292 107.656 151.755 108.13 151.755 108.715C151.755 109.299 152.292 109.773 152.955 109.773Z" fill="#7ED4EF"/>
<path d="M166.745 109.773C167.408 109.773 167.945 109.299 167.945 108.715C167.945 108.13 167.408 107.656 166.745 107.656C166.082 107.656 165.545 108.13 165.545 108.715C165.545 109.299 166.082 109.773 166.745 109.773Z" fill="#7ED4EF"/>
<path d="M180.525 109.773C181.188 109.773 181.725 109.299 181.725 108.715C181.725 108.13 181.188 107.656 180.525 107.656C179.862 107.656 179.325 108.13 179.325 108.715C179.325 109.299 179.862 109.773 180.525 109.773Z" fill="#7ED4EF"/>
<path d="M194.305 109.773C194.968 109.773 195.505 109.299 195.505 108.715C195.505 108.13 194.968 107.656 194.305 107.656C193.642 107.656 193.105 108.13 193.105 108.715C193.105 109.299 193.642 109.773 194.305 109.773Z" fill="#7ED4EF"/>
<path d="M1.36508 121.661C2.02784 121.661 2.56506 121.187 2.56506 120.603C2.56506 120.018 2.02784 119.544 1.36508 119.544C0.702323 119.544 0.165039 120.018 0.165039 120.603C0.165039 121.187 0.702323 121.661 1.36508 121.661Z" fill="#7ED4EF"/>
<path d="M15.1451 121.661C15.8078 121.661 16.3451 121.187 16.3451 120.603C16.3451 120.018 15.8078 119.544 15.1451 119.544C14.4823 119.544 13.9451 120.018 13.9451 120.603C13.9451 121.187 14.4823 121.661 15.1451 121.661Z" fill="#7ED4EF"/>
<path d="M30.125 120.603C30.125 121.185 29.5851 121.661 28.9251 121.661C28.2651 121.661 27.7251 121.185 27.7251 120.603C27.7251 120.021 28.2651 119.544 28.9251 119.544C29.5851 119.544 30.125 120.021 30.125 120.603Z" fill="#7ED4EF"/>
<path d="M42.7051 121.661C43.3678 121.661 43.905 121.187 43.905 120.603C43.905 120.018 43.3678 119.544 42.7051 119.544C42.0424 119.544 41.5051 120.018 41.5051 120.603C41.5051 121.187 42.0424 121.661 42.7051 121.661Z" fill="#7ED4EF"/>
<path d="M56.4851 121.661C57.1478 121.661 57.6851 121.187 57.6851 120.603C57.6851 120.018 57.1478 119.544 56.4851 119.544C55.8224 119.544 55.2852 120.018 55.2852 120.603C55.2852 121.187 55.8224 121.661 56.4851 121.661Z" fill="#7ED4EF"/>
<path d="M70.2651 121.661C70.9278 121.661 71.4651 121.187 71.4651 120.603C71.4651 120.018 70.9278 119.544 70.2651 119.544C69.6023 119.544 69.0651 120.018 69.0651 120.603C69.0651 121.187 69.6023 121.661 70.2651 121.661Z" fill="#7ED4EF"/>
<path d="M84.0551 121.661C84.7179 121.661 85.2551 121.187 85.2551 120.603C85.2551 120.018 84.7179 119.544 84.0551 119.544C83.3924 119.544 82.8551 120.018 82.8551 120.603C82.8551 121.187 83.3924 121.661 84.0551 121.661Z" fill="#7ED4EF"/>
<path d="M97.8351 121.661C98.4979 121.661 99.0352 121.187 99.0352 120.603C99.0352 120.018 98.4979 119.544 97.8351 119.544C97.1723 119.544 96.635 120.018 96.635 120.603C96.635 121.187 97.1723 121.661 97.8351 121.661Z" fill="#7ED4EF"/>
<path d="M111.615 121.661C112.278 121.661 112.815 121.187 112.815 120.603C112.815 120.018 112.278 119.544 111.615 119.544C110.952 119.544 110.415 120.018 110.415 120.603C110.415 121.187 110.952 121.661 111.615 121.661Z" fill="#7ED4EF"/>
<path d="M126.595 120.603C126.595 121.185 126.055 121.661 125.395 121.661C124.735 121.661 124.195 121.185 124.195 120.603C124.195 120.021 124.735 119.544 125.395 119.544C126.055 119.544 126.595 120.021 126.595 120.603Z" fill="#7ED4EF"/>
<path d="M139.175 121.661C139.838 121.661 140.375 121.187 140.375 120.603C140.375 120.018 139.838 119.544 139.175 119.544C138.512 119.544 137.975 120.018 137.975 120.603C137.975 121.187 138.512 121.661 139.175 121.661Z" fill="#7ED4EF"/>
<path d="M152.955 121.661C153.618 121.661 154.155 121.187 154.155 120.603C154.155 120.018 153.618 119.544 152.955 119.544C152.292 119.544 151.755 120.018 151.755 120.603C151.755 121.187 152.292 121.661 152.955 121.661Z" fill="#7ED4EF"/>
<path d="M166.745 121.661C167.408 121.661 167.945 121.187 167.945 120.603C167.945 120.018 167.408 119.544 166.745 119.544C166.082 119.544 165.545 120.018 165.545 120.603C165.545 121.187 166.082 121.661 166.745 121.661Z" fill="#7ED4EF"/>
<path d="M180.525 121.661C181.188 121.661 181.725 121.187 181.725 120.603C181.725 120.018 181.188 119.544 180.525 119.544C179.862 119.544 179.325 120.018 179.325 120.603C179.325 121.187 179.862 121.661 180.525 121.661Z" fill="#7ED4EF"/>
<path d="M194.305 121.661C194.968 121.661 195.505 121.187 195.505 120.603C195.505 120.018 194.968 119.544 194.305 119.544C193.642 119.544 193.105 120.018 193.105 120.603C193.105 121.187 193.642 121.661 194.305 121.661Z" fill="#7ED4EF"/>
<path d="M1.36508 133.549C2.02784 133.549 2.56506 133.075 2.56506 132.49C2.56506 131.906 2.02784 131.432 1.36508 131.432C0.702323 131.432 0.165039 131.906 0.165039 132.49C0.165039 133.075 0.702323 133.549 1.36508 133.549Z" fill="#7ED4EF"/>
<path d="M15.1451 133.549C15.8078 133.549 16.3451 133.075 16.3451 132.49C16.3451 131.906 15.8078 131.432 15.1451 131.432C14.4823 131.432 13.9451 131.906 13.9451 132.49C13.9451 133.075 14.4823 133.549 15.1451 133.549Z" fill="#7ED4EF"/>
<path d="M30.125 132.49C30.125 133.073 29.5851 133.549 28.9251 133.549C28.2651 133.549 27.7251 133.073 27.7251 132.49C27.7251 131.908 28.2651 131.432 28.9251 131.432C29.5851 131.441 30.125 131.908 30.125 132.49Z" fill="#7ED4EF"/>
<path d="M42.7051 133.549C43.3678 133.549 43.905 133.075 43.905 132.49C43.905 131.906 43.3678 131.432 42.7051 131.432C42.0424 131.432 41.5051 131.906 41.5051 132.49C41.5051 133.075 42.0424 133.549 42.7051 133.549Z" fill="#7ED4EF"/>
<path d="M56.4851 133.549C57.1478 133.549 57.6851 133.075 57.6851 132.49C57.6851 131.906 57.1478 131.432 56.4851 131.432C55.8224 131.432 55.2852 131.906 55.2852 132.49C55.2852 133.075 55.8224 133.549 56.4851 133.549Z" fill="#7ED4EF"/>
<path d="M70.2651 133.549C70.9278 133.549 71.4651 133.075 71.4651 132.49C71.4651 131.906 70.9278 131.432 70.2651 131.432C69.6023 131.432 69.0651 131.906 69.0651 132.49C69.0651 133.075 69.6023 133.549 70.2651 133.549Z" fill="#7ED4EF"/>
<path d="M84.0551 133.549C84.7179 133.549 85.2551 133.075 85.2551 132.49C85.2551 131.906 84.7179 131.432 84.0551 131.432C83.3924 131.432 82.8551 131.906 82.8551 132.49C82.8551 133.075 83.3924 133.549 84.0551 133.549Z" fill="#7ED4EF"/>
<path d="M97.8351 133.549C98.4979 133.549 99.0352 133.075 99.0352 132.49C99.0352 131.906 98.4979 131.432 97.8351 131.432C97.1723 131.432 96.635 131.906 96.635 132.49C96.635 133.075 97.1723 133.549 97.8351 133.549Z" fill="#7ED4EF"/>
<path d="M111.615 133.549C112.278 133.549 112.815 133.075 112.815 132.49C112.815 131.906 112.278 131.432 111.615 131.432C110.952 131.432 110.415 131.906 110.415 132.49C110.415 133.075 110.952 133.549 111.615 133.549Z" fill="#7ED4EF"/>
<path d="M126.595 132.49C126.595 133.073 126.055 133.549 125.395 133.549C124.735 133.549 124.195 133.073 124.195 132.49C124.195 131.908 124.735 131.432 125.395 131.432C126.055 131.441 126.595 131.908 126.595 132.49Z" fill="#7ED4EF"/>
<path d="M139.175 133.549C139.838 133.549 140.375 133.075 140.375 132.49C140.375 131.906 139.838 131.432 139.175 131.432C138.512 131.432 137.975 131.906 137.975 132.49C137.975 133.075 138.512 133.549 139.175 133.549Z" fill="#7ED4EF"/>
<path d="M152.955 133.549C153.618 133.549 154.155 133.075 154.155 132.49C154.155 131.906 153.618 131.432 152.955 131.432C152.292 131.432 151.755 131.906 151.755 132.49C151.755 133.075 152.292 133.549 152.955 133.549Z" fill="#7ED4EF"/>
<path d="M166.745 133.549C167.408 133.549 167.945 133.075 167.945 132.49C167.945 131.906 167.408 131.432 166.745 131.432C166.082 131.432 165.545 131.906 165.545 132.49C165.545 133.075 166.082 133.549 166.745 133.549Z" fill="#7ED4EF"/>
<path d="M180.525 133.549C181.188 133.549 181.725 133.075 181.725 132.49C181.725 131.906 181.188 131.432 180.525 131.432C179.862 131.432 179.325 131.906 179.325 132.49C179.325 133.075 179.862 133.549 180.525 133.549Z" fill="#7ED4EF"/>
<path d="M194.305 133.549C194.968 133.549 195.505 133.075 195.505 132.49C195.505 131.906 194.968 131.432 194.305 131.432C193.642 131.432 193.105 131.906 193.105 132.49C193.105 133.075 193.642 133.549 194.305 133.549Z" fill="#7ED4EF"/>
<path d="M1.36508 145.445C2.02784 145.445 2.56506 144.972 2.56506 144.387C2.56506 143.803 2.02784 143.329 1.36508 143.329C0.702323 143.329 0.165039 143.803 0.165039 144.387C0.165039 144.972 0.702323 145.445 1.36508 145.445Z" fill="#7ED4EF"/>
<path d="M15.1451 145.445C15.8078 145.445 16.3451 144.972 16.3451 144.387C16.3451 143.803 15.8078 143.329 15.1451 143.329C14.4823 143.329 13.9451 143.803 13.9451 144.387C13.9451 144.972 14.4823 145.445 15.1451 145.445Z" fill="#7ED4EF"/>
<path d="M30.125 144.387C30.125 144.969 29.5851 145.445 28.9251 145.445C28.2651 145.445 27.7251 144.969 27.7251 144.387C27.7251 143.805 28.2651 143.329 28.9251 143.329C29.5851 143.329 30.125 143.796 30.125 144.387Z" fill="#7ED4EF"/>
<path d="M42.7051 145.445C43.3678 145.445 43.905 144.972 43.905 144.387C43.905 143.803 43.3678 143.329 42.7051 143.329C42.0424 143.329 41.5051 143.803 41.5051 144.387C41.5051 144.972 42.0424 145.445 42.7051 145.445Z" fill="#7ED4EF"/>
<path d="M56.4851 145.445C57.1478 145.445 57.6851 144.972 57.6851 144.387C57.6851 143.803 57.1478 143.329 56.4851 143.329C55.8224 143.329 55.2852 143.803 55.2852 144.387C55.2852 144.972 55.8224 145.445 56.4851 145.445Z" fill="#7ED4EF"/>
<path d="M70.2651 145.445C70.9278 145.445 71.4651 144.972 71.4651 144.387C71.4651 143.803 70.9278 143.329 70.2651 143.329C69.6023 143.329 69.0651 143.803 69.0651 144.387C69.0651 144.972 69.6023 145.445 70.2651 145.445Z" fill="#7ED4EF"/>
<path d="M84.0551 145.445C84.7179 145.445 85.2551 144.972 85.2551 144.387C85.2551 143.803 84.7179 143.329 84.0551 143.329C83.3924 143.329 82.8551 143.803 82.8551 144.387C82.8551 144.972 83.3924 145.445 84.0551 145.445Z" fill="#7ED4EF"/>
<path d="M97.8351 145.445C98.4979 145.445 99.0352 144.972 99.0352 144.387C99.0352 143.803 98.4979 143.329 97.8351 143.329C97.1723 143.329 96.635 143.803 96.635 144.387C96.635 144.972 97.1723 145.445 97.8351 145.445Z" fill="#7ED4EF"/>
<path d="M111.615 145.445C112.278 145.445 112.815 144.972 112.815 144.387C112.815 143.803 112.278 143.329 111.615 143.329C110.952 143.329 110.415 143.803 110.415 144.387C110.415 144.972 110.952 145.445 111.615 145.445Z" fill="#7ED4EF"/>
<path d="M126.595 144.387C126.595 144.969 126.055 145.445 125.395 145.445C124.735 145.445 124.195 144.969 124.195 144.387C124.195 143.805 124.735 143.329 125.395 143.329C126.055 143.329 126.595 143.796 126.595 144.387Z" fill="#7ED4EF"/>
<path d="M139.175 145.445C139.838 145.445 140.375 144.972 140.375 144.387C140.375 143.803 139.838 143.329 139.175 143.329C138.512 143.329 137.975 143.803 137.975 144.387C137.975 144.972 138.512 145.445 139.175 145.445Z" fill="#7ED4EF"/>
<path d="M152.955 145.445C153.618 145.445 154.155 144.972 154.155 144.387C154.155 143.803 153.618 143.329 152.955 143.329C152.292 143.329 151.755 143.803 151.755 144.387C151.755 144.972 152.292 145.445 152.955 145.445Z" fill="#7ED4EF"/>
<path d="M166.745 145.445C167.408 145.445 167.945 144.972 167.945 144.387C167.945 143.803 167.408 143.329 166.745 143.329C166.082 143.329 165.545 143.803 165.545 144.387C165.545 144.972 166.082 145.445 166.745 145.445Z" fill="#7ED4EF"/>
<path d="M180.525 145.445C181.188 145.445 181.725 144.972 181.725 144.387C181.725 143.803 181.188 143.329 180.525 143.329C179.862 143.329 179.325 143.803 179.325 144.387C179.325 144.972 179.862 145.445 180.525 145.445Z" fill="#7ED4EF"/>
<path d="M194.305 145.445C194.968 145.445 195.505 144.972 195.505 144.387C195.505 143.803 194.968 143.329 194.305 143.329C193.642 143.329 193.105 143.803 193.105 144.387C193.105 144.972 193.642 145.445 194.305 145.445Z" fill="#7ED4EF"/>
<path d="M1.36508 157.333C2.02784 157.333 2.56506 156.86 2.56506 156.275C2.56506 155.691 2.02784 155.217 1.36508 155.217C0.702323 155.217 0.165039 155.691 0.165039 156.275C0.165039 156.86 0.702323 157.333 1.36508 157.333Z" fill="#7ED4EF"/>
<path d="M15.1451 157.333C15.8078 157.333 16.3451 156.86 16.3451 156.275C16.3451 155.691 15.8078 155.217 15.1451 155.217C14.4823 155.217 13.9451 155.691 13.9451 156.275C13.9451 156.86 14.4823 157.333 15.1451 157.333Z" fill="#7ED4EF"/>
<path d="M30.125 156.275C30.125 156.857 29.5851 157.333 28.9251 157.333C28.2651 157.333 27.7251 156.857 27.7251 156.275C27.7251 155.693 28.2651 155.217 28.9251 155.217C29.5851 155.217 30.125 155.693 30.125 156.275Z" fill="#7ED4EF"/>
<path d="M42.7051 157.333C43.3678 157.333 43.905 156.86 43.905 156.275C43.905 155.691 43.3678 155.217 42.7051 155.217C42.0424 155.217 41.5051 155.691 41.5051 156.275C41.5051 156.86 42.0424 157.333 42.7051 157.333Z" fill="#7ED4EF"/>
<path d="M56.4851 157.333C57.1478 157.333 57.6851 156.86 57.6851 156.275C57.6851 155.691 57.1478 155.217 56.4851 155.217C55.8224 155.217 55.2852 155.691 55.2852 156.275C55.2852 156.86 55.8224 157.333 56.4851 157.333Z" fill="#7ED4EF"/>
<path d="M70.2651 157.333C70.9278 157.333 71.4651 156.86 71.4651 156.275C71.4651 155.691 70.9278 155.217 70.2651 155.217C69.6023 155.217 69.0651 155.691 69.0651 156.275C69.0651 156.86 69.6023 157.333 70.2651 157.333Z" fill="#7ED4EF"/>
<path d="M84.0551 157.333C84.7179 157.333 85.2551 156.86 85.2551 156.275C85.2551 155.691 84.7179 155.217 84.0551 155.217C83.3924 155.217 82.8551 155.691 82.8551 156.275C82.8551 156.86 83.3924 157.333 84.0551 157.333Z" fill="#7ED4EF"/>
<path d="M97.8351 157.333C98.4979 157.333 99.0352 156.86 99.0352 156.275C99.0352 155.691 98.4979 155.217 97.8351 155.217C97.1723 155.217 96.635 155.691 96.635 156.275C96.635 156.86 97.1723 157.333 97.8351 157.333Z" fill="#7ED4EF"/>
<path d="M111.615 157.333C112.278 157.333 112.815 156.86 112.815 156.275C112.815 155.691 112.278 155.217 111.615 155.217C110.952 155.217 110.415 155.691 110.415 156.275C110.415 156.86 110.952 157.333 111.615 157.333Z" fill="#7ED4EF"/>
<path d="M126.595 156.275C126.595 156.857 126.055 157.333 125.395 157.333C124.735 157.333 124.195 156.857 124.195 156.275C124.195 155.693 124.735 155.217 125.395 155.217C126.055 155.217 126.595 155.693 126.595 156.275Z" fill="#7ED4EF"/>
<path d="M139.175 157.333C139.838 157.333 140.375 156.86 140.375 156.275C140.375 155.691 139.838 155.217 139.175 155.217C138.512 155.217 137.975 155.691 137.975 156.275C137.975 156.86 138.512 157.333 139.175 157.333Z" fill="#7ED4EF"/>
<path d="M152.955 157.333C153.618 157.333 154.155 156.86 154.155 156.275C154.155 155.691 153.618 155.217 152.955 155.217C152.292 155.217 151.755 155.691 151.755 156.275C151.755 156.86 152.292 157.333 152.955 157.333Z" fill="#7ED4EF"/>
<path d="M166.745 157.333C167.408 157.333 167.945 156.86 167.945 156.275C167.945 155.691 167.408 155.217 166.745 155.217C166.082 155.217 165.545 155.691 165.545 156.275C165.545 156.86 166.082 157.333 166.745 157.333Z" fill="#7ED4EF"/>
<path d="M180.525 157.333C181.188 157.333 181.725 156.86 181.725 156.275C181.725 155.691 181.188 155.217 180.525 155.217C179.862 155.217 179.325 155.691 179.325 156.275C179.325 156.86 179.862 157.333 180.525 157.333Z" fill="#7ED4EF"/>
<path d="M194.305 157.333C194.968 157.333 195.505 156.86 195.505 156.275C195.505 155.691 194.968 155.217 194.305 155.217C193.642 155.217 193.105 155.691 193.105 156.275C193.105 156.86 193.642 157.333 194.305 157.333Z" fill="#7ED4EF"/>
<path d="M1.36508 169.221C2.02784 169.221 2.56506 168.747 2.56506 168.163C2.56506 167.579 2.02784 167.105 1.36508 167.105C0.702323 167.105 0.165039 167.579 0.165039 168.163C0.165039 168.747 0.702323 169.221 1.36508 169.221Z" fill="#7ED4EF"/>
<path d="M15.1451 169.221C15.8078 169.221 16.3451 168.747 16.3451 168.163C16.3451 167.579 15.8078 167.105 15.1451 167.105C14.4823 167.105 13.9451 167.579 13.9451 168.163C13.9451 168.747 14.4823 169.221 15.1451 169.221Z" fill="#7ED4EF"/>
<path d="M30.125 168.163C30.125 168.745 29.5851 169.221 28.9251 169.221C28.2651 169.221 27.7251 168.745 27.7251 168.163C27.7251 167.581 28.2651 167.105 28.9251 167.105C29.5851 167.105 30.125 167.581 30.125 168.163Z" fill="#7ED4EF"/>
<path d="M42.7051 169.221C43.3678 169.221 43.905 168.747 43.905 168.163C43.905 167.579 43.3678 167.105 42.7051 167.105C42.0424 167.105 41.5051 167.579 41.5051 168.163C41.5051 168.747 42.0424 169.221 42.7051 169.221Z" fill="#7ED4EF"/>
<path d="M56.4851 169.221C57.1478 169.221 57.6851 168.747 57.6851 168.163C57.6851 167.579 57.1478 167.105 56.4851 167.105C55.8224 167.105 55.2852 167.579 55.2852 168.163C55.2852 168.747 55.8224 169.221 56.4851 169.221Z" fill="#7ED4EF"/>
<path d="M70.2651 169.221C70.9278 169.221 71.4651 168.747 71.4651 168.163C71.4651 167.579 70.9278 167.105 70.2651 167.105C69.6023 167.105 69.0651 167.579 69.0651 168.163C69.0651 168.747 69.6023 169.221 70.2651 169.221Z" fill="#7ED4EF"/>
<path d="M84.0551 169.221C84.7179 169.221 85.2551 168.747 85.2551 168.163C85.2551 167.579 84.7179 167.105 84.0551 167.105C83.3924 167.105 82.8551 167.579 82.8551 168.163C82.8551 168.747 83.3924 169.221 84.0551 169.221Z" fill="#7ED4EF"/>
<path d="M97.8351 169.221C98.4979 169.221 99.0352 168.747 99.0352 168.163C99.0352 167.579 98.4979 167.105 97.8351 167.105C97.1723 167.105 96.635 167.579 96.635 168.163C96.635 168.747 97.1723 169.221 97.8351 169.221Z" fill="#7ED4EF"/>
<path d="M111.615 169.221C112.278 169.221 112.815 168.747 112.815 168.163C112.815 167.579 112.278 167.105 111.615 167.105C110.952 167.105 110.415 167.579 110.415 168.163C110.415 168.747 110.952 169.221 111.615 169.221Z" fill="#7ED4EF"/>
<path d="M126.595 168.163C126.595 168.745 126.055 169.221 125.395 169.221C124.735 169.221 124.195 168.745 124.195 168.163C124.195 167.581 124.735 167.105 125.395 167.105C126.055 167.105 126.595 167.581 126.595 168.163Z" fill="#7ED4EF"/>
<path d="M139.175 169.221C139.838 169.221 140.375 168.747 140.375 168.163C140.375 167.579 139.838 167.105 139.175 167.105C138.512 167.105 137.975 167.579 137.975 168.163C137.975 168.747 138.512 169.221 139.175 169.221Z" fill="#7ED4EF"/>
<path d="M152.955 169.221C153.618 169.221 154.155 168.747 154.155 168.163C154.155 167.579 153.618 167.105 152.955 167.105C152.292 167.105 151.755 167.579 151.755 168.163C151.755 168.747 152.292 169.221 152.955 169.221Z" fill="#7ED4EF"/>
<path d="M166.745 169.221C167.408 169.221 167.945 168.747 167.945 168.163C167.945 167.579 167.408 167.105 166.745 167.105C166.082 167.105 165.545 167.579 165.545 168.163C165.545 168.747 166.082 169.221 166.745 169.221Z" fill="#7ED4EF"/>
<path d="M180.525 169.221C181.188 169.221 181.725 168.747 181.725 168.163C181.725 167.579 181.188 167.105 180.525 167.105C179.862 167.105 179.325 167.579 179.325 168.163C179.325 168.747 179.862 169.221 180.525 169.221Z" fill="#7ED4EF"/>
<path d="M194.305 169.221C194.968 169.221 195.505 168.747 195.505 168.163C195.505 167.579 194.968 167.105 194.305 167.105C193.642 167.105 193.105 167.579 193.105 168.163C193.105 168.747 193.642 169.221 194.305 169.221Z" fill="#7ED4EF"/>
<path d="M1.36508 181.109C2.02784 181.109 2.56506 180.635 2.56506 180.051C2.56506 179.466 2.02784 178.993 1.36508 178.993C0.702323 178.993 0.165039 179.466 0.165039 180.051C0.165039 180.635 0.702323 181.109 1.36508 181.109Z" fill="#7ED4EF"/>
<path d="M15.1451 181.109C15.8078 181.109 16.3451 180.635 16.3451 180.051C16.3451 179.466 15.8078 178.993 15.1451 178.993C14.4823 178.993 13.9451 179.466 13.9451 180.051C13.9451 180.635 14.4823 181.109 15.1451 181.109Z" fill="#7ED4EF"/>
<path d="M30.125 180.051C30.125 180.633 29.5851 181.109 28.9251 181.109C28.2651 181.109 27.7251 180.633 27.7251 180.051C27.7251 179.469 28.2651 178.993 28.9251 178.993C29.5851 178.993 30.125 179.469 30.125 180.051Z" fill="#7ED4EF"/>
<path d="M42.7051 181.109C43.3678 181.109 43.905 180.635 43.905 180.051C43.905 179.466 43.3678 178.993 42.7051 178.993C42.0424 178.993 41.5051 179.466 41.5051 180.051C41.5051 180.635 42.0424 181.109 42.7051 181.109Z" fill="#7ED4EF"/>
<path d="M56.4851 181.109C57.1478 181.109 57.6851 180.635 57.6851 180.051C57.6851 179.466 57.1478 178.993 56.4851 178.993C55.8224 178.993 55.2852 179.466 55.2852 180.051C55.2852 180.635 55.8224 181.109 56.4851 181.109Z" fill="#7ED4EF"/>
<path d="M70.2651 181.109C70.9278 181.109 71.4651 180.635 71.4651 180.051C71.4651 179.466 70.9278 178.993 70.2651 178.993C69.6023 178.993 69.0651 179.466 69.0651 180.051C69.0651 180.635 69.6023 181.109 70.2651 181.109Z" fill="#7ED4EF"/>
<path d="M84.0551 181.109C84.7179 181.109 85.2551 180.635 85.2551 180.051C85.2551 179.466 84.7179 178.993 84.0551 178.993C83.3924 178.993 82.8551 179.466 82.8551 180.051C82.8551 180.635 83.3924 181.109 84.0551 181.109Z" fill="#7ED4EF"/>
<path d="M97.8351 181.109C98.4979 181.109 99.0352 180.635 99.0352 180.051C99.0352 179.466 98.4979 178.993 97.8351 178.993C97.1723 178.993 96.635 179.466 96.635 180.051C96.635 180.635 97.1723 181.109 97.8351 181.109Z" fill="#7ED4EF"/>
<path d="M111.615 181.109C112.278 181.109 112.815 180.635 112.815 180.051C112.815 179.466 112.278 178.993 111.615 178.993C110.952 178.993 110.415 179.466 110.415 180.051C110.415 180.635 110.952 181.109 111.615 181.109Z" fill="#7ED4EF"/>
<path d="M126.595 180.051C126.595 180.633 126.055 181.109 125.395 181.109C124.735 181.109 124.195 180.633 124.195 180.051C124.195 179.469 124.735 178.993 125.395 178.993C126.055 178.993 126.595 179.469 126.595 180.051Z" fill="#7ED4EF"/>
<path d="M139.175 181.109C139.838 181.109 140.375 180.635 140.375 180.051C140.375 179.466 139.838 178.993 139.175 178.993C138.512 178.993 137.975 179.466 137.975 180.051C137.975 180.635 138.512 181.109 139.175 181.109Z" fill="#7ED4EF"/>
<path d="M152.955 181.109C153.618 181.109 154.155 180.635 154.155 180.051C154.155 179.466 153.618 178.993 152.955 178.993C152.292 178.993 151.755 179.466 151.755 180.051C151.755 180.635 152.292 181.109 152.955 181.109Z" fill="#7ED4EF"/>
<path d="M166.745 181.109C167.408 181.109 167.945 180.635 167.945 180.051C167.945 179.466 167.408 178.993 166.745 178.993C166.082 178.993 165.545 179.466 165.545 180.051C165.545 180.635 166.082 181.109 166.745 181.109Z" fill="#7ED4EF"/>
<path d="M180.525 181.109C181.188 181.109 181.725 180.635 181.725 180.051C181.725 179.466 181.188 178.993 180.525 178.993C179.862 178.993 179.325 179.466 179.325 180.051C179.325 180.635 179.862 181.109 180.525 181.109Z" fill="#7ED4EF"/>
<path d="M194.305 181.109C194.968 181.109 195.505 180.635 195.505 180.051C195.505 179.466 194.968 178.993 194.305 178.993C193.642 178.993 193.105 179.466 193.105 180.051C193.105 180.635 193.642 181.109 194.305 181.109Z" fill="#7ED4EF"/>
<path d="M1.36508 192.997C2.02784 192.997 2.56506 192.523 2.56506 191.939C2.56506 191.354 2.02784 190.88 1.36508 190.88C0.702323 190.88 0.165039 191.354 0.165039 191.939C0.165039 192.523 0.702323 192.997 1.36508 192.997Z" fill="#7ED4EF"/>
<path d="M15.1451 192.997C15.8078 192.997 16.3451 192.523 16.3451 191.939C16.3451 191.354 15.8078 190.88 15.1451 190.88C14.4823 190.88 13.9451 191.354 13.9451 191.939C13.9451 192.523 14.4823 192.997 15.1451 192.997Z" fill="#7ED4EF"/>
<path d="M30.125 191.939C30.125 192.521 29.5851 192.997 28.9251 192.997C28.2651 192.997 27.7251 192.521 27.7251 191.939C27.7251 191.357 28.2651 190.88 28.9251 190.88C29.5851 190.889 30.125 191.357 30.125 191.939Z" fill="#7ED4EF"/>
<path d="M42.7051 192.997C43.3678 192.997 43.905 192.523 43.905 191.939C43.905 191.354 43.3678 190.88 42.7051 190.88C42.0424 190.88 41.5051 191.354 41.5051 191.939C41.5051 192.523 42.0424 192.997 42.7051 192.997Z" fill="#7ED4EF"/>
<path d="M56.4851 192.997C57.1478 192.997 57.6851 192.523 57.6851 191.939C57.6851 191.354 57.1478 190.88 56.4851 190.88C55.8224 190.88 55.2852 191.354 55.2852 191.939C55.2852 192.523 55.8224 192.997 56.4851 192.997Z" fill="#7ED4EF"/>
<path d="M70.2651 192.997C70.9278 192.997 71.4651 192.523 71.4651 191.939C71.4651 191.354 70.9278 190.88 70.2651 190.88C69.6023 190.88 69.0651 191.354 69.0651 191.939C69.0651 192.523 69.6023 192.997 70.2651 192.997Z" fill="#7ED4EF"/>
<path d="M84.0551 192.997C84.7179 192.997 85.2551 192.523 85.2551 191.939C85.2551 191.354 84.7179 190.88 84.0551 190.88C83.3924 190.88 82.8551 191.354 82.8551 191.939C82.8551 192.523 83.3924 192.997 84.0551 192.997Z" fill="#7ED4EF"/>
<path d="M97.8351 192.997C98.4979 192.997 99.0352 192.523 99.0352 191.939C99.0352 191.354 98.4979 190.88 97.8351 190.88C97.1723 190.88 96.635 191.354 96.635 191.939C96.635 192.523 97.1723 192.997 97.8351 192.997Z" fill="#7ED4EF"/>
<path d="M111.615 192.997C112.278 192.997 112.815 192.523 112.815 191.939C112.815 191.354 112.278 190.88 111.615 190.88C110.952 190.88 110.415 191.354 110.415 191.939C110.415 192.523 110.952 192.997 111.615 192.997Z" fill="#7ED4EF"/>
<path d="M126.595 191.939C126.595 192.521 126.055 192.997 125.395 192.997C124.735 192.997 124.195 192.521 124.195 191.939C124.195 191.357 124.735 190.88 125.395 190.88C126.055 190.889 126.595 191.357 126.595 191.939Z" fill="#7ED4EF"/>
<path d="M139.175 192.997C139.838 192.997 140.375 192.523 140.375 191.939C140.375 191.354 139.838 190.88 139.175 190.88C138.512 190.88 137.975 191.354 137.975 191.939C137.975 192.523 138.512 192.997 139.175 192.997Z" fill="#7ED4EF"/>
<path d="M152.955 192.997C153.618 192.997 154.155 192.523 154.155 191.939C154.155 191.354 153.618 190.88 152.955 190.88C152.292 190.88 151.755 191.354 151.755 191.939C151.755 192.523 152.292 192.997 152.955 192.997Z" fill="#7ED4EF"/>
<path d="M166.745 192.997C167.408 192.997 167.945 192.523 167.945 191.939C167.945 191.354 167.408 190.88 166.745 190.88C166.082 190.88 165.545 191.354 165.545 191.939C165.545 192.523 166.082 192.997 166.745 192.997Z" fill="#7ED4EF"/>
<path d="M180.525 192.997C181.188 192.997 181.725 192.523 181.725 191.939C181.725 191.354 181.188 190.88 180.525 190.88C179.862 190.88 179.325 191.354 179.325 191.939C179.325 192.523 179.862 192.997 180.525 192.997Z" fill="#7ED4EF"/>
<path d="M194.305 192.997C194.968 192.997 195.505 192.523 195.505 191.939C195.505 191.354 194.968 190.88 194.305 190.88C193.642 190.88 193.105 191.354 193.105 191.939C193.105 192.523 193.642 192.997 194.305 192.997Z" fill="#7ED4EF"/>
<path d="M1.36508 204.894C2.02784 204.894 2.56506 204.42 2.56506 203.836C2.56506 203.251 2.02784 202.777 1.36508 202.777C0.702323 202.777 0.165039 203.251 0.165039 203.836C0.165039 204.42 0.702323 204.894 1.36508 204.894Z" fill="#7ED4EF"/>
<path d="M15.1451 204.894C15.8078 204.894 16.3451 204.42 16.3451 203.836C16.3451 203.251 15.8078 202.777 15.1451 202.777C14.4823 202.777 13.9451 203.251 13.9451 203.836C13.9451 204.42 14.4823 204.894 15.1451 204.894Z" fill="#7ED4EF"/>
<path d="M30.125 203.836C30.125 204.418 29.5851 204.894 28.9251 204.894C28.2651 204.894 27.7251 204.418 27.7251 203.836C27.7251 203.253 28.2651 202.777 28.9251 202.777C29.5851 202.777 30.125 203.245 30.125 203.836Z" fill="#7ED4EF"/>
<path d="M42.7051 204.894C43.3678 204.894 43.905 204.42 43.905 203.836C43.905 203.251 43.3678 202.777 42.7051 202.777C42.0424 202.777 41.5051 203.251 41.5051 203.836C41.5051 204.42 42.0424 204.894 42.7051 204.894Z" fill="#7ED4EF"/>
<path d="M56.4851 204.894C57.1478 204.894 57.6851 204.42 57.6851 203.836C57.6851 203.251 57.1478 202.777 56.4851 202.777C55.8224 202.777 55.2852 203.251 55.2852 203.836C55.2852 204.42 55.8224 204.894 56.4851 204.894Z" fill="#7ED4EF"/>
<path d="M70.2651 204.894C70.9278 204.894 71.4651 204.42 71.4651 203.836C71.4651 203.251 70.9278 202.777 70.2651 202.777C69.6023 202.777 69.0651 203.251 69.0651 203.836C69.0651 204.42 69.6023 204.894 70.2651 204.894Z" fill="#7ED4EF"/>
<path d="M84.0551 204.894C84.7179 204.894 85.2551 204.42 85.2551 203.836C85.2551 203.251 84.7179 202.777 84.0551 202.777C83.3924 202.777 82.8551 203.251 82.8551 203.836C82.8551 204.42 83.3924 204.894 84.0551 204.894Z" fill="#7ED4EF"/>
<path d="M97.8351 204.894C98.4979 204.894 99.0352 204.42 99.0352 203.836C99.0352 203.251 98.4979 202.777 97.8351 202.777C97.1723 202.777 96.635 203.251 96.635 203.836C96.635 204.42 97.1723 204.894 97.8351 204.894Z" fill="#7ED4EF"/>
<path d="M111.615 204.894C112.278 204.894 112.815 204.42 112.815 203.836C112.815 203.251 112.278 202.777 111.615 202.777C110.952 202.777 110.415 203.251 110.415 203.836C110.415 204.42 110.952 204.894 111.615 204.894Z" fill="#7ED4EF"/>
<path d="M126.595 203.836C126.595 204.418 126.055 204.894 125.395 204.894C124.735 204.894 124.195 204.418 124.195 203.836C124.195 203.253 124.735 202.777 125.395 202.777C126.055 202.777 126.595 203.245 126.595 203.836Z" fill="#7ED4EF"/>
<path d="M139.175 204.894C139.838 204.894 140.375 204.42 140.375 203.836C140.375 203.251 139.838 202.777 139.175 202.777C138.512 202.777 137.975 203.251 137.975 203.836C137.975 204.42 138.512 204.894 139.175 204.894Z" fill="#7ED4EF"/>
<path d="M152.955 204.894C153.618 204.894 154.155 204.42 154.155 203.836C154.155 203.251 153.618 202.777 152.955 202.777C152.292 202.777 151.755 203.251 151.755 203.836C151.755 204.42 152.292 204.894 152.955 204.894Z" fill="#7ED4EF"/>
<path d="M166.745 204.894C167.408 204.894 167.945 204.42 167.945 203.836C167.945 203.251 167.408 202.777 166.745 202.777C166.082 202.777 165.545 203.251 165.545 203.836C165.545 204.42 166.082 204.894 166.745 204.894Z" fill="#7ED4EF"/>
<path d="M180.525 204.894C181.188 204.894 181.725 204.42 181.725 203.836C181.725 203.251 181.188 202.777 180.525 202.777C179.862 202.777 179.325 203.251 179.325 203.836C179.325 204.42 179.862 204.894 180.525 204.894Z" fill="#7ED4EF"/>
<path d="M194.305 204.894C194.968 204.894 195.505 204.42 195.505 203.836C195.505 203.251 194.968 202.777 194.305 202.777C193.642 202.777 193.105 203.251 193.105 203.836C193.105 204.42 193.642 204.894 194.305 204.894Z" fill="#7ED4EF"/>
<path d="M1.36508 216.782C2.02784 216.782 2.56506 216.308 2.56506 215.723C2.56506 215.139 2.02784 214.665 1.36508 214.665C0.702323 214.665 0.165039 215.139 0.165039 215.723C0.165039 216.308 0.702323 216.782 1.36508 216.782Z" fill="#7ED4EF"/>
<path d="M15.1451 216.782C15.8078 216.782 16.3451 216.308 16.3451 215.723C16.3451 215.139 15.8078 214.665 15.1451 214.665C14.4823 214.665 13.9451 215.139 13.9451 215.723C13.9451 216.308 14.4823 216.782 15.1451 216.782Z" fill="#7ED4EF"/>
<path d="M30.125 215.723C30.125 216.305 29.5851 216.782 28.9251 216.782C28.2651 216.782 27.7251 216.305 27.7251 215.723C27.7251 215.141 28.2651 214.665 28.9251 214.665C29.5851 214.665 30.125 215.141 30.125 215.723Z" fill="#7ED4EF"/>
<path d="M42.7051 216.782C43.3678 216.782 43.905 216.308 43.905 215.723C43.905 215.139 43.3678 214.665 42.7051 214.665C42.0424 214.665 41.5051 215.139 41.5051 215.723C41.5051 216.308 42.0424 216.782 42.7051 216.782Z" fill="#7ED4EF"/>
<path d="M56.4851 216.782C57.1478 216.782 57.6851 216.308 57.6851 215.723C57.6851 215.139 57.1478 214.665 56.4851 214.665C55.8224 214.665 55.2852 215.139 55.2852 215.723C55.2852 216.308 55.8224 216.782 56.4851 216.782Z" fill="#7ED4EF"/>
<path d="M70.2651 216.782C70.9278 216.782 71.4651 216.308 71.4651 215.723C71.4651 215.139 70.9278 214.665 70.2651 214.665C69.6023 214.665 69.0651 215.139 69.0651 215.723C69.0651 216.308 69.6023 216.782 70.2651 216.782Z" fill="#7ED4EF"/>
<path d="M84.0551 216.782C84.7179 216.782 85.2551 216.308 85.2551 215.723C85.2551 215.139 84.7179 214.665 84.0551 214.665C83.3924 214.665 82.8551 215.139 82.8551 215.723C82.8551 216.308 83.3924 216.782 84.0551 216.782Z" fill="#7ED4EF"/>
<path d="M97.8351 216.782C98.4979 216.782 99.0352 216.308 99.0352 215.723C99.0352 215.139 98.4979 214.665 97.8351 214.665C97.1723 214.665 96.635 215.139 96.635 215.723C96.635 216.308 97.1723 216.782 97.8351 216.782Z" fill="#7ED4EF"/>
<path d="M111.615 216.782C112.278 216.782 112.815 216.308 112.815 215.723C112.815 215.139 112.278 214.665 111.615 214.665C110.952 214.665 110.415 215.139 110.415 215.723C110.415 216.308 110.952 216.782 111.615 216.782Z" fill="#7ED4EF"/>
<path d="M126.595 215.723C126.595 216.305 126.055 216.782 125.395 216.782C124.735 216.782 124.195 216.305 124.195 215.723C124.195 215.141 124.735 214.665 125.395 214.665C126.055 214.665 126.595 215.141 126.595 215.723Z" fill="#7ED4EF"/>
<path d="M139.175 216.782C139.838 216.782 140.375 216.308 140.375 215.723C140.375 215.139 139.838 214.665 139.175 214.665C138.512 214.665 137.975 215.139 137.975 215.723C137.975 216.308 138.512 216.782 139.175 216.782Z" fill="#7ED4EF"/>
<path d="M152.955 216.782C153.618 216.782 154.155 216.308 154.155 215.723C154.155 215.139 153.618 214.665 152.955 214.665C152.292 214.665 151.755 215.139 151.755 215.723C151.755 216.308 152.292 216.782 152.955 216.782Z" fill="#7ED4EF"/>
<path d="M166.745 216.782C167.408 216.782 167.945 216.308 167.945 215.723C167.945 215.139 167.408 214.665 166.745 214.665C166.082 214.665 165.545 215.139 165.545 215.723C165.545 216.308 166.082 216.782 166.745 216.782Z" fill="#7ED4EF"/>
<path d="M180.525 216.782C181.188 216.782 181.725 216.308 181.725 215.723C181.725 215.139 181.188 214.665 180.525 214.665C179.862 214.665 179.325 215.139 179.325 215.723C179.325 216.308 179.862 216.782 180.525 216.782Z" fill="#7ED4EF"/>
<path d="M194.305 216.782C194.968 216.782 195.505 216.308 195.505 215.723C195.505 215.139 194.968 214.665 194.305 214.665C193.642 214.665 193.105 215.139 193.105 215.723C193.105 216.308 193.642 216.782 194.305 216.782Z" fill="#7ED4EF"/>
<path d="M1.36508 228.67C2.02784 228.67 2.56506 228.196 2.56506 227.611C2.56506 227.027 2.02784 226.553 1.36508 226.553C0.702323 226.553 0.165039 227.027 0.165039 227.611C0.165039 228.196 0.702323 228.67 1.36508 228.67Z" fill="#7ED4EF"/>
<path d="M15.1451 228.67C15.8078 228.67 16.3451 228.196 16.3451 227.611C16.3451 227.027 15.8078 226.553 15.1451 226.553C14.4823 226.553 13.9451 227.027 13.9451 227.611C13.9451 228.196 14.4823 228.67 15.1451 228.67Z" fill="#7ED4EF"/>
<path d="M30.125 227.611C30.125 228.193 29.5851 228.67 28.9251 228.67C28.2651 228.67 27.7251 228.193 27.7251 227.611C27.7251 227.029 28.2651 226.553 28.9251 226.553C29.5851 226.553 30.125 227.029 30.125 227.611Z" fill="#7ED4EF"/>
<path d="M42.7051 228.67C43.3678 228.67 43.905 228.196 43.905 227.611C43.905 227.027 43.3678 226.553 42.7051 226.553C42.0424 226.553 41.5051 227.027 41.5051 227.611C41.5051 228.196 42.0424 228.67 42.7051 228.67Z" fill="#7ED4EF"/>
<path d="M56.4851 228.67C57.1478 228.67 57.6851 228.196 57.6851 227.611C57.6851 227.027 57.1478 226.553 56.4851 226.553C55.8224 226.553 55.2852 227.027 55.2852 227.611C55.2852 228.196 55.8224 228.67 56.4851 228.67Z" fill="#7ED4EF"/>
<path d="M70.2651 228.67C70.9278 228.67 71.4651 228.196 71.4651 227.611C71.4651 227.027 70.9278 226.553 70.2651 226.553C69.6023 226.553 69.0651 227.027 69.0651 227.611C69.0651 228.196 69.6023 228.67 70.2651 228.67Z" fill="#7ED4EF"/>
<path d="M84.0551 228.67C84.7179 228.67 85.2551 228.196 85.2551 227.611C85.2551 227.027 84.7179 226.553 84.0551 226.553C83.3924 226.553 82.8551 227.027 82.8551 227.611C82.8551 228.196 83.3924 228.67 84.0551 228.67Z" fill="#7ED4EF"/>
<path d="M97.8351 228.67C98.4979 228.67 99.0352 228.196 99.0352 227.611C99.0352 227.027 98.4979 226.553 97.8351 226.553C97.1723 226.553 96.635 227.027 96.635 227.611C96.635 228.196 97.1723 228.67 97.8351 228.67Z" fill="#7ED4EF"/>
<path d="M111.615 228.67C112.278 228.67 112.815 228.196 112.815 227.611C112.815 227.027 112.278 226.553 111.615 226.553C110.952 226.553 110.415 227.027 110.415 227.611C110.415 228.196 110.952 228.67 111.615 228.67Z" fill="#7ED4EF"/>
<path d="M126.595 227.611C126.595 228.193 126.055 228.67 125.395 228.67C124.735 228.67 124.195 228.193 124.195 227.611C124.195 227.029 124.735 226.553 125.395 226.553C126.055 226.553 126.595 227.029 126.595 227.611Z" fill="#7ED4EF"/>
<path d="M139.175 228.67C139.838 228.67 140.375 228.196 140.375 227.611C140.375 227.027 139.838 226.553 139.175 226.553C138.512 226.553 137.975 227.027 137.975 227.611C137.975 228.196 138.512 228.67 139.175 228.67Z" fill="#7ED4EF"/>
<path d="M152.955 228.67C153.618 228.67 154.155 228.196 154.155 227.611C154.155 227.027 153.618 226.553 152.955 226.553C152.292 226.553 151.755 227.027 151.755 227.611C151.755 228.196 152.292 228.67 152.955 228.67Z" fill="#7ED4EF"/>
<path d="M166.745 228.67C167.408 228.67 167.945 228.196 167.945 227.611C167.945 227.027 167.408 226.553 166.745 226.553C166.082 226.553 165.545 227.027 165.545 227.611C165.545 228.196 166.082 228.67 166.745 228.67Z" fill="#7ED4EF"/>
<path d="M180.525 228.67C181.188 228.67 181.725 228.196 181.725 227.611C181.725 227.027 181.188 226.553 180.525 226.553C179.862 226.553 179.325 227.027 179.325 227.611C179.325 228.196 179.862 228.67 180.525 228.67Z" fill="#7ED4EF"/>
<path d="M194.305 228.67C194.968 228.67 195.505 228.196 195.505 227.611C195.505 227.027 194.968 226.553 194.305 226.553C193.642 226.553 193.105 227.027 193.105 227.611C193.105 228.196 193.642 228.67 194.305 228.67Z" fill="#7ED4EF"/>
<path d="M1.36508 240.557C2.02784 240.557 2.56506 240.084 2.56506 239.499C2.56506 238.915 2.02784 238.441 1.36508 238.441C0.702323 238.441 0.165039 238.915 0.165039 239.499C0.165039 240.084 0.702323 240.557 1.36508 240.557Z" fill="#7ED4EF"/>
<path d="M15.1451 240.557C15.8078 240.557 16.3451 240.084 16.3451 239.499C16.3451 238.915 15.8078 238.441 15.1451 238.441C14.4823 238.441 13.9451 238.915 13.9451 239.499C13.9451 240.084 14.4823 240.557 15.1451 240.557Z" fill="#7ED4EF"/>
<path d="M30.125 239.499C30.125 240.081 29.5851 240.557 28.9251 240.557C28.2651 240.557 27.7251 240.081 27.7251 239.499C27.7251 238.917 28.2651 238.441 28.9251 238.441C29.5851 238.441 30.125 238.917 30.125 239.499Z" fill="#7ED4EF"/>
<path d="M42.7051 240.557C43.3678 240.557 43.905 240.084 43.905 239.499C43.905 238.915 43.3678 238.441 42.7051 238.441C42.0424 238.441 41.5051 238.915 41.5051 239.499C41.5051 240.084 42.0424 240.557 42.7051 240.557Z" fill="#7ED4EF"/>
<path d="M56.4851 240.557C57.1478 240.557 57.6851 240.084 57.6851 239.499C57.6851 238.915 57.1478 238.441 56.4851 238.441C55.8224 238.441 55.2852 238.915 55.2852 239.499C55.2852 240.084 55.8224 240.557 56.4851 240.557Z" fill="#7ED4EF"/>
<path d="M70.2651 240.557C70.9278 240.557 71.4651 240.084 71.4651 239.499C71.4651 238.915 70.9278 238.441 70.2651 238.441C69.6023 238.441 69.0651 238.915 69.0651 239.499C69.0651 240.084 69.6023 240.557 70.2651 240.557Z" fill="#7ED4EF"/>
<path d="M84.0551 240.557C84.7179 240.557 85.2551 240.084 85.2551 239.499C85.2551 238.915 84.7179 238.441 84.0551 238.441C83.3924 238.441 82.8551 238.915 82.8551 239.499C82.8551 240.084 83.3924 240.557 84.0551 240.557Z" fill="#7ED4EF"/>
<path d="M97.8351 240.557C98.4979 240.557 99.0352 240.084 99.0352 239.499C99.0352 238.915 98.4979 238.441 97.8351 238.441C97.1723 238.441 96.635 238.915 96.635 239.499C96.635 240.084 97.1723 240.557 97.8351 240.557Z" fill="#7ED4EF"/>
<path d="M111.615 240.557C112.278 240.557 112.815 240.084 112.815 239.499C112.815 238.915 112.278 238.441 111.615 238.441C110.952 238.441 110.415 238.915 110.415 239.499C110.415 240.084 110.952 240.557 111.615 240.557Z" fill="#7ED4EF"/>
<path d="M126.595 239.499C126.595 240.081 126.055 240.557 125.395 240.557C124.735 240.557 124.195 240.081 124.195 239.499C124.195 238.917 124.735 238.441 125.395 238.441C126.055 238.441 126.595 238.917 126.595 239.499Z" fill="#7ED4EF"/>
<path d="M139.175 240.557C139.838 240.557 140.375 240.084 140.375 239.499C140.375 238.915 139.838 238.441 139.175 238.441C138.512 238.441 137.975 238.915 137.975 239.499C137.975 240.084 138.512 240.557 139.175 240.557Z" fill="#7ED4EF"/>
<path d="M152.955 240.557C153.618 240.557 154.155 240.084 154.155 239.499C154.155 238.915 153.618 238.441 152.955 238.441C152.292 238.441 151.755 238.915 151.755 239.499C151.755 240.084 152.292 240.557 152.955 240.557Z" fill="#7ED4EF"/>
<path d="M166.745 240.557C167.408 240.557 167.945 240.084 167.945 239.499C167.945 238.915 167.408 238.441 166.745 238.441C166.082 238.441 165.545 238.915 165.545 239.499C165.545 240.084 166.082 240.557 166.745 240.557Z" fill="#7ED4EF"/>
<path d="M180.525 240.557C181.188 240.557 181.725 240.084 181.725 239.499C181.725 238.915 181.188 238.441 180.525 238.441C179.862 238.441 179.325 238.915 179.325 239.499C179.325 240.084 179.862 240.557 180.525 240.557Z" fill="#7ED4EF"/>
<path d="M194.305 240.557C194.968 240.557 195.505 240.084 195.505 239.499C195.505 238.915 194.968 238.441 194.305 238.441C193.642 238.441 193.105 238.915 193.105 239.499C193.105 240.084 193.642 240.557 194.305 240.557Z" fill="#7ED4EF"/>
<path d="M2.56506 251.387C2.56506 251.969 2.0251 252.445 1.36508 252.445C0.705065 252.445 0.165039 251.969 0.165039 251.387C0.165039 250.805 0.705065 250.329 1.36508 250.329C2.0251 250.338 2.56506 250.805 2.56506 251.387Z" fill="#7ED4EF"/>
<path d="M16.3451 251.387C16.3451 251.969 15.8051 252.445 15.1451 252.445C14.4851 252.445 13.9451 251.969 13.9451 251.387C13.9451 250.805 14.4851 250.329 15.1451 250.329C15.8051 250.338 16.3451 250.805 16.3451 251.387Z" fill="#7ED4EF"/>
<path d="M30.125 251.387C30.125 251.969 29.5851 252.445 28.9251 252.445C28.2651 252.445 27.7251 251.969 27.7251 251.387C27.7251 250.805 28.2651 250.329 28.9251 250.329C29.5851 250.338 30.125 250.805 30.125 251.387Z" fill="#7ED4EF"/>
<path d="M43.905 251.387C43.905 251.969 43.365 252.445 42.7051 252.445C42.0451 252.445 41.5051 251.969 41.5051 251.387C41.5051 250.805 42.0451 250.329 42.7051 250.329C43.365 250.338 43.905 250.805 43.905 251.387Z" fill="#7ED4EF"/>
<path d="M57.6851 251.387C57.6851 251.969 57.1451 252.445 56.4851 252.445C55.8251 252.445 55.2852 251.969 55.2852 251.387C55.2852 250.805 55.8251 250.329 56.4851 250.329C57.1451 250.338 57.6851 250.805 57.6851 251.387Z" fill="#7ED4EF"/>
<path d="M71.4651 251.387C71.4651 251.969 70.9251 252.445 70.2651 252.445C69.6051 252.445 69.0651 251.969 69.0651 251.387C69.0651 250.805 69.6051 250.329 70.2651 250.329C70.9351 250.338 71.4651 250.805 71.4651 251.387Z" fill="#7ED4EF"/>
<path d="M85.2451 251.387C85.2451 251.969 84.7051 252.445 84.0451 252.445C83.3851 252.445 82.8451 251.969 82.8451 251.387C82.8451 250.805 83.3851 250.329 84.0451 250.329C84.7151 250.338 85.2451 250.805 85.2451 251.387Z" fill="#7ED4EF"/>
<path d="M99.0352 251.387C99.0352 251.969 98.4951 252.445 97.8351 252.445C97.175 252.445 96.635 251.969 96.635 251.387C96.635 250.805 97.175 250.329 97.8351 250.329C98.4951 250.338 99.0352 250.805 99.0352 251.387Z" fill="#7ED4EF"/>
<path d="M112.815 251.387C112.815 251.969 112.275 252.445 111.615 252.445C110.955 252.445 110.415 251.969 110.415 251.387C110.415 250.805 110.955 250.329 111.615 250.329C112.275 250.338 112.815 250.805 112.815 251.387Z" fill="#7ED4EF"/>
<path d="M126.595 251.387C126.595 251.969 126.055 252.445 125.395 252.445C124.735 252.445 124.195 251.969 124.195 251.387C124.195 250.805 124.735 250.329 125.395 250.329C126.055 250.338 126.595 250.805 126.595 251.387Z" fill="#7ED4EF"/>
<path d="M140.375 251.387C140.375 251.969 139.835 252.445 139.175 252.445C138.515 252.445 137.975 251.969 137.975 251.387C137.975 250.805 138.515 250.329 139.175 250.329C139.835 250.338 140.375 250.805 140.375 251.387Z" fill="#7ED4EF"/>
<path d="M154.155 251.387C154.155 251.969 153.615 252.445 152.955 252.445C152.295 252.445 151.755 251.969 151.755 251.387C151.755 250.805 152.295 250.329 152.955 250.329C153.625 250.338 154.155 250.805 154.155 251.387Z" fill="#7ED4EF"/>
<path d="M167.935 251.387C167.935 251.969 167.395 252.445 166.735 252.445C166.075 252.445 165.535 251.969 165.535 251.387C165.535 250.805 166.075 250.329 166.735 250.329C167.405 250.338 167.935 250.805 167.935 251.387Z" fill="#7ED4EF"/>
<path d="M181.725 251.387C181.725 251.969 181.185 252.445 180.525 252.445C179.865 252.445 179.325 251.969 179.325 251.387C179.325 250.805 179.865 250.329 180.525 250.329C181.185 250.338 181.725 250.805 181.725 251.387Z" fill="#7ED4EF"/>
<path d="M195.505 251.387C195.505 251.969 194.965 252.445 194.305 252.445C193.645 252.445 193.105 251.969 193.105 251.387C193.105 250.805 193.645 250.329 194.305 250.329C194.965 250.338 195.505 250.805 195.505 251.387Z" fill="#7ED4EF"/>
<path d="M1.36508 264.342C2.02784 264.342 2.56506 263.868 2.56506 263.284C2.56506 262.699 2.02784 262.225 1.36508 262.225C0.702323 262.225 0.165039 262.699 0.165039 263.284C0.165039 263.868 0.702323 264.342 1.36508 264.342Z" fill="#7ED4EF"/>
<path d="M15.1451 264.342C15.8078 264.342 16.3451 263.868 16.3451 263.284C16.3451 262.699 15.8078 262.225 15.1451 262.225C14.4823 262.225 13.9451 262.699 13.9451 263.284C13.9451 263.868 14.4823 264.342 15.1451 264.342Z" fill="#7ED4EF"/>
<path d="M30.125 263.284C30.125 263.866 29.5851 264.342 28.9251 264.342C28.2651 264.342 27.7251 263.866 27.7251 263.284C27.7251 262.702 28.2651 262.225 28.9251 262.225C29.5851 262.225 30.125 262.693 30.125 263.284Z" fill="#7ED4EF"/>
<path d="M42.7051 264.342C43.3678 264.342 43.905 263.868 43.905 263.284C43.905 262.699 43.3678 262.225 42.7051 262.225C42.0424 262.225 41.5051 262.699 41.5051 263.284C41.5051 263.868 42.0424 264.342 42.7051 264.342Z" fill="#7ED4EF"/>
<path d="M56.4851 264.342C57.1478 264.342 57.6851 263.868 57.6851 263.284C57.6851 262.699 57.1478 262.225 56.4851 262.225C55.8224 262.225 55.2852 262.699 55.2852 263.284C55.2852 263.868 55.8224 264.342 56.4851 264.342Z" fill="#7ED4EF"/>
<path d="M70.2651 264.342C70.9278 264.342 71.4651 263.868 71.4651 263.284C71.4651 262.699 70.9278 262.225 70.2651 262.225C69.6023 262.225 69.0651 262.699 69.0651 263.284C69.0651 263.868 69.6023 264.342 70.2651 264.342Z" fill="#7ED4EF"/>
<path d="M84.0551 264.342C84.7179 264.342 85.2551 263.868 85.2551 263.284C85.2551 262.699 84.7179 262.225 84.0551 262.225C83.3924 262.225 82.8551 262.699 82.8551 263.284C82.8551 263.868 83.3924 264.342 84.0551 264.342Z" fill="#7ED4EF"/>
<path d="M97.8351 264.342C98.4979 264.342 99.0352 263.868 99.0352 263.284C99.0352 262.699 98.4979 262.225 97.8351 262.225C97.1723 262.225 96.635 262.699 96.635 263.284C96.635 263.868 97.1723 264.342 97.8351 264.342Z" fill="#7ED4EF"/>
<path d="M111.615 264.342C112.278 264.342 112.815 263.868 112.815 263.284C112.815 262.699 112.278 262.225 111.615 262.225C110.952 262.225 110.415 262.699 110.415 263.284C110.415 263.868 110.952 264.342 111.615 264.342Z" fill="#7ED4EF"/>
<path d="M126.595 263.284C126.595 263.866 126.055 264.342 125.395 264.342C124.735 264.342 124.195 263.866 124.195 263.284C124.195 262.702 124.735 262.225 125.395 262.225C126.055 262.225 126.595 262.693 126.595 263.284Z" fill="#7ED4EF"/>
<path d="M139.175 264.342C139.838 264.342 140.375 263.868 140.375 263.284C140.375 262.699 139.838 262.225 139.175 262.225C138.512 262.225 137.975 262.699 137.975 263.284C137.975 263.868 138.512 264.342 139.175 264.342Z" fill="#7ED4EF"/>
<path d="M152.955 264.342C153.618 264.342 154.155 263.868 154.155 263.284C154.155 262.699 153.618 262.225 152.955 262.225C152.292 262.225 151.755 262.699 151.755 263.284C151.755 263.868 152.292 264.342 152.955 264.342Z" fill="#7ED4EF"/>
<path d="M166.745 264.342C167.408 264.342 167.945 263.868 167.945 263.284C167.945 262.699 167.408 262.225 166.745 262.225C166.082 262.225 165.545 262.699 165.545 263.284C165.545 263.868 166.082 264.342 166.745 264.342Z" fill="#7ED4EF"/>
<path d="M180.525 264.342C181.188 264.342 181.725 263.868 181.725 263.284C181.725 262.699 181.188 262.225 180.525 262.225C179.862 262.225 179.325 262.699 179.325 263.284C179.325 263.868 179.862 264.342 180.525 264.342Z" fill="#7ED4EF"/>
<path d="M194.305 264.342C194.968 264.342 195.505 263.868 195.505 263.284C195.505 262.699 194.968 262.225 194.305 262.225C193.642 262.225 193.105 262.699 193.105 263.284C193.105 263.868 193.642 264.342 194.305 264.342Z" fill="#7ED4EF"/>
</svg>
