<svg width="25" height="28" viewBox="0 0 25 28" fill="none" xmlns="http://www.w3.org/2000/svg">
<path d="M23.7893 11.9016L19.0007 9.16272L12.4409 14.0175L19.0007 18.8723L23.8046 16.1241C24.1724 15.9044 24.4763 15.5941 24.6868 15.2233C24.8973 14.8526 25.007 14.4341 25.0053 14.0088C25.0037 13.5835 24.8907 13.1658 24.6773 12.7967C24.464 12.4276 24.1576 12.1196 23.7881 11.9028L23.7893 11.9016Z" fill="#FF9100"/>
<path d="M14.0974 14.0176L8.29195 21.4087L0.746076 27.2939C0.509494 27.0618 0.321742 26.7854 0.193681 26.4809C0.0656196 26.1764 -0.000209164 25.8498 4.99253e-07 25.5199V2.4731C-0.000209164 2.14324 0.0656196 1.81662 0.193681 1.51212C0.321742 1.20762 0.509494 0.931281 0.746076 0.699097L8.29195 6.62533L14.0974 14.0176Z" fill="#25D9F8"/>
<path d="M14.0938 14.0175L12.4385 16.137V11.8993L14.0938 14.0175Z" fill="#00C0F1"/>
<path d="M19.0066 9.15459L14.0974 14.0164L0.744904 0.702602C0.905108 0.562192 1.07718 0.435654 1.25924 0.324382C1.64466 0.106148 2.08261 -0.00452607 2.5265 0.00413402C2.97038 0.0127941 3.4036 0.140465 3.78005 0.373562L12.4373 5.40869L19.0066 9.15459Z" fill="#7FE881"/>
<path d="M19.0078 9.15698L14.0938 14.0165L12.4385 12.3771V5.40991L19.0078 9.15698Z" fill="#5BC980"/>
<path d="M19.0066 18.8782L12.4385 22.6252L3.76465 27.6405C3.37919 27.8717 2.93831 27.9966 2.48769 28.0023C2.05725 27.996 1.63527 27.8829 1.26039 27.6733C1.07835 27.562 0.906275 27.4354 0.746063 27.295L14.0974 14.0164L19.0066 18.8782Z" fill="#FF637B"/>
<path d="M19.0078 18.8782L12.4397 22.6252V15.6557L14.0938 14.0164L19.0078 18.8782Z" fill="#E63950"/>
</svg>
