<svg width="130" height="130" viewBox="0 0 130 130" fill="none" xmlns="http://www.w3.org/2000/svg">
<g clip-path="url(#clip0)">
<path d="M102.745 35.6442L105.442 29.3528H96.1917L92.2606 39.8375L100.647 44.0307V60.8038L109.034 39.8345L102.745 35.6442Z" fill="#FFB434"/>
<path d="M48.4804 16.1601C47.3456 15.0252 45.9984 14.125 44.5157 13.5108C43.033 12.8966 41.4438 12.5805 39.839 12.5805C38.2341 12.5805 36.6449 12.8966 35.1622 13.5108C33.6795 14.125 32.3323 15.0252 31.1975 16.1601L4.80914 42.5485H74.8717L48.4804 16.1601Z" fill="#007AFF"/>
<path d="M18.8712 96.4509H60.8067V127.902H18.8712V96.4509Z" fill="#007AFF"/>
<path d="M117.42 79.6779V67.0981H75.4846V54.5184C76.5963 54.5168 77.6619 54.0745 78.448 53.2885C79.234 52.5024 79.6763 51.4367 79.6779 50.3251V46.1318C79.6771 45.0197 79.2352 43.9532 78.449 43.1665C77.6629 42.3799 76.5968 41.9372 75.4846 41.9356H4.19326C3.08162 41.9372 2.01595 42.3795 1.2299 43.1655C0.443849 43.9516 0.00155911 45.0172 0 46.1289L0 50.3221C0.00155911 51.4338 0.443849 52.4994 1.2299 53.2855C2.01595 54.0715 3.08162 54.5138 4.19326 54.5154V79.6779C3.08162 79.6795 2.01595 80.1218 1.2299 80.9078C0.443849 81.6939 0.00155911 82.7596 0 83.8712L0 88.0645C0.00155911 89.1761 0.443849 90.2417 1.2299 91.0278C2.01595 91.8139 3.08162 92.2561 4.19326 92.2577V130H117.42V92.2577C118.532 92.2561 119.598 91.8139 120.384 91.0278C121.17 90.2417 121.612 89.1761 121.613 88.0645V83.8712C121.612 82.7596 121.17 81.6939 120.384 80.9078C119.598 80.1218 118.532 79.6795 117.42 79.6779ZM113.227 79.6779H109.031V71.2914H113.224L113.227 79.6779ZM83.8712 79.6779V71.2914H88.0644V79.6779H83.8712ZM92.2577 71.2914H96.4509V79.6779H92.2577V71.2914ZM100.644 71.2914H104.837V79.6779H100.647L100.644 71.2914ZM79.6749 71.2914V79.6779H75.4846V71.2914H79.6749ZM4.19326 46.1289H75.4846V50.3221H4.19326V46.1289ZM8.38653 54.5154H71.2914V79.6779H67.0981V58.7087H46.1288V79.6779H33.5491V58.7087H12.5798V79.6779H8.38653V54.5154ZM62.9019 69.1933H58.7116V62.9019H62.9048L62.9019 69.1933ZM54.5154 69.1933H50.3221V62.9019H54.5154V69.1933ZM50.3221 73.3866H54.5154V79.6779H50.3221V73.3866ZM58.7086 73.3866H62.9019V79.6779H58.7116L58.7086 73.3866ZM29.3558 69.1933H25.1625V62.9019H29.3558V69.1933ZM20.9693 69.1933H16.7731V62.9019H20.9693V69.1933ZM16.776 73.3866H20.9693V79.6779H16.7731L16.776 73.3866ZM25.1625 73.3866H29.3558V79.6779H25.1625V73.3866ZM8.38947 92.2459H71.2914V125.795H41.9356V96.451H37.7423V125.807H8.38653L8.38947 92.2459ZM113.23 116.595L109.208 115.254L96.1121 117.438L96.8016 121.563L108.869 119.554L113.23 121.006V125.783H75.4846V92.2577H93.6721L90.525 103.273L80.9951 107.086L82.5539 110.982L90.9729 107.613L92.3638 111.795L96.3419 110.469L94.4501 104.793L95.3341 101.72L100.638 105.256L108.094 100.288L105.769 96.7987L100.641 100.217L96.5364 97.4824L98.0304 92.2548H113.224L113.23 116.595ZM4.19916 88.0526V83.8594H117.42V88.0526H4.19916Z" fill="black"/>
<path d="M46.1288 109.034H50.3221V117.42H46.1288V109.034Z" fill="black"/>
<path d="M29.3558 109.034H33.549V117.42H29.3558V109.034Z" fill="black"/>
<path d="M123.29 11.2125C122.73 8.89323 121.612 6.74582 120.033 4.95698C118.455 3.16815 116.463 1.79204 114.231 0.948307C111.999 0.104573 109.595 -0.181249 107.228 0.115693C104.86 0.412634 102.601 1.28335 100.647 2.65214C98.6926 1.28337 96.4332 0.412836 94.0654 0.116245C91.6977 -0.180346 89.2933 0.105985 87.0614 0.950339C84.8296 1.79469 82.8378 3.1715 81.2593 4.96103C79.6807 6.75056 78.5634 8.89862 78.0042 11.2184C75.72 12.0954 73.8151 13.7449 72.6206 15.8804C71.4262 18.0158 71.0177 20.5023 71.466 22.9077C71.9143 25.3131 73.1911 27.4854 75.0746 29.0472C76.9581 30.609 79.3293 31.4616 81.7761 31.4569H119.518C121.965 31.4616 124.336 30.609 126.22 29.0472C128.103 27.4854 129.38 25.3131 129.828 22.9077C130.277 20.5023 129.868 18.0158 128.674 15.8804C127.479 13.7449 125.574 12.0954 123.29 11.2184V11.2125ZM119.518 27.2577H81.7761C80.7243 27.2588 79.689 26.9963 78.7649 26.494C77.8408 25.9917 77.0573 25.2658 76.4862 24.3825C75.9151 23.4993 75.5745 22.487 75.4957 21.4382C75.4168 20.3894 75.6021 19.3375 76.0347 18.3788C76.4673 17.4201 77.1334 16.5852 77.9719 15.9503C78.8105 15.3155 79.7948 14.901 80.8349 14.7448C81.875 14.5886 82.9378 14.6956 83.9258 15.0561C84.9139 15.4166 85.7957 16.0191 86.4909 16.8085L89.6351 14.0355C87.847 12.0128 85.3475 10.7577 82.6571 10.5318C83.3089 9.00363 84.3162 7.65318 85.5952 6.59279C86.8741 5.5324 88.3878 4.79274 90.0103 4.43533C91.6328 4.07791 93.3171 4.11309 94.9233 4.53792C96.5294 4.96275 98.0109 5.76496 99.2445 6.87781L100.644 8.13609L102.044 6.87781C103.278 5.76496 104.759 4.96275 106.365 4.53792C107.971 4.11309 109.656 4.07791 111.278 4.43533C112.901 4.79274 114.414 5.5324 115.693 6.59279C116.972 7.65318 117.98 9.00363 118.631 10.5318C115.944 10.7603 113.448 12.015 111.662 14.0355L114.806 16.8085C115.502 16.0191 116.384 15.4166 117.372 15.0561C118.36 14.6956 119.422 14.5886 120.462 14.7448C121.503 14.901 122.487 15.3155 123.325 15.9503C124.164 16.5852 124.83 17.4201 125.263 18.3788C125.695 19.3375 125.881 20.3894 125.802 21.4382C125.723 22.487 125.382 23.4993 124.811 24.3825C124.24 25.2658 123.457 25.9917 122.532 26.494C121.608 26.9963 120.573 27.2588 119.521 27.2577H119.518Z" fill="black"/>
</g>
<defs>
<clipPath id="clip0">
<rect width="130" height="130" fill="white"/>
</clipPath>
</defs>
</svg>
