<svg width="19" height="31" viewBox="0 0 19 31" fill="none" xmlns="http://www.w3.org/2000/svg">
<path d="M7.86036 14.9983L18.0604 4.91862C18.3448 4.65724 18.5728 4.34175 18.7306 3.9911C18.8885 3.64046 18.973 3.2619 18.9791 2.87816C18.9851 2.49443 18.9126 2.11344 18.7659 1.7581C18.6192 1.40275 18.4013 1.08038 18.1254 0.810357C17.8494 0.540331 17.521 0.328222 17.16 0.186775C16.799 0.0453278 16.4127 -0.0225379 16.0245 -0.0127446C15.6363 -0.00295134 15.254 0.0842988 14.9008 0.243763C14.5475 0.403228 14.2306 0.631616 13.9689 0.915204L1.76335 12.9767C1.49328 13.2414 1.27892 13.5563 1.13264 13.9033C0.986356 14.2503 0.911041 14.6225 0.911041 14.9983C0.911041 15.3742 0.986356 15.7464 1.13264 16.0934C1.27892 16.4404 1.49328 16.7553 1.76335 17.02L13.9804 29.2353C14.5192 29.7714 15.2514 30.0741 16.016 30.0768C16.7806 30.0795 17.515 29.7819 18.0576 29.2495C18.6001 28.7171 18.9065 27.9935 18.9092 27.2379C18.9119 26.4823 18.6107 25.7566 18.072 25.2204L7.86036 14.9983Z" fill="black"/>
</svg>
