<svg width="239" height="303" viewBox="0 0 239 303" fill="none" xmlns="http://www.w3.org/2000/svg">
<path opacity="0.06" d="M58.778 147.982C39.678 170.85 9.86799 188.293 1.90799 215.817C-3.97201 236.118 4.18804 258.474 20.208 273.943C36.238 289.411 59.258 298.397 82.778 301.396C130.188 307.446 180.598 288.882 209.038 254.885C226.508 234.002 235.738 208.295 238.038 182.42C240.328 156.545 235.948 130.477 228.108 105.466C221.098 83.0836 211.158 61.1157 195.428 42.5078C179.698 23.8911 157.728 8.77546 132.228 3.01671C112.698 -1.39275 91.028 0.141732 73.028 8.36978C60.638 14.0315 57.998 15.6101 64.808 25.9194C69.638 33.2303 73.568 40.9028 76.408 48.9897C87.988 81.9636 82.168 119.982 58.778 147.982Z" fill="url(#paint0_linear)"/>
<defs>
<linearGradient id="paint0_linear" x1="9.67752e-05" y1="151.558" x2="238.646" y2="151.558" gradientUnits="userSpaceOnUse">
<stop stop-color="#7ED4EF"/>
<stop offset="0.2294" stop-color="#66BFE6"/>
<stop offset="0.711" stop-color="#298BD0"/>
<stop offset="1" stop-color="#0169C2"/>
</linearGradient>
</defs>
</svg>
