<svg width="131" height="128" viewBox="0 0 131 128" fill="none" xmlns="http://www.w3.org/2000/svg">
<path d="M116.207 41.9665H80.2896C78.2473 41.9637 76.2277 41.5408 74.3581 40.7245C72.4884 39.9082 70.8093 38.7162 69.4265 37.2236C68.0436 35.731 66.9871 33.9701 66.3234 32.0519C65.6597 30.1337 65.4031 28.0998 65.57 26.0783C65.7369 24.0568 66.3236 22.0915 67.2931 20.3063C68.2625 18.5211 69.5938 16.9546 71.2029 15.7057C72.8121 14.4567 74.6643 13.5522 76.6429 13.0493C78.6214 12.5463 80.6833 12.4558 82.6988 12.7834C84.1639 8.98958 86.7623 5.73154 90.1454 3.4465C93.5285 1.16146 97.5344 -0.0412653 101.626 -0.000267424C105.717 0.0407305 109.697 1.32349 113.033 3.67586C116.369 6.02824 118.901 9.33768 120.289 13.1601C123.716 14.1367 126.673 16.3104 128.615 19.2807C130.557 22.2511 131.352 25.8182 130.855 29.325C130.359 32.8319 128.603 36.0424 125.911 38.3653C123.219 40.6882 119.773 41.9671 116.207 41.9665Z" fill="#007AFF"/>
<path d="M128.002 68.561C120.571 64.8818 112.382 62.9622 104.079 62.9528H77.4373L53.493 46.1674H32.9321L49.8336 62.9528H32.4951L13.4787 46.1674H0.97406L9.3459 64.8755L6.33883 65.3727V72.4244L7.68913 73.3827C17.3554 80.2622 28.9537 83.9517 40.8457 83.9301H45.5945L30.1344 99.284L32.2949 100.7C32.9704 101.143 33.6023 101.647 34.1823 102.207L34.7891 102.81H47.1299L74.0691 83.924H103.551C110.797 83.9327 117.968 82.4714 124.625 79.6298L127.717 78.3128C128.667 77.9079 129.48 77.2418 130.061 76.3931C130.643 75.5443 130.967 74.5483 130.998 73.5223C131.028 72.4962 130.762 71.483 130.232 70.6019C129.702 69.7207 128.929 69.0085 128.005 68.549L128.002 68.561ZM43.1306 50.3623H52.1518L70.1123 62.9528H55.8082L43.1306 50.3623ZM7.47672 50.3623H11.8735L26.1351 62.9528H23.2282C21.7154 62.9534 20.2053 63.0774 18.713 63.3235L13.6517 64.1613L7.47672 50.3623ZM126.051 74.4706L122.959 75.7875C116.825 78.4076 110.216 79.7542 103.539 79.7443H80.0802L83.6213 77.2611L81.1938 73.8317L45.8251 98.6271H36.7948L58.5422 77.0291L55.5533 74.0607L49.8427 79.7382H40.8457C30.0087 79.7569 19.431 76.4464 10.5627 70.2607V68.9377L19.4049 67.4731C20.6678 67.2692 21.9455 67.1684 23.2251 67.1718H104.079C111.726 67.1807 119.268 68.9486 126.112 72.337C126.315 72.4382 126.485 72.595 126.602 72.7889C126.719 72.9829 126.778 73.206 126.772 73.432C126.765 73.658 126.694 73.8775 126.566 74.0647C126.439 74.2519 126.26 74.399 126.051 74.4887V74.4706Z" fill="#333333"/>
<path d="M38.0329 128H12.6776C9.49528 128.01 6.42603 126.829 4.08183 124.691C1.73763 122.554 0.290729 119.617 0.029617 116.467C-0.231495 113.318 0.71237 110.186 2.67301 107.696C4.63366 105.207 7.46703 103.543 10.6082 103.036C12.2838 100.053 14.8366 97.6499 17.925 96.1475C21.0135 94.6451 24.4902 94.1152 27.8902 94.6287C31.2901 95.1422 34.4511 96.6746 36.9502 99.0209C39.4493 101.367 41.1673 104.416 41.8744 107.758C44.1657 108.648 46.0718 110.305 47.2633 112.443C48.4547 114.581 48.8567 117.065 48.3996 119.466C47.9425 121.867 46.6551 124.034 44.76 125.592C42.8648 127.15 40.4811 128.002 38.0207 128H38.0329Z" fill="#007AFF"/>
<path d="M114.095 107.017H71.8388V111.215H114.095V107.017Z" fill="#333333"/>
<path d="M67.6119 107.017H63.3851V111.215H67.6119V107.017Z" fill="#333333"/>
<path d="M52.8224 14.6879H19.0164V18.8858H52.8224V14.6879Z" fill="#333333"/>
<path d="M14.7926 14.6879H10.5657V18.8858H14.7926V14.6879Z" fill="#333333"/>
<path d="M42.2597 25.1812H10.5657V29.379H42.2597V25.1812Z" fill="#333333"/>
<path d="M6.33884 25.1812H2.11195V29.379H6.33884V25.1812Z" fill="#333333"/>
</svg>
