<svg width="120" height="119" viewBox="0 0 120 119" fill="none" xmlns="http://www.w3.org/2000/svg">
<g clip-path="url(#clip0)">
<path d="M62.123 2.36514C51.8686 6.30429 42.7242 12.6389 35.4657 20.8311C28.2073 29.0233 23.0493 38.8314 20.4296 49.4226C24.5375 49.8307 28.4888 51.2012 31.9578 53.4209L32.0292 53.464C36.1763 50.7126 41.0536 49.2439 46.0433 49.2439C51.0329 49.2439 55.9103 50.7126 60.0574 53.464C64.2045 50.7126 69.0819 49.2439 74.0715 49.2439C79.0611 49.2439 83.9385 50.7126 88.0856 53.464L88.157 53.4209C92.5939 50.6839 97.7165 49.2369 102.942 49.2445C108.167 49.2521 113.285 50.7141 117.714 53.464C115.388 25.5063 90.7374 3.38626 62.123 2.36514Z" fill="#007AFF"/>
<path d="M32.4013 71.1152C27.5332 72.5248 23.2572 75.4618 20.215 79.4856C17.1728 83.5094 15.5283 88.4029 15.5283 93.4321C15.5283 98.4612 17.1728 103.355 20.215 107.379C23.2572 111.402 27.5332 114.339 32.4013 115.749C37.2695 114.339 41.5454 111.402 44.5876 107.379C47.6299 103.355 49.2744 98.4612 49.2744 93.4321C49.2744 88.4029 47.6299 83.5094 44.5876 79.4856C41.5454 75.4618 37.2695 72.5248 32.4013 71.1152Z" fill="#FFB434"/>
<path d="M60.0015 27.89C59.5378 27.89 59.0844 28.0264 58.6989 28.2819C58.3133 28.5374 58.0127 28.9005 57.8353 29.3254C57.6578 29.7502 57.6114 30.2178 57.7019 30.6688C57.7923 31.1198 58.0156 31.5342 58.3435 31.8593C58.6715 32.1845 59.0892 32.406 59.5441 32.4957C59.9989 32.5854 60.4704 32.5394 60.8988 32.3634C61.3273 32.1874 61.6935 31.8894 61.9511 31.507C62.2088 31.1246 62.3462 30.675 62.3462 30.2152C62.3462 29.5985 62.0992 29.0071 61.6595 28.571C61.2198 28.135 60.6234 27.89 60.0015 27.89Z" fill="black"/>
<path d="M1.15743 55.4601C1.53613 55.6801 1.96955 55.7901 2.40825 55.7776C2.84696 55.7651 3.27329 55.6306 3.63862 55.3894C7.63584 52.9272 12.24 51.6051 16.9454 51.5682C21.6508 51.5313 26.2755 52.7811 30.3115 55.1802C30.7388 55.5724 31.2986 55.7918 31.8808 55.7954H31.9057C32.3848 55.8066 32.8559 55.6712 33.2548 55.4078C36.8391 53.0197 41.0341 51.6911 45.3507 51.5767C49.6674 51.4624 53.9279 52.567 57.6357 54.762V107.377C57.6357 110.459 58.8704 113.415 61.0681 115.595C63.2658 117.774 66.2466 118.998 69.3547 118.998C72.4628 118.998 75.4435 117.774 77.6413 115.595C79.839 113.415 81.0737 110.459 81.0737 107.377V98.0825C81.0851 97.7702 81.033 97.4589 80.9204 97.1671C80.8078 96.8752 80.6371 96.6089 80.4184 96.384C80.1996 96.159 79.9374 95.9801 79.6475 95.8579C79.3575 95.7357 79.0456 95.6728 78.7305 95.6728C78.4154 95.6728 78.1035 95.7357 77.8136 95.8579C77.5236 95.9801 77.2614 96.159 77.0426 96.384C76.8239 96.6089 76.6532 96.8752 76.5406 97.1671C76.428 97.4589 76.3759 97.7702 76.3873 98.0825V107.38C76.3873 109.229 75.6465 111.003 74.328 112.31C73.0094 113.618 71.221 114.353 69.3562 114.353C67.4915 114.353 65.7031 113.618 64.3845 112.31C63.0659 111.003 62.3251 109.229 62.3251 107.38V54.7466C66.0329 52.5517 70.2934 51.447 74.6101 51.5614C78.9267 51.6757 83.1217 53.0044 86.706 55.3925C87.0913 55.6488 87.5447 55.7858 88.0086 55.7862H88.08C88.6622 55.7825 89.222 55.5631 89.6493 55.171C93.6854 52.7722 98.31 51.5226 103.015 51.5595C107.721 51.5964 112.325 52.9183 116.322 55.3802C116.689 55.6226 117.117 55.7577 117.557 55.77C117.997 55.7823 118.432 55.6714 118.812 55.4499C119.192 55.2284 119.501 54.9053 119.704 54.5176C119.907 54.13 119.996 53.6934 119.96 53.258C117.519 23.5257 90.8372 0 59.999 0C29.1608 0 2.48177 23.5072 0.00056859 53.2641C-0.0349636 53.7011 0.0547918 54.1391 0.259481 54.5277C0.464171 54.9162 0.775455 55.2395 1.15743 55.4601ZM62.3406 49.4841V39.5129C62.3521 39.2006 62.3 38.8893 62.1874 38.5974C62.0748 38.3056 61.904 38.0393 61.6853 37.8143C61.4666 37.5894 61.2044 37.4105 60.9144 37.2883C60.6244 37.1661 60.3126 37.1031 59.9975 37.1031C59.6824 37.1031 59.3705 37.1661 59.0805 37.2883C58.7905 37.4105 58.5283 37.5894 58.3096 37.8143C58.0909 38.0393 57.9201 38.3056 57.8075 38.5974C57.695 38.8893 57.6428 39.2006 57.6543 39.5129V49.4841C54.0211 47.7893 50.057 46.9062 46.0419 46.8971C42.0269 46.8881 38.0588 47.7534 34.4179 49.4319C35.9345 25.9247 45.7818 7.074 57.6574 4.86875V20.9144C57.6795 21.5161 57.936 22.0858 58.373 22.5037C58.81 22.9216 59.3935 23.1551 60.0006 23.1551C60.6077 23.1551 61.1911 22.9216 61.6281 22.5037C62.0651 22.0858 62.3217 21.5161 62.3437 20.9144V4.86875C74.2163 7.0863 84.0542 25.9247 85.5802 49.4319C81.9389 47.7529 77.9702 46.8874 73.9545 46.8964C69.9389 46.9055 65.9742 47.7888 62.3406 49.4841ZM114.756 49.275C111.001 47.7082 106.967 46.905 102.893 46.9129H102.846C98.5172 46.8962 94.2349 47.8002 90.2882 49.5641C89.4198 34.9671 84.9226 16.8084 74.5543 6.61572C84.598 9.30551 93.6839 14.7248 100.787 22.2624C107.891 29.8 112.729 39.156 114.756 49.275ZM45.4499 6.61572C35.0785 16.8084 30.5844 34.964 29.716 49.5641C25.8723 47.8666 21.7196 46.9654 17.5122 46.9157C13.3049 46.866 9.13169 47.6688 5.2483 49.275C7.2755 39.156 12.1136 29.8 19.217 22.2624C26.3203 14.7248 35.4063 9.30551 45.4499 6.61572Z" fill="black"/>
<path d="M26.0154 100.242C25.4108 100.182 24.8262 99.9934 24.3013 99.6899C23.7764 99.3864 23.3233 98.9746 22.9728 98.4824C22.7788 98.2366 22.5369 98.0321 22.2615 97.8811C21.9861 97.73 21.6828 97.6355 21.3698 97.6032C21.0568 97.5708 20.7404 97.6012 20.4395 97.6927C20.1386 97.7842 19.8594 97.9348 19.6184 98.1355C19.3774 98.3363 19.1797 98.583 19.0369 98.8612C18.8942 99.1393 18.8094 99.4431 18.7875 99.7545C18.7657 100.066 18.8073 100.378 18.9098 100.673C19.0124 100.968 19.1737 101.24 19.3844 101.472C20.5053 102.852 21.9884 103.9 23.6706 104.498V107.211C23.6592 107.523 23.7113 107.835 23.8239 108.127C23.9365 108.418 24.1072 108.685 24.3259 108.91C24.5447 109.135 24.8069 109.313 25.0969 109.436C25.3868 109.558 25.6987 109.621 26.0138 109.621C26.3289 109.621 26.6407 109.558 26.9307 109.436C27.2207 109.313 27.4829 109.135 27.7016 108.91C27.9204 108.685 28.0911 108.418 28.2037 108.127C28.3163 107.835 28.3684 107.523 28.357 107.211V104.486C29.9114 103.931 31.2192 102.851 32.0508 101.436C32.8825 100.02 33.185 98.3595 32.9053 96.7449C32.6255 95.1303 31.7814 93.6649 30.521 92.6059C29.2605 91.5468 27.6643 90.9617 26.0123 90.9532C25.6974 90.9645 25.3834 90.9129 25.0891 90.8012C24.7948 90.6896 24.5262 90.5202 24.2994 90.3033C24.0726 90.0864 23.8922 89.8265 23.769 89.5389C23.6458 89.2513 23.5823 88.942 23.5823 88.6295C23.5823 88.3171 23.6458 88.0078 23.769 87.7202C23.8922 87.4326 24.0726 87.1726 24.2994 86.9557C24.5262 86.7388 24.7948 86.5695 25.0891 86.4579C25.3834 86.3462 25.6974 86.2945 26.0123 86.3059C26.9835 86.3708 27.8916 86.8062 28.5462 87.5208C28.765 87.744 29.0268 87.9215 29.316 88.0425C29.6053 88.1636 29.9161 88.2258 30.2301 88.2255C30.5441 88.2251 30.8548 88.1622 31.1438 88.0406C31.4328 87.9189 31.6942 87.741 31.9125 87.5173C32.1309 87.2936 32.3017 87.0286 32.4148 86.7381C32.528 86.4477 32.5811 86.1377 32.5712 85.8266C32.5612 85.5154 32.4884 85.2093 32.3569 84.9266C32.2254 84.6439 32.038 84.3902 31.8058 84.1806C30.8352 83.212 29.6546 82.4757 28.3539 82.0276V79.3211C28.3318 78.7195 28.0753 78.1498 27.6383 77.7319C27.2012 77.314 26.6178 77.0805 26.0107 77.0805C25.4036 77.0805 24.8202 77.314 24.3831 77.7319C23.9461 78.1498 23.6896 78.7195 23.6675 79.3211V82.0461C22.1131 82.6009 20.8053 83.6809 19.9737 85.0964C19.142 86.5119 18.8394 88.1726 19.1192 89.7872C19.3989 91.4018 20.2431 92.8673 21.5035 93.9263C22.764 94.9854 24.3602 95.5704 26.0123 95.5789C26.619 95.6008 27.1934 95.8553 27.6148 96.2886C28.0362 96.722 28.2717 97.3005 28.2717 97.9026C28.2717 98.5046 28.0362 99.0832 27.6148 99.5166C27.1934 99.95 26.619 100.204 26.0123 100.226L26.0154 100.242Z" fill="black"/>
<path d="M25.7796 119C30.8782 119 35.8623 117.501 40.1017 114.692C44.3411 111.883 47.6453 107.89 49.5966 103.219C51.5479 98.5479 52.0586 93.4078 51.0642 88.4488C50.0697 83.4898 47.6147 78.9346 44.0097 75.3591C40.4047 71.7837 35.8115 69.3486 30.8109 68.3619C25.8103 67.3751 20.627 67.8809 15.9163 69.8154C11.2057 71.7499 7.17924 75.0261 4.34616 79.2298C1.51308 83.4335 0.000613402 88.376 0 93.4321C0.00738715 100.21 2.72572 106.709 7.55865 111.502C12.3916 116.295 18.9444 118.992 25.7796 119ZM25.7796 72.5145C29.9509 72.5145 34.0285 73.7412 37.4967 76.0393C40.965 78.3374 43.6682 81.6037 45.2644 85.4253C46.8607 89.2469 47.2783 93.4521 46.4646 97.5091C45.6508 101.566 43.6422 105.293 40.6926 108.218C37.7431 111.143 33.9852 113.135 29.8941 113.942C25.803 114.749 21.5625 114.334 17.7088 112.751C13.8551 111.168 10.5612 108.488 8.2438 105.048C5.92638 101.609 4.68946 97.5655 4.68946 93.429C4.69685 87.8844 6.92121 82.569 10.8748 78.6483C14.8284 74.7277 20.1884 72.5218 25.7796 72.5145Z" fill="black"/>
</g>
<defs>
<clipPath id="clip0">
<rect width="120" height="119" fill="white"/>
</clipPath>
</defs>
</svg>
