<svg width="615" height="440" viewBox="0 0 615 440" fill="none" xmlns="http://www.w3.org/2000/svg">
<path d="M412.849 223.201C412.719 223.201 412.592 223.166 412.48 223.1C412.368 223.034 412.275 222.939 412.212 222.825C412.149 222.712 412.118 222.583 412.121 222.453C412.125 222.323 412.163 222.196 412.232 222.086C418.309 212.334 421.329 191.252 415.616 174.198C411.448 161.768 403.189 152.873 391.732 148.476C367.907 139.332 362.196 131.285 351.829 116.679C347.478 110.55 342.065 102.923 334.06 93.5931C320.441 77.7221 304.151 69.929 292.88 66.1848C280.654 62.1219 271.532 61.813 271.445 61.813C271.255 61.8013 271.078 61.7164 270.95 61.5764C270.823 61.4364 270.754 61.2522 270.76 61.0627C270.765 60.8732 270.844 60.6933 270.98 60.561C271.116 60.4286 271.297 60.3542 271.487 60.3534C271.579 60.3534 280.874 60.6622 293.294 64.7816C300.52 67.1697 307.44 70.4023 313.909 74.4122C321.884 79.3681 329.053 85.5157 335.167 92.6412C343.217 102.022 348.652 109.68 353.021 115.833C363.223 130.208 368.844 138.126 392.257 147.112C398.542 149.524 403.899 153.209 408.177 158.066C412.002 162.404 414.97 167.675 417.001 173.732C420.535 184.274 420.461 194.621 419.775 201.445C418.915 210.011 416.619 217.814 413.477 222.856C413.411 222.963 413.319 223.051 413.209 223.111C413.099 223.172 412.975 223.203 412.849 223.201Z" fill="#D7EFFF"/>
<path d="M471.042 202.322H422.341V327.37H471.042V202.322Z" fill="#D5E7F5"/>
<path d="M467.648 205.446H425.93V263.762H467.648V205.446Z" fill="#98BDEA"/>
<path d="M467.648 266.331H425.93V269.65H467.648V266.331Z" fill="#98BDEA"/>
<path d="M467.648 273.965H425.93V277.283H467.648V273.965Z" fill="#98BDEA"/>
<path d="M467.648 281.6H425.93V284.918H467.648V281.6Z" fill="#98BDEA"/>
<path d="M467.648 289.235H425.93V292.553H467.648V289.235Z" fill="#98BDEA"/>
<path d="M467.648 296.869H425.93V300.187H467.648V296.869Z" fill="#98BDEA"/>
<path d="M467.648 304.504H425.93V307.822H467.648V304.504Z" fill="#98BDEA"/>
<path d="M467.648 312.139H425.93V315.457H467.648V312.139Z" fill="#98BDEA"/>
<path d="M467.648 319.773H425.93V323.091H467.648V319.773Z" fill="#98BDEA"/>
<path d="M273.487 389.231C347.803 389.231 408.049 381.849 408.049 372.743C408.049 363.638 347.803 356.256 273.487 356.256C199.17 356.256 138.924 363.638 138.924 372.743C138.924 381.849 199.17 389.231 273.487 389.231Z" fill="#D5E7F5"/>
<path d="M114.63 346.634C125.622 346.634 134.533 344.043 134.533 340.848C134.533 337.652 125.622 335.061 114.63 335.061C103.638 335.061 94.7267 337.652 94.7267 340.848C94.7267 344.043 103.638 346.634 114.63 346.634Z" fill="#D5E7F5"/>
<path d="M503.167 328.196H66.8333V331.162H503.167V328.196Z" fill="black"/>
<path d="M124.339 188.347C123.742 141.693 119.054 89.65 186.612 59.6411C254.171 29.6323 324.083 82.1164 347.372 122.256C370.661 162.397 400.022 144.079 411.793 183.752C423.565 223.425 418.986 266.827 306.306 272.846C193.627 278.865 125.241 258.561 124.339 188.347Z" fill="#D7EFFF"/>
<g opacity="0.89">
<path opacity="0.89" d="M354.718 100.352C352.372 100.352 349.95 100.254 347.452 100.058C328.325 98.5516 304.51 91.2337 276.667 78.3045C242.615 62.4899 197.743 66.0226 166.103 71.7708C131.755 78.0083 105.166 88.1298 104.898 88.2285C104.78 88.2778 104.655 88.3031 104.527 88.3028C104.4 88.3025 104.274 88.2767 104.157 88.2268C104.04 88.1769 103.934 88.104 103.846 88.0125C103.758 87.9209 103.689 87.8125 103.643 87.6938C103.598 87.575 103.577 87.4483 103.581 87.3212C103.585 87.1941 103.615 87.0691 103.669 86.9538C103.722 86.8384 103.799 86.735 103.893 86.6497C103.987 86.5644 104.098 86.4989 104.218 86.4572C104.484 86.3542 131.238 76.1736 165.76 69.9036C186.049 66.2186 205.02 64.5827 222.146 65.0424C243.602 65.6164 262.216 69.5003 277.469 76.584C305.099 89.4173 328.69 96.6745 347.589 98.1609C363.001 99.3766 375.389 96.7732 384.413 90.4242C394.326 83.4505 398.386 73.095 400.047 65.6362C401.862 57.4905 401.296 50.9159 401.29 50.851C401.275 50.7252 401.286 50.5976 401.321 50.4759C401.356 50.3542 401.416 50.2408 401.495 50.1424C401.575 50.044 401.674 49.9626 401.786 49.9029C401.898 49.8433 402.02 49.8067 402.146 49.7952C402.273 49.7837 402.4 49.7976 402.521 49.836C402.641 49.8745 402.753 49.9368 402.85 50.0191C402.946 50.1015 403.025 50.2023 403.081 50.3157C403.138 50.429 403.171 50.5525 403.18 50.679C403.205 50.961 403.779 57.5624 401.91 65.9831C400.813 70.9373 399.09 75.484 396.797 79.4948C394.002 84.4328 390.149 88.6915 385.515 91.9657C377.603 97.5418 367.265 100.351 354.718 100.352Z" fill="white"/>
</g>
<g opacity="0.89">
<path opacity="0.89" d="M340.485 139.424C337.133 139.424 333.687 139.272 330.15 138.969C313.69 137.559 294.827 132.829 274.085 124.909C238.28 111.23 196.347 113.455 167.476 117.717C136.142 122.35 112.998 130.33 112.768 130.409C112.651 130.45 112.526 130.468 112.402 130.46C112.278 130.453 112.156 130.422 112.044 130.367C111.932 130.313 111.831 130.237 111.749 130.144C111.666 130.051 111.602 129.943 111.561 129.825C111.52 129.708 111.503 129.583 111.51 129.459C111.517 129.335 111.549 129.213 111.603 129.101C111.657 128.989 111.733 128.888 111.826 128.806C111.919 128.723 112.027 128.659 112.145 128.618C112.376 128.538 135.658 120.506 167.161 115.846C185.67 113.107 203.362 112.048 219.746 112.698C240.256 113.513 258.765 117.022 274.762 123.134C312.775 137.648 343.809 141.185 367.004 133.661C386.172 127.439 395.735 115.328 402.064 107.316C405.464 103.011 407.705 100.166 410.169 100.055C411.213 100.008 412.204 100.478 413.116 101.434C413.206 101.524 413.277 101.63 413.325 101.748C413.373 101.866 413.397 101.992 413.396 102.119C413.394 102.246 413.367 102.371 413.316 102.487C413.265 102.604 413.191 102.708 413.099 102.796C413.007 102.883 412.898 102.951 412.779 102.996C412.66 103.04 412.534 103.06 412.407 103.055C412.28 103.05 412.155 103.019 412.041 102.964C411.926 102.91 411.823 102.833 411.739 102.739C411.042 102.002 410.557 101.936 410.254 101.95C408.663 102.022 406.408 104.877 403.552 108.492C400.527 112.323 396.384 117.569 390.641 122.524C383.818 128.412 376.278 132.646 367.589 135.466C359.484 138.101 350.401 139.424 340.485 139.424Z" fill="white"/>
</g>
<g opacity="0.89">
<path opacity="0.89" d="M323.112 179.751C320.604 179.751 318.073 179.684 315.521 179.548C301.82 178.82 287.013 176.117 271.51 171.51C233.715 160.283 194.715 161.175 168.654 163.894C140.388 166.856 120.819 172.542 120.625 172.598C120.384 172.669 120.124 172.641 119.903 172.521C119.683 172.401 119.519 172.197 119.448 171.956C119.377 171.715 119.405 171.455 119.525 171.235C119.646 171.014 119.849 170.85 120.09 170.779C120.286 170.721 139.986 164.997 168.414 162.013C185.109 160.264 201.513 159.792 217.17 160.603C236.752 161.625 255.217 164.678 272.05 169.678C337.604 189.151 370.821 169.64 392.801 156.73C399.495 152.8 404.78 149.694 409.629 148.53C415.012 147.236 419.359 148.576 423.308 152.745C423.481 152.927 423.575 153.171 423.568 153.423C423.561 153.674 423.455 153.912 423.272 154.085C423.09 154.258 422.846 154.352 422.595 154.345C422.343 154.338 422.105 154.232 421.932 154.049C414.484 146.194 406.684 150.775 393.76 158.366C382.736 164.839 369.019 172.892 349.416 177.063C341.058 178.857 332.244 179.751 323.112 179.751Z" fill="white"/>
</g>
<g opacity="0.89">
<path opacity="0.89" d="M302.614 221.636C291.533 221.636 280.372 220.463 268.946 218.11C228.966 209.887 192.898 209.426 169.681 210.495C144.515 211.644 128.603 214.782 128.445 214.813C128.198 214.862 127.942 214.812 127.733 214.672C127.524 214.532 127.379 214.315 127.329 214.069C127.28 213.822 127.331 213.566 127.471 213.357C127.61 213.147 127.827 213.002 128.074 212.953C128.232 212.922 144.252 209.762 169.55 208.602C184.509 207.922 199.495 208.052 214.441 208.99C232.884 210.133 251.224 212.562 269.328 216.26C316.618 225.991 349.629 213.489 376.154 203.446C388.16 198.901 398.53 194.975 407.86 194.198C418.148 193.342 426.299 196.484 433.507 204.087C433.68 204.269 433.774 204.513 433.767 204.765C433.76 205.017 433.654 205.255 433.471 205.429C433.289 205.602 433.045 205.695 432.793 205.688C432.541 205.682 432.303 205.575 432.129 205.393C425.349 198.24 417.687 195.284 408.014 196.085C398.95 196.839 388.694 200.722 376.822 205.218C363.693 210.189 348.811 215.823 331.078 219.047C321.687 220.765 312.161 221.631 302.614 221.636Z" fill="white"/>
</g>
<g opacity="0.89">
<path opacity="0.89" d="M280.476 265.41C275.775 265.413 271.077 265.181 266.399 264.714C185.497 256.592 136.655 257.007 136.172 257.011H136.16C135.915 257.003 135.682 256.9 135.511 256.724C135.34 256.548 135.244 256.313 135.243 256.067C135.241 255.822 135.335 255.585 135.504 255.408C135.674 255.23 135.905 255.125 136.15 255.114C136.636 255.114 185.57 254.691 266.588 262.827C298.938 266.07 328.096 257.165 353.823 249.304C371.256 243.977 387.72 238.947 402.641 238.551C410.651 238.339 417.693 239.45 424.177 241.949C431.347 244.712 437.734 249.115 443.702 255.41C443.866 255.594 443.952 255.835 443.942 256.082C443.932 256.328 443.826 256.561 443.647 256.731C443.468 256.901 443.23 256.994 442.983 256.991C442.737 256.989 442.501 256.89 442.325 256.716C418.458 231.532 390.18 240.167 354.385 251.11C332.244 257.871 307.6 265.41 280.476 265.41Z" fill="white"/>
</g>
<path d="M451.935 299.268C450.948 298.795 449.972 298.35 449.016 297.871C440.22 293.47 432.375 287.782 425.648 280.59C425.56 280.478 425.441 280.396 425.305 280.355C425.169 280.315 425.023 280.317 424.889 280.363C418.186 281.885 411.396 282.464 404.532 282.239C400.535 282.1 396.554 281.683 392.615 280.991C392.531 281.273 392.453 281.494 392.39 281.725C390.44 288.965 388.488 296.207 386.536 303.452C385.618 306.836 384.843 310.242 384.546 313.738C383.062 331.244 388.428 346.314 400.644 358.947C400.742 359.062 400.871 359.146 401.016 359.189C401.16 359.232 401.314 359.231 401.459 359.188C409.324 357.651 416.549 354.605 423.096 349.982C430.96 344.427 437.007 337.32 441.237 328.659C442.822 325.428 443.951 322.031 445.146 318.646C447.368 312.359 449.578 306.067 451.774 299.771C451.833 299.613 451.878 299.451 451.935 299.268Z" fill="#F7C1C1"/>
<path d="M442.933 304.024C442.171 303.662 441.424 303.319 440.689 302.953C433.937 299.568 427.912 295.206 422.745 289.682C422.678 289.596 422.586 289.533 422.482 289.502C422.377 289.471 422.266 289.473 422.163 289.509C417.035 290.657 411.781 291.141 406.53 290.949C403.462 290.842 400.404 290.522 397.38 289.99C397.314 290.203 397.255 290.377 397.207 290.554C395.709 296.114 394.211 301.675 392.711 307.237C392.006 309.833 391.411 312.455 391.182 315.134C390.045 328.579 394.166 340.151 403.545 349.851C403.62 349.939 403.72 350.003 403.831 350.035C403.942 350.068 404.06 350.067 404.171 350.034C410.732 348.765 416.909 345.986 422.21 341.917C427.512 337.849 431.794 332.601 434.717 326.591C435.934 324.111 436.801 321.498 437.719 318.904C439.426 314.075 441.123 309.244 442.812 304.409C442.855 304.291 442.889 304.165 442.933 304.024Z" fill="#F5838D"/>
<path d="M410.683 321.107C410.335 320.933 410.065 320.635 409.926 320.272L406.063 310.214C405.916 309.828 405.927 309.4 406.095 309.022C406.263 308.645 406.575 308.35 406.96 308.202C407.346 308.054 407.775 308.065 408.152 308.233C408.53 308.402 408.825 308.713 408.973 309.099L412.284 317.722L430.097 311.18C430.289 311.11 430.493 311.078 430.697 311.086C430.902 311.094 431.102 311.143 431.288 311.228C431.474 311.314 431.641 311.436 431.779 311.586C431.918 311.736 432.026 311.913 432.096 312.105C432.167 312.297 432.199 312.501 432.19 312.705C432.182 312.909 432.134 313.11 432.048 313.296C431.962 313.481 431.841 313.648 431.69 313.787C431.54 313.925 431.364 314.033 431.172 314.104L411.923 321.176C411.723 321.25 411.509 321.283 411.296 321.271C411.083 321.259 410.874 321.203 410.683 321.107Z" fill="white"/>
<path d="M321.355 138.229C321.355 138.229 315.477 139.216 314.742 132.884C314.008 126.552 319.376 125.762 322.486 126.328C325.596 126.893 325.934 128.584 325.934 128.584C325.934 128.584 330.568 124.837 335.824 126.174C341.08 127.511 338.388 130.223 342.452 132.145C346.517 134.067 348.33 136.779 346.861 140.453C345.391 144.127 347.16 145.822 345.844 148.139C344.528 150.456 342.396 148.647 341.718 151.02C341.039 153.394 339.038 154.784 335.425 154.557C331.812 154.33 334.238 156.813 328.869 157.045L321.355 138.229Z" fill="#26217D"/>
<path d="M314.239 134.918C314.366 134.918 318.309 134.664 320.852 133.816C323.394 132.969 325.26 136.572 327.507 137.377C329.753 138.183 335.816 138.568 336.621 141.467C337.426 144.367 338.105 145.134 339.123 146.87C340.141 148.606 335.858 152.973 339.801 152.253C343.744 151.532 344.125 151.957 344.125 151.957L340.903 155.941L329.11 158.361L326.665 156.83L328.821 148.396L315.934 142.038L314.239 134.918Z" fill="#121266"/>
<path d="M332.49 162.328C332.49 162.328 340.007 162.824 343.511 163.989C347.016 165.154 355.664 177.925 357.191 181.26C358.718 184.596 362.956 195.727 363.634 199.006C364.313 202.284 361.096 201.826 361.096 201.826C361.096 201.826 351.77 197.983 351.092 196.119C350.413 194.254 350.697 193.123 348.718 188.998C347.435 186.39 345.82 183.958 343.913 181.764L343.462 209.568L308.928 206.065L309.888 182.16C309.888 182.16 298.698 193.123 296.832 192.785C294.966 192.446 292.367 182.273 292.48 180.234C292.593 178.194 302.937 169.045 304.294 167.35C305.65 165.654 311.16 161.443 321.617 162.15C332.074 162.856 332.49 162.328 332.49 162.328Z" fill="white"/>
<path d="M297.297 188.211C297.297 188.211 299.614 187.533 303.683 183.012C307.752 178.491 309.392 174.817 309.788 173.518C309.99 172.809 310.274 172.126 310.634 171.483L309.863 182.613L306.055 191.337L300.753 195.332L297.297 188.211Z" fill="#FCE3E9"/>
<path d="M344.802 163.264C345.693 164.504 352.602 174.38 353.916 179.169C355.231 183.958 353.493 183.322 354.722 186.332C355.95 189.341 356.63 193.749 355.442 196.334L364.303 202.607L364.048 186.841L350.611 167.046L344.802 163.264Z" fill="#FCE3E9"/>
<path d="M344.435 183.463L343.906 181.771C343.906 181.771 343.531 176.233 341.609 175.329C339.687 174.425 340.199 183.693 337.879 188.044C335.559 192.394 316.457 199.13 316.457 199.13L309.788 207.824L343.983 209.575L345.001 185.219L344.435 183.463Z" fill="#FCE3E9"/>
<path d="M319.199 135.723C319.199 135.723 317.192 142.492 316.91 147.973C316.628 153.453 319.376 155.465 321.808 155.918C324.239 156.371 322.881 161.796 322.881 161.796C322.881 161.796 322.373 163.547 325.876 163.717C329.379 163.886 329.89 162.7 329.89 162.7C329.89 162.7 329.044 159.139 329.89 155.579C330.736 152.02 331.699 151.453 334.129 150.606C336.559 149.758 337.231 146.375 335.373 145.293C335.373 145.293 332.834 144.671 332.15 142.638C332.15 142.638 326.611 143.343 324.972 137.688C324.972 137.688 320.725 136.967 319.199 135.723Z" fill="#F8B3A3"/>
<path d="M318.011 136.359C318.011 136.444 319.651 138.507 322.901 138.874C326.15 139.24 324.029 142.011 327.14 143.226C330.251 144.44 331.039 146.046 333.329 146.418C335.62 146.791 338.444 147.465 338.444 147.465L323.013 134.946L318.774 134.41L318.011 136.359Z" fill="#E26A6A"/>
<path d="M321.361 156.27L322.084 155.997C322.084 155.997 325.045 155.909 326.839 155.115C326.839 155.115 324.624 157.997 322.94 158.077L321.361 156.27Z" fill="#E26A6A"/>
<path d="M329.523 157.782C329.523 157.782 327.741 160.47 326.553 160.668C325.366 160.865 326.271 169.435 327.316 168.706C328.361 167.977 332.829 163.863 332.32 162.027C331.81 160.191 330.54 157.726 329.523 157.782Z" fill="#FBD2DA"/>
<path d="M327.748 168.898C327.748 168.898 326.985 164.949 326.914 163.133C326.844 161.316 327.579 161.441 328.779 160.463C329.558 159.806 330.238 159.04 330.8 158.188L333.414 162.949L330.262 168.308L327.748 168.898Z" fill="#F9B2C2"/>
<path d="M323.249 158.362C323.44 159.057 323.706 159.73 324.04 160.369C324.521 161.215 323.563 169.187 322.771 168.678C321.978 168.169 320.462 164.92 320.575 162.659C320.688 160.398 323.249 158.362 323.249 158.362Z" fill="#FBD2DA"/>
<path d="M322.59 169.349C322.124 167.912 323.042 165.76 323.183 164.079C323.324 162.398 323.343 158.681 323.343 158.681L324.525 159.996L324.004 167.598L322.59 169.349Z" fill="#F9B2C2"/>
<path d="M290.806 181.458C290.806 181.458 263.87 170.579 259.579 167.919C255.287 165.259 240.361 160.686 240.192 167.919C240.023 175.152 256.159 173.006 257.331 173.797C258.503 174.588 284.363 190.796 289.534 191.26C294.706 191.724 295.921 189.85 295.921 189.85L290.806 181.458Z" fill="#F8B3A3"/>
<path d="M261.562 178.357C261.562 178.357 286.546 191.427 292.305 190.466C298.065 189.506 297.405 192.139 297.405 192.139L293.9 196.038C293.9 196.038 275.586 191.348 275.474 191.177C275.361 191.007 261.562 178.357 261.562 178.357Z" fill="#E26A6A"/>
<path d="M290.226 179.014C290.226 179.014 290.862 177.516 293.188 177.77C295.513 178.024 298.444 185.866 299.462 188.536C300.48 191.205 302.001 193.085 298.911 194.144C295.821 195.203 293.824 190.372 292.636 187.278C291.449 184.184 289.21 180.434 290.226 179.014Z" fill="#F9B2C2"/>
<path d="M350.295 197.14C350.295 197.14 332.039 198.268 326.048 198.158C320.058 198.048 320.678 195.841 314.856 195.783C309.035 195.725 301.861 201.737 310.166 202.339C318.471 202.941 322.683 203.373 323.885 203.532C325.086 203.692 343.064 205.165 350.635 205.053C358.205 204.94 360.355 202.339 360.355 202.339L350.295 197.14Z" fill="#F8B3A3"/>
<path d="M359.215 200.421C358.941 201.065 358.519 201.636 357.984 202.087C357.449 202.538 356.816 202.857 356.135 203.018C353.761 203.611 338.67 204.769 338.67 204.769L352.602 206.38L361.505 205.363L359.215 200.421Z" fill="#E26A6A"/>
<path d="M349.151 195.487C349.33 194.46 352.289 194.088 356.782 196.292C361.275 198.496 365.005 199.98 364.538 201.51C364.072 203.04 362.969 204.222 360.257 203.202C357.545 202.183 348.515 199.128 349.151 195.487Z" fill="#F9B2C2"/>
<path d="M161.807 252.835C161.807 252.835 162.469 223.22 171.799 211.213C181.939 198.158 199.675 196.632 218.302 197.815C236.929 198.998 281.953 200.954 302.305 201.589C322.658 202.224 357.69 201.448 368.792 214.469C379.894 227.49 380.387 252.917 381.374 264.11C382.362 275.303 382.362 287.846 382.362 287.846V362.059L160.558 361.26C160.558 361.26 160.573 268.686 161.807 252.835Z" fill="#68A3EA"/>
<path d="M145.143 313.276L394.88 315.311L400.164 375.328L153.96 376.345L145.143 313.276Z" fill="#A0C4F9"/>
<path d="M131.814 296.206C131.814 296.206 292.831 289.507 408.558 299.027V320.269C408.558 320.269 255.404 327.421 131.814 318.482V296.206Z" fill="#3C80D3"/>
<path d="M188.448 292.91C188.448 292.91 190.5 301.578 190.5 308.02C190.5 314.462 189.992 317.26 203.133 318.879C216.274 320.498 350.144 324.304 351.501 313.283C352.857 302.262 356.296 288.986 359.746 289.437C363.197 289.888 366.09 326.84 366.09 326.84C366.09 326.84 325.565 329.552 322.851 330.224C320.138 330.897 191.61 330.395 191.61 330.395C191.61 330.395 167.024 318.188 167.871 318.866C168.719 319.544 176.563 296.295 176.563 296.295L188.448 292.91Z" fill="#195DBF"/>
<g opacity="0.1">
<path opacity="0.1" d="M223.502 294C223.502 294 217.511 294.203 222.767 306.072C228.023 317.941 189.363 365.921 189.363 365.921L217.992 394.064C217.992 394.064 250.58 363.207 258.549 352.695C266.519 342.183 268.723 338.793 268.723 338.793L268.553 370.404H308.746C308.746 370.404 304.677 331.503 306.034 318.788C307.391 306.074 319.768 305.337 308.067 299.093C296.367 292.848 223.513 294.002 223.513 294.002" fill="#022659"/>
</g>
<path d="M166.507 360.182H153.96V368.659H166.507V360.182Z" fill="#26217D"/>
<path d="M389.125 360.182H376.578V368.659H389.125V360.182Z" fill="#26217D"/>
<path d="M157.758 252.411C167.296 252.157 180.903 258.225 184.084 271.975C187.264 285.725 187.644 325.142 184.084 342.183C180.523 359.225 166.915 363.291 157.122 361.765C147.329 360.239 141.481 358.459 139.7 336.334C137.919 314.208 139.446 278.732 141.862 265.635C144.278 252.537 157.758 252.411 157.758 252.411Z" fill="#87BBF9"/>
<path d="M385.327 252.411C375.788 252.157 362.182 258.225 359.002 271.975C355.821 285.725 355.441 325.142 359.002 342.183C362.562 359.225 376.17 363.291 385.963 361.765C395.756 360.239 401.604 358.459 403.385 336.334C405.167 314.208 403.639 278.732 401.223 265.635C398.808 252.537 385.327 252.411 385.327 252.411Z" fill="#87BBF9"/>
<path d="M347.346 299.01C335.095 296.171 338.563 295.33 333.658 295.779C328.753 296.227 333.314 282.393 336.452 275.083C339.047 269.036 340.188 264.488 344.119 261.524C345.876 261.139 347.504 258.139 353.309 255.585C359.526 252.841 364.121 255.08 364.121 255.08C371.581 257.115 369.39 264.47 368.364 266.864C368.416 266.801 368.472 266.74 368.531 266.682L368.099 267.293C368.099 267.293 359.602 301.849 347.346 299.01Z" fill="#F5838D"/>
<path d="M352.943 264.22C354.997 259.346 357.435 256.399 359.896 254.683C362.979 254.585 364.932 255.529 364.932 255.529C372.392 257.564 370.2 264.918 369.177 267.313C369.228 267.249 369.284 267.188 369.343 267.131L368.91 267.742C368.91 267.742 360.409 302.293 348.157 299.458C345.239 298.781 342.558 298.217 340.097 297.753C341.281 291.218 347.549 277.02 352.943 264.22Z" fill="#F7C1C1"/>
<path d="M198.692 299.01C210.943 296.171 207.474 295.33 212.38 295.779C217.287 296.227 212.724 282.393 209.587 275.083C206.992 269.036 205.849 264.488 201.919 261.524C200.162 261.139 198.534 258.139 192.73 255.585C186.511 252.841 181.917 255.08 181.917 255.08C174.457 257.115 176.649 264.47 177.672 266.864C177.621 266.8 177.566 266.74 177.507 266.682L177.939 267.293C177.939 267.293 186.439 301.849 198.692 299.01Z" fill="#F5838D"/>
<path d="M193.094 264.22C191.04 259.346 188.6 256.399 186.141 254.683C183.058 254.585 181.104 255.529 181.104 255.529C173.645 257.564 175.836 264.918 176.86 267.313C176.808 267.249 176.752 267.188 176.694 267.131L177.127 267.742C177.127 267.742 185.628 302.293 197.878 299.458C200.798 298.781 203.479 298.217 205.939 297.753C204.756 291.218 198.488 277.02 193.094 264.22Z" fill="#F7C1C1"/>
<path d="M150.524 132.532L148.91 139.333C148.91 139.333 168.753 125.633 184.693 129.693C184.693 129.693 195.552 113.019 218.884 112.981C218.884 112.981 230.298 93.5607 253.859 93.7539C253.859 93.7539 260.579 75.9846 281.35 70.3013L268.149 66.1608L205.335 83.8496L150.524 132.532Z" fill="#C92B5B"/>
<path d="M251.308 176.513L253.222 175.503L217.222 107.309L215.308 108.32L251.308 176.513Z" fill="white"/>
<path d="M208.135 92.9156C208.397 92.7716 208.685 92.6807 208.982 92.6479C209.279 92.6152 209.579 92.6413 209.866 92.7247C210.154 92.8082 210.421 92.9473 210.655 93.1342C210.888 93.3212 211.082 93.5522 211.226 93.8142L218.237 106.573C218.382 106.835 218.474 107.123 218.507 107.421C218.54 107.719 218.515 108.02 218.432 108.308C218.348 108.595 218.209 108.864 218.022 109.098C217.835 109.332 217.603 109.526 217.341 109.671C216.812 109.961 216.189 110.03 215.609 109.861C215.029 109.693 214.54 109.301 214.25 108.772L207.236 96.0085C206.945 95.4791 206.876 94.8558 207.045 94.2758C207.213 93.6958 207.605 93.2065 208.135 92.9156Z" fill="#85BCE5"/>
<path d="M246.321 164.68C246.85 164.389 247.473 164.32 248.053 164.489C248.633 164.657 249.122 165.049 249.412 165.578L256.423 178.335C256.714 178.865 256.782 179.488 256.614 180.068C256.445 180.648 256.053 181.137 255.524 181.428C254.995 181.719 254.372 181.788 253.792 181.619C253.212 181.451 252.723 181.059 252.433 180.53L245.421 167.771C245.277 167.509 245.186 167.221 245.154 166.924C245.121 166.627 245.147 166.326 245.23 166.039C245.314 165.751 245.453 165.483 245.64 165.25C245.827 165.017 246.059 164.822 246.321 164.678L246.321 164.68Z" fill="#85BCE5"/>
<path d="M192.359 62.1546L192.242 62.2153C191.838 62.4267 191.681 62.9259 191.893 63.3305L195.785 70.783C195.997 71.1875 196.496 71.3442 196.9 71.1329L197.017 71.0721C197.421 70.8608 197.578 70.3616 197.367 69.957L193.474 62.5045C193.263 62.1 192.763 61.9433 192.359 62.1546Z" fill="white"/>
<path d="M148.91 139.333C148.91 139.333 142.047 93.641 194.842 66.7418C244.262 41.5603 281.357 70.3013 281.357 70.3013C281.357 70.3013 253.907 66.6939 238.273 93.9231C238.273 93.9231 209.272 91.9219 193.734 117.508C193.734 117.503 164.247 116.391 148.91 139.333Z" fill="#ED4370"/>
<g opacity="0.33">
<path opacity="0.33" d="M191.186 66.2256C191.186 66.2256 174.121 82.5367 194.68 119.232L239.217 95.6464C239.217 95.6464 222.565 59.3718 202.539 61.8834L191.186 66.2256Z" fill="white"/>
</g>
<path d="M300.505 252.835C300.505 252.835 299.925 253.711 297.862 256.141C297.862 256.141 311.762 270.072 316.172 271.471C320.582 272.87 321.933 270.7 322.102 269.937C322.272 269.174 322.335 266.27 317.927 263.176C313.518 260.082 300.505 252.835 300.505 252.835Z" fill="#ED4370"/>
<path d="M290.063 221.498C290.063 221.498 288.028 217.831 281.019 218.677C274.01 219.523 268.697 223.589 268.359 233.256C268.021 242.924 266.495 251.963 266.495 251.963C266.495 251.963 274.69 262.87 294.642 255.41C294.642 255.41 294.529 242.073 294.642 236.874C294.755 231.674 294.528 221.385 290.063 221.498Z" fill="#ED4370"/>
<path d="M290.063 221.498C290.063 221.498 288.028 217.831 281.019 218.677C274.01 219.523 268.697 223.589 268.359 233.256C268.021 242.924 266.495 251.963 266.495 251.963C266.495 251.963 274.69 262.87 294.642 255.41C294.642 255.41 294.529 242.073 294.642 236.874C294.755 231.674 294.528 221.385 290.063 221.498Z" fill="#2E3E99"/>
<path d="M264.974 253.936C268.422 252.185 272.04 252.92 271.926 245.629C271.811 238.337 269.157 230.709 275.713 230.597C282.27 230.484 290.803 228.058 290.578 225.341C290.352 222.623 292.27 233.252 293.009 237.435C293.748 241.618 296.343 241.164 296.343 241.164L296.117 256.593L274.864 261.078L264.974 253.936Z" fill="#122989"/>
<path d="M278.475 248.737L276.949 248.992C276.949 248.992 271.24 249.133 265.646 255.575C260.051 262.017 250.449 272.982 254.567 274.112C258.685 275.241 269.686 262.753 269.686 262.753L270.192 291.895C270.192 291.895 285.962 297.805 297.152 289.413L293.973 263.315C293.973 263.315 317.076 274.959 321.315 270.665C325.555 266.371 301.138 255.011 299.215 254.389C297.293 253.767 289.664 247.692 283.844 248.964L278.475 248.737Z" fill="#ED4370"/>
<path d="M286.502 247.663C286.502 247.663 286.457 250.409 289.214 252.835C291.971 255.261 292.831 258.451 289.27 260.885C285.709 263.319 280.228 272.36 280.228 272.36L324.487 276.372L322.679 259.872C322.679 259.872 292.157 245.179 291.762 245.179C291.367 245.179 286.502 247.663 286.502 247.663Z" fill="#DB215B"/>
<path d="M290.74 232.461C290.74 232.461 290.571 239.865 288.932 243.086C287.293 246.307 283.845 245.741 283.845 245.741V248.964C283.845 248.964 281.135 251.657 278.235 248.778C278.235 248.778 278.575 245.22 278.291 243.891C278.008 242.563 276.285 241.079 276.399 238.283C276.399 238.283 273.939 237.83 274.223 234.975C274.506 232.121 276.878 232.914 276.878 232.914C276.878 232.914 277.43 232.829 280.002 232.122C282.574 231.416 289.723 231.02 291.002 230.116C290.995 230.116 290.765 231.78 290.74 232.461Z" fill="#F8B3A3"/>
<path d="M278.164 231.811C278.164 231.811 289.059 231.938 289.447 231.853C289.834 231.769 291.226 235.966 291.226 235.966C291.226 235.966 292.496 230.2 292.496 229.862C292.496 229.524 291.733 228.336 291.733 228.336L278.164 231.811Z" fill="#E26A6A"/>
<path d="M284.354 246.34L283.845 245.742L280.087 243.905L284.127 247.268L284.354 246.34Z" fill="#E26A6A"/>
<path d="M291.346 351.684C291.752 348.037 292.089 342.959 291.759 338.804C291.336 333.464 289.004 313.882 290.233 309.048C291.463 304.213 295.956 302.394 299.152 306.932C302.348 311.471 300.746 322.022 300.238 328.181C299.764 333.912 298.42 343.664 299.524 351.559C297.991 353.177 294.285 356.231 291.346 351.684Z" fill="#F8B3A3"/>
<path d="M288.932 319.635C288.932 319.635 295.629 319.635 296.817 325.568C298.004 331.501 299.142 342.092 299.142 342.092C299.142 342.092 305.295 325.823 304.955 323.872C304.615 321.922 302.417 312.428 302.417 312.428L289.19 315.39L288.932 319.635Z" fill="#E26A6A"/>
<path d="M291.346 351.684C294.286 356.227 297.993 353.178 299.526 351.557C299.609 352.15 299.703 352.732 299.815 353.3C301.171 360.211 301.638 367.712 294.939 368.475C288.24 369.238 290.488 357.793 290.998 354.402C291.108 353.65 291.229 352.725 291.346 351.684Z" fill="#ED4370"/>
<path d="M281.206 351.684C280.8 348.037 280.463 342.959 280.793 338.804C281.216 333.464 283.547 313.882 282.319 309.048C281.091 304.213 276.596 302.394 273.399 306.932C270.202 311.471 271.806 322.022 272.315 328.181C272.787 333.912 274.131 343.664 273.028 351.559C274.564 353.177 278.265 356.231 281.206 351.684Z" fill="#F8B3A3"/>
<path d="M270.132 316.243C270.132 316.243 278.758 315.82 279.69 325.823C280.623 335.826 280.678 344.134 280.678 344.134L284.181 326.84L286.027 313.531L271.91 312.09L270.132 316.243Z" fill="#E26A6A"/>
<path d="M271.411 299.962C271.411 299.962 267.678 305.312 268.872 312.847C270.067 320.382 286.691 318.03 292.498 317.818C298.306 317.607 307.859 318.539 307.605 313.023C307.351 307.508 300.779 295.583 300.779 295.583L271.411 299.962Z" fill="#FFDEEA"/>
<path d="M265.987 303.403C265.987 303.403 267.057 309.172 272.653 308.285C278.249 307.398 306.849 305.817 306.849 305.817L304.418 298.3L265.987 303.403Z" fill="#FFC2DB"/>
<path d="M281.207 351.684C278.265 356.227 274.56 353.178 273.027 351.557C272.944 352.15 272.849 352.732 272.736 353.3C271.381 360.211 270.914 367.712 277.612 368.475C284.309 369.238 282.063 357.793 281.561 354.402C281.443 353.65 281.322 352.725 281.207 351.684Z" fill="#ED4370"/>
<path d="M308.331 264.576L258.587 271.815L263.735 307.19L313.479 299.951L308.331 264.576Z" fill="#B7CCED"/>
<path d="M282.605 299.797L280.317 284.811L291.312 282.972L293.763 297.979" fill="white"/>
<path d="M279.288 300.263L297.035 297.354L297.431 300.01L279.824 302.836L279.288 300.263Z" fill="white"/>
<path d="M277.321 303.202L299.928 299.427L300.406 302.129L277.768 305.775L277.321 303.202Z" fill="white"/>
<path d="M305.06 273.633L296.711 275.106L298.279 283.997L306.628 282.525L305.06 273.633Z" fill="white"/>
<path d="M301.865 274.366L294.802 275.591L296.107 283.111L303.169 281.886L301.865 274.366Z" fill="#73A2E5"/>
<path d="M272.951 278.372L264.553 279.533L265.789 288.476L274.188 287.316L272.951 278.372Z" fill="white"/>
<path d="M272.414 279.13L265.275 280.116L266.326 287.718L273.465 286.731L272.414 279.13Z" fill="#73A2E5"/>
<path d="M268.867 285.189C268.867 285.189 274.491 286.74 279.493 285.811C284.495 284.882 288.451 286.234 286.558 288.914C284.666 291.593 279.38 294.536 268.867 290.183V285.189Z" fill="#F8B3A3"/>
<path d="M254.369 272.064C254.369 272.064 253.894 271.615 253.567 272.737C253.24 273.858 252.214 281.339 270.067 290.663C270.067 290.663 268.9 288.014 271.416 285.471C271.416 285.471 261.282 280.083 258.48 272.934L254.369 272.064Z" fill="#ED4370"/>
<path d="M300.795 253.626C300.795 253.626 294.522 248.257 292.091 246.929C289.659 245.6 285.62 246.476 287.684 249.952C289.747 253.429 298.959 256.056 298.959 256.056L300.795 253.626Z" fill="#F8B3A3"/>
<path d="M280.115 249.317L256.174 272.841L311.652 265.127L280.115 249.317Z" fill="white"/>
<path d="M280.428 251.232L260.78 270.538L306.312 264.206L280.428 251.232Z" fill="#ABD6F4"/>
<path d="M443.403 87.5319C443.403 87.5319 444.39 87.1356 446.455 87.4896C448.519 87.8435 453.832 88.9308 454.297 99.2299L438.614 100.12C438.614 100.12 437.949 95.889 438.797 92.6454C439.644 89.4019 442.442 87.7039 443.403 87.5319Z" fill="#E59191"/>
<path d="M394.88 151.392C394.88 151.392 406.777 151.067 400.037 121.948C393.805 94.6099 395.078 87.1073 402.835 83.2926C402.835 83.2926 435.9 84.0555 446.455 87.4895C446.455 87.4895 439.206 87.9972 439.206 95.2459C439.206 102.495 442.64 122.711 443.53 131.994C444.42 141.278 443.53 149.669 437.299 153.229L394.88 151.392Z" fill="#F7C1C1"/>
<path d="M433.865 93.1179H433.839L403.133 91.1435C403.027 91.1312 402.93 91.0787 402.862 90.9968C402.793 90.9149 402.759 90.8099 402.766 90.7035C402.773 90.597 402.82 90.4973 402.899 90.4249C402.977 90.3525 403.08 90.3129 403.187 90.3143L433.892 92.2887C434.002 92.2922 434.106 92.3393 434.181 92.4196C434.257 92.4999 434.297 92.6067 434.293 92.7167C434.29 92.8267 434.243 92.9307 434.163 93.006C434.082 93.0812 433.975 93.1215 433.865 93.1179Z" fill="white"/>
<path d="M433.257 99.1931H433.232L402.421 97.2794C402.366 97.2761 402.313 97.2621 402.264 97.2382C402.215 97.2143 402.172 97.181 402.136 97.1402C402.099 97.0995 402.072 97.052 402.054 97.0005C402.036 96.949 402.029 96.8945 402.032 96.8401C402.036 96.7858 402.05 96.7326 402.073 96.6837C402.097 96.6347 402.131 96.591 402.171 96.5549C402.212 96.5188 402.26 96.4911 402.311 96.4734C402.363 96.4557 402.417 96.4483 402.472 96.4516L433.283 98.3653C433.393 98.3687 433.497 98.4156 433.572 98.4957C433.647 98.5759 433.688 98.6827 433.685 98.7926C433.681 98.9026 433.634 99.0067 433.554 99.0821C433.474 99.1575 433.367 99.1979 433.257 99.1946V99.1931Z" fill="white"/>
<path d="M433.566 105.269H433.541L402.622 103.42C402.517 103.407 402.42 103.355 402.352 103.274C402.284 103.192 402.249 103.088 402.255 102.982C402.262 102.876 402.308 102.776 402.386 102.703C402.463 102.631 402.566 102.59 402.672 102.591L433.59 104.439C433.696 104.448 433.796 104.497 433.867 104.576C433.938 104.656 433.976 104.76 433.973 104.866C433.97 104.973 433.926 105.074 433.85 105.149C433.775 105.225 433.673 105.268 433.566 105.27V105.269Z" fill="white"/>
<path d="M434.841 111.343H434.816L403.79 109.557C403.736 109.554 403.682 109.541 403.633 109.517C403.583 109.494 403.539 109.461 403.502 109.42C403.466 109.379 403.438 109.332 403.42 109.28C403.402 109.228 403.394 109.174 403.397 109.119C403.4 109.065 403.414 109.011 403.438 108.962C403.462 108.913 403.495 108.869 403.536 108.832C403.577 108.796 403.625 108.768 403.677 108.751C403.729 108.733 403.783 108.726 403.838 108.729L434.864 110.513C434.974 110.516 435.078 110.563 435.154 110.643C435.229 110.723 435.27 110.829 435.267 110.939C435.264 111.049 435.218 111.154 435.138 111.229C435.058 111.305 434.951 111.346 434.841 111.343Z" fill="white"/>
<path d="M435.981 117.418H435.957L404.825 115.697C404.715 115.691 404.612 115.642 404.539 115.56C404.465 115.478 404.427 115.37 404.433 115.26C404.439 115.15 404.489 115.047 404.571 114.974C404.653 114.9 404.76 114.862 404.87 114.868L436.003 116.589C436.058 116.59 436.111 116.602 436.161 116.625C436.211 116.647 436.256 116.679 436.293 116.718C436.331 116.758 436.36 116.804 436.379 116.855C436.399 116.906 436.408 116.96 436.407 117.015C436.405 117.069 436.393 117.123 436.371 117.172C436.349 117.222 436.317 117.267 436.277 117.305C436.238 117.342 436.191 117.371 436.14 117.391C436.089 117.41 436.035 117.419 435.981 117.418Z" fill="white"/>
<path d="M436.91 123.493H436.885L405.646 121.836C405.591 121.835 405.536 121.822 405.486 121.799C405.436 121.776 405.39 121.744 405.353 121.703C405.315 121.662 405.286 121.615 405.268 121.562C405.249 121.51 405.241 121.455 405.244 121.4C405.246 121.345 405.26 121.291 405.285 121.241C405.309 121.191 405.343 121.147 405.384 121.11C405.426 121.074 405.474 121.046 405.527 121.028C405.579 121.011 405.635 121.004 405.69 121.008L436.928 122.664C437.038 122.667 437.143 122.714 437.218 122.793C437.294 122.873 437.335 122.98 437.332 123.09C437.329 123.2 437.282 123.304 437.202 123.38C437.122 123.455 437.016 123.496 436.906 123.493H436.91Z" fill="white"/>
<path d="M438.02 129.569H437.999L406.653 127.977C406.543 127.971 406.44 127.922 406.366 127.84C406.292 127.758 406.254 127.651 406.259 127.541C406.265 127.431 406.314 127.328 406.396 127.254C406.478 127.18 406.585 127.142 406.695 127.147L438.041 128.74C438.096 128.741 438.149 128.753 438.199 128.775C438.249 128.797 438.294 128.829 438.331 128.868C438.369 128.908 438.398 128.954 438.418 129.005C438.437 129.056 438.447 129.11 438.445 129.165C438.444 129.219 438.432 129.273 438.41 129.323C438.387 129.372 438.356 129.417 438.316 129.455C438.277 129.492 438.23 129.522 438.18 129.541C438.129 129.561 438.074 129.57 438.02 129.569Z" fill="white"/>
<path d="M438.688 135.644H438.667L407.218 134.117C407.164 134.114 407.111 134.101 407.061 134.078C407.012 134.054 406.968 134.022 406.931 133.981C406.894 133.941 406.866 133.894 406.848 133.843C406.829 133.791 406.821 133.737 406.824 133.682C406.826 133.628 406.839 133.575 406.863 133.525C406.886 133.476 406.919 133.432 406.959 133.395C406.999 133.358 407.046 133.33 407.098 133.312C407.149 133.293 407.203 133.285 407.258 133.288L438.706 134.815C438.816 134.817 438.921 134.864 438.997 134.943C439.073 135.023 439.114 135.129 439.111 135.239C439.109 135.349 439.062 135.454 438.983 135.53C438.903 135.605 438.797 135.647 438.687 135.644H438.688Z" fill="white"/>
<path d="M439.009 141.719H438.989L407.43 140.256C407.32 140.25 407.217 140.202 407.143 140.12C407.069 140.039 407.03 139.931 407.035 139.821C407.04 139.711 407.089 139.608 407.171 139.534C407.252 139.46 407.36 139.421 407.469 139.426L439.028 140.885C439.138 140.887 439.243 140.933 439.319 141.013C439.394 141.093 439.436 141.199 439.433 141.309C439.43 141.419 439.384 141.523 439.305 141.599C439.225 141.675 439.118 141.716 439.009 141.714V141.719Z" fill="white"/>
<path d="M436.79 147.795H436.772L405.106 146.396C404.996 146.391 404.892 146.343 404.818 146.261C404.744 146.18 404.705 146.073 404.71 145.963C404.714 145.853 404.763 145.749 404.844 145.675C404.925 145.601 405.033 145.562 405.143 145.567L436.808 146.966C436.863 146.967 436.917 146.979 436.966 147.001C437.016 147.023 437.061 147.054 437.099 147.094C437.137 147.133 437.166 147.179 437.186 147.23C437.206 147.281 437.215 147.335 437.214 147.389C437.213 147.444 437.201 147.497 437.179 147.547C437.157 147.597 437.125 147.642 437.086 147.68C437.047 147.717 437 147.747 436.949 147.767C436.899 147.786 436.845 147.796 436.79 147.795Z" fill="white"/>
<path d="M387.767 110.802C387.618 110.801 387.477 110.74 387.372 110.635C387.268 110.529 387.21 110.387 387.21 110.238V101.767C387.217 101.624 387.279 101.49 387.382 101.391C387.486 101.293 387.623 101.238 387.766 101.238C387.909 101.238 388.046 101.293 388.15 101.391C388.253 101.49 388.315 101.624 388.322 101.767V110.245C388.322 110.319 388.308 110.391 388.28 110.458C388.252 110.526 388.212 110.587 388.16 110.639C388.108 110.691 388.047 110.732 387.98 110.76C387.912 110.788 387.84 110.802 387.767 110.802Z" fill="#AFD6EF"/>
<path d="M391.432 106.562H384.123C383.975 106.562 383.834 106.503 383.73 106.399C383.626 106.295 383.567 106.154 383.567 106.006C383.567 105.859 383.626 105.717 383.73 105.613C383.834 105.509 383.975 105.451 384.123 105.451H391.432C391.579 105.451 391.721 105.509 391.825 105.613C391.929 105.717 391.988 105.859 391.988 106.006C391.988 106.154 391.929 106.295 391.825 106.399C391.721 106.503 391.579 106.562 391.432 106.562Z" fill="#AFD6EF"/>
<path d="M456.459 122.152C456.384 122.152 456.312 122.123 456.26 122.07C456.207 122.017 456.177 121.945 456.177 121.87V117.503C456.177 117.427 456.207 117.354 456.261 117.3C456.314 117.247 456.387 117.216 456.463 117.216C456.539 117.216 456.612 117.247 456.666 117.3C456.719 117.354 456.749 117.427 456.749 117.503V121.866C456.75 121.904 456.743 121.942 456.728 121.977C456.714 122.012 456.693 122.044 456.665 122.071C456.638 122.098 456.606 122.119 456.57 122.133C456.535 122.147 456.497 122.153 456.459 122.152Z" fill="#AFD6EF"/>
<path d="M458.346 119.971H454.583C454.507 119.971 454.435 119.94 454.381 119.887C454.327 119.833 454.297 119.76 454.297 119.684C454.297 119.608 454.327 119.536 454.381 119.482C454.435 119.428 454.507 119.398 454.583 119.398H458.346C458.422 119.398 458.495 119.428 458.548 119.482C458.602 119.536 458.632 119.608 458.632 119.684C458.632 119.76 458.602 119.833 458.548 119.887C458.495 119.94 458.422 119.971 458.346 119.971Z" fill="#AFD6EF"/>
<path d="M394.875 121.866C394.8 121.866 394.728 121.836 394.675 121.783C394.622 121.73 394.592 121.659 394.592 121.584V117.216C394.592 117.14 394.623 117.068 394.676 117.014C394.73 116.96 394.803 116.93 394.879 116.93C394.955 116.93 395.027 116.96 395.081 117.014C395.135 117.068 395.165 117.14 395.165 117.216V121.58C395.166 121.618 395.158 121.656 395.144 121.691C395.13 121.726 395.108 121.758 395.081 121.785C395.054 121.812 395.022 121.833 394.986 121.847C394.951 121.86 394.913 121.867 394.875 121.866Z" fill="#D5E7F5"/>
<path d="M396.761 119.684H392.999C392.923 119.684 392.85 119.654 392.796 119.6C392.743 119.547 392.713 119.474 392.713 119.398C392.713 119.322 392.743 119.249 392.796 119.196C392.85 119.142 392.923 119.112 392.999 119.112H396.761C396.837 119.112 396.91 119.142 396.964 119.196C397.018 119.249 397.048 119.322 397.048 119.398C397.048 119.474 397.018 119.547 396.964 119.6C396.91 119.654 396.837 119.684 396.761 119.684Z" fill="#AFD6EF"/>
<path d="M390.91 131.815C390.855 131.815 390.801 131.804 390.75 131.783C390.699 131.762 390.653 131.73 390.614 131.691C390.575 131.652 390.545 131.605 390.525 131.554C390.504 131.502 390.495 131.447 390.496 131.392V125.073C390.496 124.963 390.539 124.857 390.617 124.78C390.695 124.702 390.8 124.658 390.91 124.658C391.02 124.658 391.126 124.702 391.204 124.78C391.281 124.857 391.325 124.963 391.325 125.073V131.399C391.325 131.454 391.315 131.508 391.294 131.558C391.273 131.609 391.243 131.655 391.204 131.693C391.166 131.732 391.12 131.763 391.069 131.784C391.019 131.805 390.965 131.815 390.91 131.815Z" fill="#AFD6EF"/>
<path d="M393.648 128.651H388.193C388.083 128.651 387.977 128.607 387.9 128.529C387.822 128.451 387.778 128.346 387.778 128.236C387.778 128.126 387.822 128.021 387.9 127.943C387.977 127.865 388.083 127.821 388.193 127.821H393.648C393.758 127.821 393.863 127.865 393.941 127.943C394.019 128.021 394.062 128.126 394.062 128.236C394.062 128.346 394.019 128.451 393.941 128.529C393.863 128.607 393.758 128.651 393.648 128.651Z" fill="#AFD6EF"/>
<path d="M449.133 133.165C449.09 133.165 449.048 133.157 449.009 133.14C448.97 133.124 448.934 133.1 448.904 133.07C448.874 133.04 448.85 133.004 448.834 132.965C448.818 132.925 448.81 132.883 448.81 132.841V127.91C448.81 127.825 448.844 127.743 448.904 127.682C448.965 127.621 449.047 127.587 449.133 127.587C449.218 127.587 449.301 127.621 449.361 127.682C449.422 127.743 449.456 127.825 449.456 127.91V132.846C449.454 132.931 449.42 133.012 449.359 133.071C449.299 133.131 449.218 133.165 449.133 133.165Z" fill="#AFD6EF"/>
<path d="M451.269 130.7H447.02C446.934 130.7 446.852 130.666 446.792 130.605C446.731 130.545 446.697 130.462 446.697 130.377C446.697 130.291 446.731 130.209 446.792 130.148C446.852 130.088 446.934 130.054 447.02 130.054H451.269C451.355 130.054 451.437 130.088 451.498 130.148C451.558 130.209 451.592 130.291 451.592 130.377C451.592 130.462 451.558 130.545 451.498 130.605C451.437 130.666 451.355 130.7 451.269 130.7Z" fill="#AFD6EF"/>
<path d="M448.649 112.467C448.519 112.467 448.394 112.415 448.302 112.323C448.21 112.231 448.158 112.106 448.158 111.976V104.5C448.155 104.433 448.165 104.367 448.188 104.304C448.211 104.242 448.246 104.184 448.292 104.136C448.338 104.088 448.393 104.049 448.454 104.023C448.516 103.996 448.582 103.983 448.648 103.983C448.715 103.983 448.781 103.996 448.842 104.023C448.903 104.049 448.959 104.088 449.005 104.136C449.05 104.184 449.086 104.242 449.109 104.304C449.132 104.367 449.142 104.433 449.138 104.5V111.974C449.139 112.039 449.126 112.103 449.102 112.162C449.077 112.222 449.042 112.276 448.996 112.322C448.951 112.368 448.896 112.404 448.837 112.429C448.777 112.454 448.713 112.467 448.649 112.467Z" fill="#AFD6EF"/>
<path d="M451.881 108.731H445.435C445.304 108.731 445.179 108.679 445.086 108.586C444.993 108.494 444.941 108.368 444.941 108.237C444.941 108.106 444.993 107.981 445.086 107.888C445.179 107.796 445.304 107.744 445.435 107.744H451.881C452.012 107.744 452.138 107.796 452.23 107.888C452.323 107.981 452.375 108.106 452.375 108.237C452.375 108.368 452.323 108.494 452.23 108.586C452.138 108.679 452.012 108.731 451.881 108.731Z" fill="#AFD6EF"/>
<path d="M89.4735 127.056V190.634H144.05V127.056H89.4735ZM140.315 186.818H93.205V130.872H140.308L140.315 186.818Z" fill="#5C87C6"/>
<path d="M124.85 215.487C124.85 215.487 109.866 216.559 110.97 239.474C110.97 239.474 102.475 243.835 104.554 252.853C106.632 261.872 107.374 259.871 107.374 259.871C107.374 259.871 100.464 270.294 104.703 282.161C108.942 294.029 118.383 317.308 118.383 317.308C118.383 317.308 130.078 287.393 130.729 280.874C131.575 272.483 132.924 265.798 127.854 260.579C133.417 257.31 133.983 250.222 129.916 244.822C125.848 239.422 125.826 239.866 127.951 234.95C132.561 224.301 124.85 215.487 124.85 215.487Z" fill="#F7C1C1"/>
<path d="M113.888 318.837C113.888 318.837 115.886 282.531 111.745 266.292C107.603 250.053 92.4085 237.555 84.7649 238.898C84.7649 238.898 82.029 246.066 88.3949 249.937C94.7608 253.808 90.0674 255.719 89.6542 257.347C89.241 258.974 91.324 266.034 94.8919 268.014C98.4599 269.994 101.777 270.31 100.11 278.812C98.4429 287.315 102.397 286.992 105.119 291.442C107.841 295.893 114.463 310.076 113.888 318.837Z" fill="#F5838D"/>
<path d="M118.332 316.308C118.177 316.328 118.02 316.286 117.896 316.192C117.771 316.097 117.69 315.956 117.669 315.802C113.369 284.168 119.014 230.812 119.079 230.278C119.099 230.125 119.178 229.986 119.3 229.891C119.421 229.795 119.574 229.751 119.728 229.768C119.881 229.784 120.022 229.86 120.12 229.978C120.218 230.097 120.266 230.25 120.254 230.403C120.196 230.938 114.566 284.151 118.844 315.644C118.854 315.72 118.849 315.798 118.83 315.873C118.81 315.948 118.776 316.019 118.729 316.08C118.682 316.142 118.623 316.194 118.556 316.233C118.49 316.272 118.416 316.297 118.339 316.308H118.332Z" fill="white"/>
<path d="M103.322 312.318H125.772C125.772 312.318 128.323 343.758 115.184 344.849C102.045 345.939 103.322 322.244 103.322 312.318Z" fill="#A0C4F9"/>
<path d="M252.759 228.505C252.759 228.505 254.744 227.212 257.139 229.48C259.534 231.747 264.12 244.443 267.51 247.267C270.9 250.092 272.202 250.828 272.202 250.828C272.202 250.828 269.676 259.579 264.627 260.209C264.176 260.266 258.24 256.197 256.771 252.016L252.759 228.505Z" fill="#D2EDFF"/>
<path d="M217.601 359.474C217.601 359.474 208.446 359.897 207.767 362.102C207.089 364.306 204.206 380.666 208.613 383.718C213.02 386.77 217.346 390.585 217.6 385.329C217.853 380.073 216.243 369.477 222.857 364.984L217.601 359.474Z" fill="#F8B3A3"/>
<path d="M209.788 382.368C209.788 382.368 211.407 364.063 218.284 364.422C225.16 364.78 211.576 355.693 211.576 355.693L203.975 372.012L204.274 382.219L208.969 385.647L209.788 382.368Z" fill="#E26A6A"/>
<path d="M209.279 356.255C209.279 356.255 200.124 356.678 199.445 358.883C198.767 361.089 195.884 377.448 200.291 380.5C204.698 383.552 209.024 387.366 209.278 382.11C209.531 376.854 207.922 366.258 214.535 361.765L209.279 356.255Z" fill="#F8B3A3"/>
<path d="M229.67 270.212L228.401 271.424C228.401 271.424 223.738 277.926 221.533 284.878C219.327 291.829 220.178 303.104 228.232 310.393C236.286 317.683 238.999 320.651 238.999 320.651C238.999 320.651 231.563 328.308 221.679 341.195C211.796 354.082 208.453 356.002 208.453 356.002C208.453 356.002 208.312 362.7 215.264 363.123C215.264 363.123 216.533 367.531 221.029 367.531C221.029 367.531 232.898 359.986 244.428 350.153C255.959 340.319 269.693 335.063 271.646 323.535C273.6 312.008 262.233 297.934 259.394 292.933C256.555 287.932 253.753 272.758 253.753 272.758L229.67 270.212Z" fill="#26217D"/>
<path d="M223.48 275.488C223.48 275.488 238.911 290.276 246.287 292.411C253.663 294.546 266.465 295.562 266.465 295.562L265.871 287.169L249.423 287.424L227.635 271.333L223.48 275.488Z" fill="#161668"/>
<path d="M244.761 287.887C244.761 287.887 249.424 298.103 254.426 305.054C259.428 312.005 263.158 316.668 258.411 324.375C253.664 332.082 214.537 363.624 214.537 363.624L214.974 363.976C215.081 363.719 215.254 363.494 215.474 363.323C215.695 363.152 215.956 363.042 216.232 363.002C217.178 362.875 222.067 358.255 227.325 354.976C232.582 351.697 236.222 349.326 243.036 343.109C250.313 336.468 254.059 333.359 256.998 329.672C259.937 325.984 267.284 321.746 263.102 314.173C258.919 306.6 246.428 290.53 244.761 287.887Z" fill="#161668"/>
<path d="M241.752 223.547L240.776 223.702C240.776 223.702 230.574 223.993 226.419 226.621C222.265 229.25 226.532 253.258 228.313 260.467C230.094 267.677 228.398 271.427 228.398 271.427C228.398 271.427 240.526 279.964 253.747 272.759C253.747 272.759 253.154 261.315 254.51 258.432C255.867 255.55 261.547 251.945 258.496 244.488C255.444 237.03 257.668 232.281 256.174 229.398C254.681 226.516 248.841 225.118 248.841 225.118L241.752 223.547Z" fill="white"/>
<path d="M239.419 277.898C239.532 277.729 250.102 274.339 249.141 267.331C248.181 260.323 232.472 256.763 242.021 254.953C251.57 253.144 259.484 243.764 258.239 235.118L261.292 249.868L259.652 258.015L259.088 273.839L248.178 280.442L239.419 277.898Z" fill="#EEF9FF"/>
<path d="M265.46 206.543C265.46 206.543 263.748 221.795 258.874 223.926C254 226.057 250.674 220.893 250.674 220.893L248.969 226.005C248.969 226.005 243.952 228.201 241.2 224.3L243.949 216.807C243.949 216.807 243.736 208.052 247.541 205.36C251.346 202.668 260.126 201.084 263.047 203.549C265.967 206.014 265.46 206.543 265.46 206.543Z" fill="#F8B3A3"/>
<path d="M246.71 208.838C246.796 208.838 248.12 207.736 250.921 208.838C253.722 209.939 254.708 206.549 257.902 207.71C261.096 208.87 265.73 209.998 265.73 209.998L268.019 203.019L253.719 202.51L246.965 207.653L246.71 208.838Z" fill="#E26A6A"/>
<path d="M242.472 217.81C242.472 217.81 249.579 219.251 251.374 217.514C253.169 215.776 252.805 215.286 252.805 215.286L244.576 215.662L242.443 216.341L242.472 217.81Z" fill="#E26A6A"/>
<path d="M255.31 203.819C255.31 203.819 260.337 208.724 266.117 207.062C271.896 205.401 274.719 198.695 273.243 195.436C271.766 192.177 266.686 193.16 266.686 193.16C266.686 193.16 263.453 183.57 247.442 186.498C231.431 189.426 233.435 208.058 238.524 213.053C243.612 218.048 251.131 218.308 252.846 215.205C252.846 215.205 248.453 216.177 247.453 212.822C246.453 209.467 248.765 206.535 250.774 207.411C252.784 208.286 255.31 203.819 255.31 203.819Z" fill="#E52E66"/>
<path d="M234.069 210.364C234.069 210.364 240.649 213.925 243.32 209.601C245.991 205.277 248.7 200.445 254.426 201.592C260.151 202.738 275.579 202.523 273.332 193.325L275.578 202.523C275.578 202.523 271.679 210.702 271.127 210.957C270.576 211.213 258.576 211.89 258.576 211.89L254.235 221.3L243.022 219.326L237.593 215.668L234.069 210.364Z" fill="#BF1F54"/>
<path d="M227.804 261.735C227.804 261.735 227.663 263.687 228.368 264.392C229.073 265.097 243.431 282.985 247.387 283.833C251.343 284.68 261.405 282.929 262.253 289.145C263.1 295.361 245.753 289.201 244.222 288.467C242.692 287.732 218.732 270.556 217.77 266.144C216.808 261.731 217.77 259.08 217.77 259.08L227.804 261.735Z" fill="#F8B3A3"/>
<path d="M222.244 262.383C222.414 262.47 224.063 264.45 226.596 265.353C229.128 266.255 242.585 280.282 242.585 280.282L226.992 260.493L222.244 262.383Z" fill="#E26A6A"/>
<path d="M225.515 227.446C223.844 229.562 219.835 242.154 216.783 259.786C216.783 259.786 220.132 265.465 228.229 262.414C228.229 262.414 230.221 253.767 231.832 247.239C233.442 240.711 235.18 235.16 233.146 230.243C231.113 225.325 227.931 224.394 225.515 227.446Z" fill="white"/>
<path d="M232.354 226.979C232.354 227.149 233.2 230.484 231.79 236.757C230.379 243.029 221.835 262.168 221.302 262.997C220.768 263.827 229.924 264.109 229.924 264.109L233.09 254.615L236.649 239.921L234.729 230.822L232.354 226.979Z" fill="#D2EDFF"/>
<g opacity="0.44">
<path opacity="0.44" d="M238.346 207.983C238.303 207.983 238.262 207.971 238.226 207.948C238.191 207.924 238.163 207.891 238.146 207.852C237.429 206.045 237.017 204.133 236.926 202.191C236.775 199.23 237.368 194.957 241.049 191.499C241.07 191.479 241.095 191.464 241.122 191.453C241.149 191.443 241.177 191.438 241.206 191.439C241.235 191.44 241.263 191.447 241.289 191.458C241.316 191.47 241.339 191.487 241.359 191.508C241.379 191.529 241.394 191.553 241.404 191.58C241.414 191.607 241.419 191.636 241.418 191.665C241.418 191.693 241.411 191.722 241.399 191.748C241.388 191.774 241.371 191.798 241.35 191.817C237.794 195.157 237.219 199.282 237.363 202.155C237.457 204.047 237.856 205.912 238.546 207.677C238.568 207.73 238.568 207.788 238.547 207.841C238.526 207.894 238.485 207.936 238.433 207.959C238.406 207.973 238.376 207.982 238.346 207.983Z" fill="white"/>
</g>
<g opacity="0.44">
<path opacity="0.44" d="M242.67 190.492C242.639 190.492 242.609 190.486 242.582 190.474C242.554 190.462 242.529 190.444 242.509 190.421C242.47 190.379 242.449 190.322 242.451 190.265C242.453 190.207 242.478 190.152 242.52 190.112C242.647 189.997 245.683 187.255 252.733 187.371C252.791 187.371 252.847 187.394 252.888 187.435C252.929 187.476 252.952 187.532 252.952 187.59C252.952 187.647 252.929 187.703 252.888 187.744C252.847 187.785 252.791 187.808 252.733 187.808C245.878 187.698 242.854 190.407 242.825 190.434C242.804 190.453 242.78 190.468 242.753 190.478C242.726 190.488 242.698 190.493 242.67 190.492Z" fill="white"/>
</g>
<g opacity="0.44">
<path opacity="0.44" d="M326.665 129.584C326.613 129.584 326.563 129.566 326.524 129.533C326.479 129.496 326.452 129.442 326.447 129.384C326.443 129.326 326.461 129.269 326.498 129.225C326.586 129.122 328.684 126.686 332.775 126.9C332.833 126.904 332.887 126.93 332.926 126.973C332.965 127.016 332.985 127.072 332.983 127.13C332.981 127.159 332.974 127.187 332.962 127.213C332.95 127.239 332.933 127.263 332.911 127.282C332.89 127.301 332.865 127.316 332.838 127.326C332.81 127.335 332.782 127.339 332.753 127.338C328.883 127.134 326.852 129.483 326.83 129.507C326.809 129.531 326.784 129.55 326.756 129.564C326.727 129.577 326.696 129.584 326.665 129.584Z" fill="white"/>
</g>
<path d="M353.397 124.999C352.346 124.999 351.319 124.687 350.445 124.103C349.571 123.519 348.89 122.689 348.488 121.717C348.086 120.746 347.981 119.677 348.186 118.646C348.391 117.615 348.898 116.668 349.641 115.925C350.384 115.182 351.331 114.676 352.362 114.471C353.393 114.266 354.462 114.371 355.433 114.774C356.404 115.176 357.234 115.857 357.818 116.731C358.402 117.605 358.714 118.633 358.714 119.684C358.712 121.094 358.152 122.445 357.155 123.442C356.158 124.438 354.807 124.998 353.397 124.999ZM353.397 115.099C352.49 115.099 351.604 115.368 350.849 115.872C350.095 116.376 349.507 117.093 349.16 117.931C348.813 118.769 348.722 119.691 348.9 120.581C349.077 121.471 349.514 122.288 350.155 122.929C350.797 123.57 351.614 124.007 352.504 124.184C353.393 124.361 354.315 124.27 355.153 123.922C355.991 123.575 356.707 122.987 357.211 122.233C357.715 121.478 357.984 120.591 357.983 119.684C357.982 118.468 357.498 117.303 356.639 116.443C355.779 115.584 354.613 115.101 353.397 115.099Z" fill="#FF5876"/>
<path d="M320.877 114.734L316.466 117.875L321.82 120.725L320.877 114.734Z" fill="white"/>
<path d="M335.239 117.723C335.158 117.722 335.079 117.695 335.015 117.645L329.491 113.349C329.442 113.311 329.403 113.261 329.379 113.204C329.354 113.146 329.345 113.084 329.352 113.022C329.358 112.96 329.381 112.901 329.417 112.85C329.453 112.799 329.501 112.759 329.557 112.732L336.627 109.347C336.688 109.318 336.756 109.307 336.823 109.314C336.89 109.321 336.954 109.347 337.007 109.389C337.061 109.43 337.101 109.486 337.125 109.549C337.149 109.613 337.154 109.681 337.141 109.748L335.597 117.433C335.585 117.494 335.557 117.551 335.516 117.598C335.476 117.645 335.424 117.681 335.366 117.703C335.325 117.717 335.282 117.724 335.239 117.723ZM330.41 113.135L335.005 116.707L336.289 110.317L330.41 113.135Z" fill="#4F4085"/>
<path d="M353.331 142.743C353.267 142.743 353.204 142.727 353.149 142.695C353.093 142.663 353.047 142.617 353.015 142.561L350.783 138.694C350.758 138.652 350.742 138.606 350.736 138.557C350.729 138.509 350.733 138.459 350.746 138.412C350.771 138.319 350.832 138.24 350.915 138.191L354.784 135.959C354.826 135.934 354.873 135.918 354.921 135.912C354.97 135.906 355.019 135.909 355.066 135.922C355.112 135.934 355.156 135.956 355.194 135.985C355.232 136.014 355.263 136.051 355.287 136.093L357.521 139.959C357.546 140.002 357.561 140.048 357.567 140.097C357.573 140.145 357.57 140.195 357.556 140.241C357.544 140.288 357.523 140.331 357.494 140.369C357.465 140.407 357.429 140.439 357.387 140.463L353.519 142.697C353.462 142.729 353.397 142.745 353.331 142.743ZM351.597 138.645L353.465 141.88L356.7 140.013L354.832 136.778L351.597 138.645Z" fill="#4F4085"/>
</svg>
