<svg width="19" height="31" viewBox="0 0 19 31" fill="none" xmlns="http://www.w3.org/2000/svg">
<path d="M11.9379 15.1101L1.80609 25.2584C1.52349 25.5217 1.29766 25.8387 1.14217 26.1904C0.986682 26.5421 0.904739 26.9213 0.901266 27.305C0.897793 27.6888 0.972863 28.0693 1.12196 28.4236C1.27107 28.778 1.49112 29.0989 1.76891 29.367C2.0467 29.6352 2.37649 29.8451 2.73846 29.9841C3.10043 30.1231 3.48711 30.1883 3.87527 30.1759C4.26344 30.1635 4.64506 30.0737 4.99723 29.9118C5.3494 29.75 5.66483 29.5195 5.92459 29.2341L18.0484 17.0905C18.3167 16.824 18.5289 16.5076 18.6729 16.1597C18.8168 15.8117 18.8896 15.439 18.8871 15.0632C18.8845 14.6873 18.8067 14.3156 18.6581 13.9696C18.5095 13.6237 18.293 13.3102 18.0211 13.0473L5.72188 0.914798C5.17952 0.382275 4.44527 0.0845073 3.68065 0.0869987C2.91604 0.0894901 2.18369 0.392039 1.64472 0.928086C1.10575 1.46413 0.804313 2.18977 0.806711 2.94536C0.809111 3.70096 1.11515 4.42461 1.65751 4.95713L11.9379 15.1101Z" fill="black"/>
</svg>
