<svg width="129" height="116" viewBox="0 0 129 116" fill="none" xmlns="http://www.w3.org/2000/svg">
<g clip-path="url(#clip0)">
<path d="M64.5013 76.6429C61.6206 76.6429 58.8046 77.4934 56.4094 79.0867C54.0142 80.6801 52.1473 82.9448 51.0449 85.5945C49.9425 88.2441 49.6541 91.1597 50.2161 93.9726C50.7781 96.7854 52.1653 99.3692 54.2023 101.397C56.2392 103.425 58.8345 104.806 61.6598 105.366C64.4852 105.925 67.4137 105.638 70.0752 104.54C72.7366 103.443 75.0113 101.584 76.6117 99.1997C78.2122 96.8151 79.0664 94.0116 79.0664 91.1436C79.0621 87.2991 77.5262 83.6133 74.7956 80.8949C72.0651 78.1764 68.3629 76.6472 64.5013 76.6429Z" fill="#FFB434"/>
<path d="M126.917 45.5732H67.0718C66.1171 45.573 65.1803 45.3149 64.3614 44.8263C63.5424 44.3377 62.8721 43.6369 62.4218 42.7987C61.9715 41.9606 61.7582 41.0165 61.8045 40.0671C61.8509 39.1177 62.1553 38.1986 62.6851 37.4079L62.9084 37.1368L85.5089 13.5736C86.4803 12.5616 87.6469 11.7553 88.9387 11.2028C90.2305 10.6504 91.6211 10.3632 93.027 10.3584H126.92L126.917 45.5732Z" fill="#007AFF"/>
<path d="M64.5014 80.7852C62.4436 80.7852 60.432 81.3927 58.721 82.5309C57.01 83.6691 55.6764 85.2869 54.889 87.1796C54.1015 89.0724 53.8954 91.1551 54.2969 93.1644C54.6983 95.1738 55.6892 97.0195 57.1443 98.4681C58.5994 99.9168 60.4533 100.903 62.4716 101.303C64.4898 101.703 66.5818 101.498 68.483 100.714C70.3841 99.9295 72.0091 98.6019 73.1523 96.8985C74.2956 95.195 74.9058 93.1924 74.9058 91.1437C74.9029 88.3973 73.8058 85.7642 71.8552 83.8223C69.9046 81.8803 67.2599 80.7881 64.5014 80.7852ZM64.5014 97.3571C63.267 97.3571 62.0604 96.9926 61.0341 96.3098C60.0077 95.6271 59.2078 94.6568 58.7354 93.5214C58.263 92.3861 58.1395 91.1367 58.3803 89.9314C58.6211 88.7261 59.2155 87.6191 60.0883 86.7501C60.9611 85.8811 62.0732 85.2893 63.2838 85.0496C64.4945 84.8098 65.7493 84.9329 66.8897 85.4032C68.0301 85.8734 69.0048 86.6699 69.6906 87.6916C70.3764 88.7134 70.7424 89.9148 70.7424 91.1437C70.7367 92.7898 70.0773 94.3669 68.9081 95.5309C67.7389 96.6949 66.1548 97.3513 64.5014 97.3571Z" fill="black"/>
<path d="M92.0985 2.62485e-05C87.198 -0.0102867 82.4906 1.90155 78.9957 5.32155L54.5435 29.1586L18.0559 36.2883C14.9749 37.1066 12.2991 39.0149 10.5297 41.6559C10.1573 42.2203 9.82868 42.8121 9.54668 43.4262C8.61363 43.6173 7.77554 44.1235 7.17418 44.859C6.57282 45.5946 6.2451 46.5143 6.24646 47.4627V51.7785C6.24856 52.5025 6.44188 53.2133 6.80702 53.8395C7.17216 54.4656 7.69628 54.9852 8.3268 55.346V65.7912L4.16068 74.0839V80.7852C3.05764 80.7867 2.00019 81.2236 1.22023 82.0001C0.440259 82.7766 0.00144094 83.8294 0 84.9275L0 93.2121C0.00144094 94.3102 0.440259 95.363 1.22023 96.1395C2.00019 96.916 3.05764 97.3529 4.16068 97.3544H35.3712V91.1436C35.3721 87.2172 36.1738 83.3319 37.7275 79.723C39.2812 76.1141 41.5547 72.8568 44.4102 70.1486C47.2657 67.4403 50.6438 65.3373 54.3397 63.9672C58.0357 62.597 61.9726 61.9882 65.9118 62.1775C73.5021 62.6441 80.6193 66.0068 85.7821 71.5658C90.9448 77.1249 93.7554 84.4519 93.6288 92.022V97.3571H129V2.62485e-05H92.0985ZM18.9872 40.3222L48.2045 34.6292L40.169 41.477L14.7203 43.0493C15.8424 41.7425 17.3265 40.7939 18.9872 40.3222ZM10.4044 51.7785L10.3472 47.4681L38.1786 45.7494C37.4382 47.5314 36.1841 49.0551 34.5747 50.1281C32.9653 51.2012 31.0726 51.7754 29.1356 51.7785H10.4044ZM31.2105 91.1355V93.2067H4.16068V84.9275H31.7851C31.4016 86.9775 31.2092 89.0584 31.2105 91.1436V91.1355ZM8.32135 80.7852V76.643H22.8864V72.5007H9.60931L11.6896 68.3584H40.4059C39.1722 69.6474 38.044 71.0325 37.0322 72.5007H27.0471V76.643H34.5652C33.9002 77.9833 33.328 79.3673 32.8525 80.7852H8.32135ZM66.1052 58.038C58.6144 57.6675 51.22 59.8464 45.1384 64.2161H12.463V55.9289H29.1356C32.2449 55.9282 35.2648 54.893 37.7153 52.9877C40.1658 51.0824 41.9064 48.4164 42.6605 45.4133L42.8539 44.6434L56.4986 33L56.5721 32.9837L81.9147 8.27916C84.6321 5.61719 88.2944 4.1297 92.1067 4.13959H124.837V80.7852H95.9052C93.8174 74.4465 89.8554 68.8833 84.538 64.8243C79.2206 60.7654 72.7958 58.4 66.1052 58.038ZM97.7895 93.2148V92.022C97.7852 89.6393 97.5379 87.2632 97.0516 84.9302H124.826V93.2148H97.7895Z" fill="black"/>
<path d="M64.4987 66.2845C59.5607 66.2845 54.7336 67.7423 50.6279 70.4736C46.5221 73.2048 43.3221 77.0869 41.4324 81.6288C39.5427 86.1707 39.0483 91.1685 40.0116 95.9902C40.975 100.812 43.3528 105.241 46.8445 108.717C50.3361 112.193 54.7848 114.561 59.6279 115.52C64.471 116.479 69.491 115.987 74.053 114.105C78.6151 112.224 82.5144 109.038 85.2578 104.95C88.0011 100.863 89.4654 96.057 89.4654 91.1409C89.4582 84.5508 86.8255 78.2327 82.1449 73.5728C77.4643 68.9128 71.1181 66.2917 64.4987 66.2845ZM76.6376 107.93L74.6253 104.457L71.0201 106.528L73.0378 110.009C70.9943 110.935 68.8127 111.523 66.579 111.749V107.713H62.4183V111.749C60.1845 111.523 58.0029 110.935 55.9595 110.009L57.9772 106.528L54.372 104.457L52.357 107.93C50.5395 106.624 48.9444 105.036 47.6327 103.226L51.1208 101.223L49.0405 97.6335L45.5442 99.6423C44.6139 97.6078 44.0235 95.4359 43.796 93.2121H47.8505V89.0698H43.796C44.0232 86.8459 44.6136 84.6738 45.5442 82.6394L49.0405 84.6482L51.1208 81.059L47.6327 79.0529C48.9444 77.2434 50.5395 75.6554 52.357 74.3495L54.372 77.8222L57.9772 75.7511L55.9595 72.2703C58.003 71.3441 60.1846 70.7562 62.4183 70.5298V74.5664H66.579V70.5298C68.8128 70.756 70.9944 71.3439 73.0378 72.2703L71.0201 75.7511L74.6253 77.8222L76.6376 74.3495C78.4551 75.6555 80.0502 77.2434 81.3619 79.0529L77.8738 81.059L79.9542 84.6482L83.4504 82.6394C84.3807 84.6739 84.9712 86.8459 85.1986 89.0698H81.1441V93.2121H85.1986C84.9715 95.436 84.381 97.608 83.4504 99.6423L79.9542 97.6335L77.8738 101.223L81.3619 103.226C80.0501 105.036 78.4551 106.624 76.6376 107.93Z" fill="black"/>
<path d="M62.4183 89.0725H66.579V93.2148H62.4183V89.0725Z" fill="black"/>
<path d="M99.8698 66.2873H112.355C114.01 66.2873 115.598 65.6325 116.769 64.467C117.939 63.3015 118.597 61.7207 118.597 60.0725C118.597 58.4242 117.939 56.8435 116.769 55.678C115.598 54.5125 114.01 53.8577 112.355 53.8577H99.8698C98.2142 53.8577 96.6265 54.5125 95.4558 55.678C94.2852 56.8435 93.6275 58.4242 93.6275 60.0725C93.6275 61.7207 94.2852 63.3015 95.4558 64.467C96.6265 65.6325 98.2142 66.2873 99.8698 66.2873ZM99.8698 58.0027H112.355C112.906 58.0027 113.436 58.2209 113.826 58.6094C114.216 58.9978 114.435 59.5246 114.435 60.0739C114.435 60.6232 114.216 61.15 113.826 61.5384C113.436 61.9268 112.906 62.145 112.355 62.145H99.8698C99.3181 62.145 98.789 61.9268 98.3988 61.5384C98.0087 61.15 97.7895 60.6232 97.7895 60.0739C97.7895 59.5246 98.0087 58.9978 98.3988 58.6094C98.789 58.2209 99.3181 58.0027 99.8698 58.0027Z" fill="black"/>
</g>
<defs>
<clipPath id="clip0">
<rect width="129" height="116" fill="white"/>
</clipPath>
</defs>
</svg>
