<svg width="15" height="15" viewBox="0 0 15 15" fill="none" xmlns="http://www.w3.org/2000/svg">
<path d="M7.04218 1.2866C7.21721 0.887927 7.78279 0.88793 7.95782 1.2866L9.31364 4.37481C9.53643 4.88227 10.0209 5.22554 10.5735 5.26751L13.9917 5.52712C14.4426 5.56137 14.62 6.12898 14.2689 6.41393L11.7461 8.46127C11.2929 8.82904 11.0942 9.42628 11.2367 9.99226L12.0212 13.1082C12.1292 13.5369 11.6686 13.8845 11.2859 13.6631L8.25126 11.907C7.78652 11.6381 7.21348 11.6381 6.74874 11.907L3.71406 13.6631C3.33145 13.8845 2.87084 13.5369 2.97877 13.1082L3.76333 9.99225C3.90584 9.42628 3.70712 8.82904 3.25393 8.46128L0.731087 6.41393C0.379957 6.12898 0.557386 5.56137 1.00829 5.52712L4.4265 5.26751C4.97912 5.22554 5.46357 4.88227 5.68636 4.37481L7.04218 1.2866Z" stroke="#F1C644"/>
</svg>
