<svg width="1280" height="1949" viewBox="0 0 1280 1949" fill="none" xmlns="http://www.w3.org/2000/svg">
<g opacity="0.54">
<path opacity="0.54" d="M1986.29 542.801C2034.88 599.286 2005.13 686.548 1942.49 730.931C1879.85 775.347 1795.48 786.631 1715.22 790.654C1634.96 794.71 1552.45 793.467 1477.23 818.423C1321.58 870.1 1238.91 1016.95 1175.34 1152.49C1111.77 1288.03 1040.97 1436.62 892.737 1503.18C776.505 1555.34 638.207 1544.52 510.33 1567.08C287.102 1606.46 93.8401 1757.9 23.3001 1948.81" stroke="url(#paint0_linear)" stroke-width="0.8669" stroke-miterlimit="10"/>
<path opacity="0.54" d="M1977.43 525.335C2026.01 581.722 1996.94 668.788 1934.96 713.662C1929.44 717.685 1923.69 721.414 1917.83 724.946C1857.97 760.662 1781.9 771.095 1709.1 775.478C1695.05 776.329 1680.92 777.016 1666.79 777.702C1600.44 780.908 1533.64 784.244 1471.85 805.078C1451.83 811.816 1432.99 820.156 1415.26 829.837C1295.62 895.088 1226.34 1021.66 1172.08 1139.93C1168.15 1148.53 1164.18 1157.17 1160.17 1165.84C1100.87 1294.15 1031.67 1427.13 897.336 1493.13C858.913 1512.01 818.08 1524.96 774.503 1533C723.063 1542.52 668.952 1545.17 615.881 1548.28C579.646 1550.4 543.709 1552.79 508.365 1557.73C491.749 1560.05 475.246 1563 458.89 1566.59C354.749 1589.46 257.321 1638.97 179.215 1705.47C100.924 1772.12 41.6212 1855.49 8.83605 1947.01" stroke="url(#paint1_linear)" stroke-width="0.8669" stroke-miterlimit="10"/>
<path opacity="0.54" d="M1968.56 507.87C2017.19 564.192 1988.78 651.028 1927.47 696.393C1921.98 700.449 1916.31 704.243 1910.49 707.808C1851.18 743.981 1775.53 755.167 1702.95 760.302C1688.93 761.284 1674.87 762.101 1660.78 762.919C1594.65 766.746 1528 770.605 1466.44 791.701C1446.49 798.537 1427.68 806.91 1409.99 816.656C1290.61 882.332 1221.89 1008.88 1168.74 1127.34C1164.88 1135.94 1160.99 1144.61 1157.1 1153.28C1099.16 1281.75 1031.67 1413.56 901.786 1483.03C863.846 1503.34 823.643 1518.81 779.176 1527.93C726.623 1538.73 670.51 1540.62 616.214 1542.29C579.164 1543.44 542.522 1544.55 506.362 1548.34C489.339 1550.14 472.464 1552.56 455.626 1555.74C348.481 1575.88 246.862 1626.42 166.828 1695.23C86.6079 1764.18 27.1942 1850.82 -5.59091 1945.24" stroke="url(#paint2_linear)" stroke-width="0.8669" stroke-miterlimit="10"/>
<path opacity="0.54" d="M1959.74 490.404C2008.36 546.627 1980.66 633.268 1919.98 679.091C1914.57 683.179 1908.97 687.038 1903.18 690.636C1844.4 727.301 1769.18 739.239 1696.83 745.093C1682.88 746.205 1668.83 747.187 1654.81 748.135C1588.9 752.583 1522.44 756.966 1461.06 778.324C1441.18 785.225 1422.45 793.663 1404.8 803.443C1285.71 869.511 1217.51 996.021 1165.48 1114.71C1161.69 1123.35 1157.91 1132.02 1154.09 1140.68C1097.53 1269.35 1031.7 1400.08 906.348 1472.92C868.853 1494.7 829.318 1512.63 783.923 1522.83C730.258 1534.93 672.142 1536.05 616.622 1536.24C578.719 1536.41 541.409 1536.21 504.433 1538.89C487.039 1540.13 469.72 1542.06 452.437 1544.81C342.288 1562.24 236.478 1613.76 154.515 1684.9C72.3665 1756.16 12.8415 1846.04 -19.9808 1943.38" stroke="url(#paint3_linear)" stroke-width="0.8669" stroke-miterlimit="10"/>
<path opacity="0.54" d="M1950.87 472.906C1999.5 529.064 1972.46 615.476 1912.49 661.789C1907.11 665.943 1901.59 669.802 1895.87 673.465C1837.65 710.62 1762.84 723.278 1690.71 729.852C1676.8 731.128 1662.82 732.207 1648.8 733.286C1583.12 738.356 1516.8 743.295 1455.61 764.881C1435.81 771.881 1417.11 780.352 1399.53 790.196C1280.71 856.657 1213.1 983.167 1162.1 1102.06C1158.39 1110.69 1154.68 1119.39 1150.98 1128.09C1095.79 1256.92 1031.67 1386.8 910.798 1462.78C873.785 1486.07 834.844 1506.45 788.559 1517.7C733.744 1531.11 673.662 1531.43 616.919 1530.19C578.2 1529.34 540.185 1527.9 502.356 1529.44C484.591 1530.16 466.827 1531.6 449.062 1533.89C335.909 1548.57 225.908 1601.13 142.016 1674.56C57.9394 1748.12 -1.69684 1841.27 -34.5562 1941.51" stroke="url(#paint4_linear)" stroke-width="0.8669" stroke-miterlimit="10"/>
<path opacity="0.54" d="M1942.01 455.44C1990.67 511.5 1964.3 597.749 1905 644.519C1899.69 648.706 1894.2 652.631 1888.53 656.327C1830.86 693.972 1756.46 707.349 1684.55 714.676C1670.68 716.082 1656.73 717.292 1642.79 718.503C1577.33 724.194 1511.17 729.656 1450.2 751.504C1430.47 758.569 1411.85 767.105 1394.27 777.015C1275.7 843.901 1208.65 970.346 1158.76 1089.46C1155.13 1098.13 1151.53 1106.8 1147.9 1115.53C1094.08 1244.53 1031.7 1373.72 915.286 1452.71C878.681 1477.53 840.444 1500.3 793.269 1512.66C737.341 1527.35 675.257 1526.92 617.253 1524.24C577.681 1522.41 538.961 1519.69 500.354 1520.08C482.181 1520.28 464.045 1521.2 445.798 1523.06C329.641 1535.03 215.449 1588.57 129.629 1664.32C43.661 1740.2 -16.1239 1836.59 -49.0203 1939.75" stroke="url(#paint5_linear)" stroke-width="0.8669" stroke-miterlimit="10"/>
<path opacity="0.54" d="M1933.15 437.975C1981.8 493.97 1956.14 579.989 1897.47 627.25C1892.24 631.47 1886.79 635.46 1881.19 639.188C1824.04 677.292 1750.08 691.454 1678.43 699.467C1664.6 701.005 1650.73 702.378 1636.82 703.719C1571.58 709.999 1505.6 716.017 1444.82 738.127C1425.16 745.29 1406.58 753.892 1389.08 763.835C1270.77 831.113 1204.27 957.558 1155.5 1076.87C1151.94 1085.54 1148.42 1094.24 1144.89 1102.97C1092.45 1232.13 1031.81 1360.8 919.848 1442.6C883.688 1469 846.118 1494.15 798.016 1507.56C740.976 1523.55 676.889 1522.34 617.661 1518.19C577.273 1515.38 537.849 1511.38 498.425 1510.63C479.881 1510.27 461.301 1510.7 442.572 1512.14C323.41 1521.39 205.028 1575.95 117.279 1653.99C29.3823 1732.16 -30.5137 1831.81 -63.4472 1937.88" stroke="url(#paint6_linear)" stroke-width="0.8669" stroke-miterlimit="10"/>
<path opacity="0.54" d="M1924.32 420.509C1973.02 476.406 1947.98 562.229 1890.01 609.948C1884.82 614.2 1879.44 618.223 1873.88 622.017C1817.29 660.611 1743.74 675.493 1672.31 684.258C1658.55 685.926 1644.68 687.431 1630.85 688.903C1565.8 695.804 1500 702.378 1439.44 724.717C1419.86 731.945 1401.31 740.612 1383.88 750.621C1265.83 818.291 1199.89 944.704 1152.24 1064.25C1148.79 1072.95 1145.34 1081.65 1141.89 1090.38C1090.82 1219.7 1032.04 1348.01 924.41 1432.5C888.694 1460.53 851.793 1487.97 802.763 1502.49C744.61 1519.79 678.521 1517.8 618.069 1512.2C576.828 1508.41 536.736 1503.14 496.459 1501.25C477.508 1500.36 458.556 1500.26 439.345 1501.28C317.18 1507.79 194.606 1563.36 104.929 1643.72C15.1037 1724.21 -44.9034 1827.1 -77.8369 1936.08" stroke="url(#paint7_linear)" stroke-width="0.8669" stroke-miterlimit="10"/>
<path opacity="0.54" d="M1915.46 403.012C1964.15 458.81 1939.82 544.436 1882.49 592.646C1877.37 596.964 1872.03 601.019 1866.54 604.846C1810.46 643.931 1737.4 659.565 1666.16 669.05C1652.43 670.882 1638.64 672.517 1624.84 674.119C1560.01 681.642 1494.37 688.74 1434.03 711.34C1414.48 718.634 1396.05 727.366 1378.62 737.407C1260.87 805.503 1195.44 931.883 1148.9 1051.62C1145.52 1060.32 1142.15 1069.06 1138.81 1077.82C1089.15 1207.31 1032.22 1335.36 928.897 1422.39C893.627 1452.09 857.356 1481.82 807.473 1497.39C748.208 1515.96 680.116 1513.22 618.44 1506.18C576.383 1501.41 535.586 1494.84 494.494 1491.79C475.171 1490.39 455.775 1489.77 436.118 1490.35C310.949 1494.15 184.222 1550.73 92.5791 1633.38C0.825187 1716.16 -59.2934 1822.36 -92.264 1934.22" stroke="url(#paint8_linear)" stroke-width="0.8669" stroke-miterlimit="10"/>
<path opacity="0.54" d="M1906.59 385.546C1955.32 441.278 1931.63 526.676 1874.99 575.377C1869.91 579.727 1864.65 583.848 1859.23 587.707C1803.71 627.25 1731.06 643.636 1660.04 653.841C1646.35 655.803 1632.59 657.57 1618.83 659.303C1554.23 667.447 1488.77 675.068 1428.61 697.93C1409.14 705.322 1390.74 714.087 1373.39 724.194C1255.9 792.682 1191.03 919.029 1145.56 1039C1142.26 1047.7 1139 1056.46 1135.73 1065.23C1087.45 1194.88 1032.48 1322.83 933.385 1412.25C898.597 1443.65 862.956 1475.64 812.146 1492.28C751.768 1512.17 681.673 1508.67 618.736 1500.17C575.826 1494.38 534.363 1486.56 492.417 1482.37C472.724 1480.41 452.882 1479.3 432.743 1479.46C304.57 1480.51 173.652 1538.11 80.0805 1623.08C-13.602 1708.15 -73.8686 1817.62 -106.839 1932.39" stroke="url(#paint9_linear)" stroke-width="0.8669" stroke-miterlimit="10"/>
<path opacity="0.54" d="M1897.73 368.08C1946.46 423.715 1923.47 508.949 1867.5 558.075C1862.49 562.458 1857.3 566.611 1851.89 570.536C1796.89 610.57 1724.68 627.708 1653.88 638.632C1640.27 640.725 1626.55 642.623 1612.82 644.487C1548.44 653.22 1483.13 661.429 1423.2 684.52C1403.8 691.977 1385.48 700.808 1368.16 710.98C1250.93 779.861 1186.62 906.175 1142.26 1026.37C1139.03 1035.11 1135.84 1043.87 1132.69 1052.64C1085.78 1182.45 1032.85 1310.43 937.909 1402.14C903.603 1435.28 868.593 1469.45 816.856 1487.18C755.366 1508.38 683.268 1504.09 619.107 1494.12C575.344 1487.35 533.213 1478.25 490.451 1472.92C470.35 1470.44 450.137 1468.8 429.517 1468.54C298.339 1466.87 163.23 1525.48 67.7305 1612.78C-27.8805 1700.17 -88.2586 1812.88 -121.266 1930.56" stroke="url(#paint10_linear)" stroke-width="0.8669" stroke-miterlimit="10"/>
<path opacity="0.54" d="M1888.9 350.615C1937.67 406.184 1915.34 491.189 1860.01 540.806C1855.08 545.254 1849.92 549.44 1844.58 553.398C1790.14 593.922 1718.34 611.78 1647.8 623.424C1634.22 625.648 1620.54 627.708 1606.89 629.703C1542.73 639.057 1477.57 647.79 1417.82 671.143C1398.5 678.698 1380.21 687.562 1362.93 697.799C1245.96 767.105 1182.24 893.387 1138.96 1013.78C1135.81 1022.51 1132.73 1031.31 1129.65 1040.11C1084.11 1170.09 1033.34 1298.17 942.434 1392.07C908.648 1426.97 874.231 1463.34 821.604 1482.14C759.001 1504.61 684.9 1499.58 619.515 1488.16C574.936 1480.41 532.101 1470.04 488.523 1463.57C468.051 1460.53 447.393 1458.4 426.291 1457.71C292.109 1453.33 152.809 1512.95 55.3808 1602.54C-42.1587 1692.22 -102.648 1808.2 -135.693 1928.79" stroke="url(#paint11_linear)" stroke-width="0.8669" stroke-miterlimit="10"/>
<path opacity="0.54" d="M1880.04 333.117C1928.81 388.588 1907.15 473.397 1852.52 523.504C1847.62 527.985 1842.54 532.237 1837.24 536.26C1783.35 577.274 1711.96 595.884 1641.64 608.248C1628.1 610.635 1614.49 612.794 1600.88 614.92C1536.94 624.895 1471.97 634.152 1412.4 657.766C1393.16 665.387 1374.91 674.348 1357.7 684.618C1240.99 754.317 1177.83 880.566 1135.66 1001.19C1132.58 1009.95 1129.58 1018.75 1126.61 1027.55C1082.44 1157.72 1033.93 1286 946.959 1382C913.691 1418.69 879.831 1457.19 826.314 1477.08C762.598 1500.85 686.495 1495.03 619.849 1482.18C574.417 1473.44 530.876 1461.77 486.483 1454.18C465.603 1450.62 444.537 1447.97 422.99 1446.85C285.804 1439.72 142.313 1500.36 42.9565 1592.27C-56.5116 1684.27 -117.112 1803.49 -150.157 1926.99" stroke="url(#paint12_linear)" stroke-width="0.8669" stroke-miterlimit="10"/>
<path opacity="0.54" d="M1871.17 315.651C1919.98 371.057 1898.99 455.637 1844.99 506.235C1840.17 510.748 1835.12 515.033 1829.9 519.121C1776.53 560.593 1705.58 579.956 1635.48 593.039C1621.98 595.557 1608.45 597.879 1594.87 600.104C1531.16 610.701 1466.33 620.513 1406.99 644.356C1387.81 652.042 1369.64 661.069 1352.47 671.405C1236.05 741.496 1173.41 867.745 1132.36 988.564C1129.39 997.33 1126.46 1006.16 1123.57 1014.96C1080.77 1145.3 1034.6 1273.83 951.446 1371.86C918.772 1410.39 885.431 1451.01 830.987 1471.97C766.158 1497.06 688.052 1490.45 620.183 1476.13C573.935 1466.38 529.69 1453.46 484.48 1444.73C463.229 1440.64 441.756 1437.5 419.726 1435.93C279.536 1426.09 131.854 1487.74 30.5691 1581.93C-70.8275 1676.23 -131.54 1798.72 -164.621 1925.13" stroke="url(#paint13_linear)" stroke-width="0.8669" stroke-miterlimit="10"/>
<path opacity="0.54" d="M1862.35 298.186C1911.15 353.493 1890.87 437.877 1837.54 488.933C1832.79 493.479 1827.78 497.829 1822.63 501.95C1769.81 543.913 1699.27 564.028 1629.4 577.83C1615.98 580.479 1602.44 582.932 1588.9 585.32C1525.37 596.506 1460.73 606.874 1401.61 630.979C1382.51 638.763 1364.38 647.823 1347.24 658.191C1231.08 728.675 1169 854.891 1129.02 975.939C1126.13 984.737 1123.27 993.568 1120.49 1002.37C1079.06 1132.87 1035.3 1261.77 955.934 1361.75C923.853 1402.14 891.031 1444.83 835.697 1466.87C769.756 1493.23 689.684 1485.87 620.553 1470.11C573.453 1459.38 528.54 1445.19 482.478 1435.31C460.856 1430.66 438.937 1427.03 416.425 1425.04C273.231 1412.48 121.359 1475.11 18.1449 1571.63C-85.1802 1668.25 -146.003 1793.97 -179.122 1923.3" stroke="url(#paint14_linear)" stroke-width="0.8669" stroke-miterlimit="10"/>
<path opacity="0.54" d="M1853.48 280.72C1902.33 335.962 1882.67 420.117 1830.04 471.663C1825.33 476.275 1820.4 480.658 1815.28 484.812C1762.99 527.265 1692.89 548.1 1623.28 562.654C1609.89 565.434 1596.43 568.018 1582.93 570.536C1519.62 582.344 1455.17 593.235 1396.23 617.602C1377.21 625.452 1359.15 634.577 1342.05 645.01C1226.15 715.919 1164.62 842.102 1125.76 963.347C1122.94 972.145 1120.19 980.976 1117.49 989.84C1077.43 1120.5 1036.23 1249.83 960.495 1351.68C929.082 1393.93 896.705 1438.71 840.444 1461.83C773.39 1489.5 691.316 1481.36 620.961 1464.16C573.045 1452.45 527.427 1436.98 480.549 1425.95C458.519 1420.79 436.23 1416.63 413.236 1414.21C267.038 1398.91 110.974 1462.59 5.83194 1561.39C-99.4217 1660.3 -160.356 1789.3 -193.512 1921.53" stroke="url(#paint15_linear)" stroke-width="0.8669" stroke-miterlimit="10"/>
<path opacity="0.54" d="M1844.62 263.222C1893.46 318.366 1874.51 402.357 1822.51 454.361C1817.88 459.006 1813.02 463.421 1807.94 467.64C1756.2 510.585 1686.52 532.138 1617.13 547.413C1603.77 550.356 1590.35 553.071 1576.92 555.72C1513.84 568.149 1449.53 579.596 1390.82 604.192C1371.87 612.14 1353.84 621.298 1336.82 631.796C1221.18 703.098 1160.21 829.248 1122.46 950.722C1119.71 959.553 1117.04 968.384 1114.44 977.247C1075.76 1108.08 1037.15 1237.82 965.02 1341.57C934.312 1385.72 902.305 1432.53 845.154 1456.73C776.987 1485.71 692.911 1476.78 621.295 1458.14C572.525 1445.45 526.24 1428.67 478.546 1416.53C456.145 1410.81 433.411 1406.17 409.972 1403.32C260.77 1385.3 100.515 1449.96 -6.55551 1551.09C-113.738 1652.32 -174.783 1784.55 -207.976 1919.7" stroke="url(#paint16_linear)" stroke-width="0.8669" stroke-miterlimit="10"/>
<path opacity="0.54" d="M1835.75 245.756C1884.6 300.835 1866.35 384.597 1815.02 437.059C1810.42 441.736 1805.64 446.217 1800.6 450.469C1749.42 493.871 1680.14 516.21 1610.97 532.204C1597.65 535.278 1584.3 538.124 1570.91 540.904C1508.05 553.954 1443.89 565.925 1385.4 590.782C1366.53 598.795 1348.54 608.019 1331.55 618.583C1216.17 690.277 1155.76 816.395 1119.12 938.097C1116.45 946.928 1113.89 955.792 1111.37 964.655C1074.06 1095.65 1038.19 1225.85 969.508 1331.43C939.541 1377.52 907.906 1426.35 849.864 1451.6C780.585 1481.85 694.505 1472.17 621.666 1452.05C572.08 1438.38 525.091 1420.33 476.544 1407.05C453.735 1400.8 430.592 1395.63 406.671 1392.36C254.465 1371.6 90.02 1437.3 -18.9795 1540.72C-128.09 1644.24 -189.247 1779.75 -222.44 1917.8" stroke="url(#paint17_linear)" stroke-width="0.8669" stroke-miterlimit="10"/>
<path opacity="0.54" d="M1826.93 228.291C1875.81 283.271 1858.19 366.837 1807.53 419.79C1803.01 424.533 1798.26 429.046 1793.29 433.331C1742.63 477.223 1673.79 500.282 1604.85 516.995C1591.61 520.2 1578.26 523.209 1564.94 526.087C1502.3 539.759 1438.33 552.253 1379.99 577.372C1361.19 585.451 1343.27 594.772 1326.32 605.369C1211.24 677.488 1151.35 803.573 1115.82 925.472C1113.22 934.336 1110.74 943.199 1108.33 952.063C1072.39 1083.22 1039.31 1213.95 974.032 1321.32C944.845 1369.34 913.543 1420.16 854.574 1446.53C784.182 1478.09 696.1 1467.66 622.037 1446.07C571.598 1431.38 523.904 1412.09 474.578 1397.63C451.398 1390.86 427.848 1385.17 403.445 1381.47C248.197 1357.99 79.5985 1424.68 -31.3296 1530.45C-142.369 1636.26 -203.637 1775.04 -236.867 1916" stroke="url(#paint18_linear)" stroke-width="0.8669" stroke-miterlimit="10"/>
<path opacity="0.54" d="M1818.06 210.825C1866.95 265.74 1850.03 349.077 1800.04 402.521C1795.59 407.296 1790.88 411.842 1785.98 416.192C1735.88 460.575 1667.45 484.386 1598.73 501.819C1585.53 505.155 1572.25 508.295 1558.94 511.337C1496.52 525.597 1432.69 538.68 1374.57 564.06C1355.85 572.237 1337.97 581.591 1321.09 592.221C1206.27 664.732 1146.97 790.785 1112.48 912.913C1109.99 921.776 1107.55 930.673 1105.21 939.569C1070.64 1070.89 1040.46 1202.11 978.483 1311.28C950.148 1361.23 919.106 1414.08 859.21 1441.49C787.706 1474.36 697.621 1463.14 622.334 1440.12C571.042 1424.45 522.68 1403.88 472.538 1388.28C448.951 1380.95 424.992 1374.77 400.107 1370.65C241.855 1344.45 69.0657 1412.15 -43.7909 1520.22C-156.759 1628.34 -218.175 1770.36 -251.405 1914.24" stroke="url(#paint19_linear)" stroke-width="0.8669" stroke-miterlimit="10"/>
<path opacity="0.54" d="M1809.2 193.327C1858.12 248.144 1841.87 331.285 1792.55 385.219C1788.13 390.027 1783.5 394.638 1778.64 399.021C1729.05 443.862 1661.07 468.425 1592.61 486.61C1579.44 490.11 1566.2 493.348 1552.96 496.521C1490.77 511.402 1427.09 525.008 1369.2 550.651C1350.54 558.893 1332.74 568.312 1315.9 579.008C1201.34 651.911 1142.59 777.964 1109.22 900.288C1106.8 909.184 1104.47 918.081 1102.21 926.977C1069.05 1058.46 1041.79 1190.17 983.044 1301.14C955.563 1353.02 924.743 1407.87 863.994 1436.39C791.377 1470.53 699.29 1458.56 622.741 1434.07C570.634 1417.42 521.567 1395.57 470.572 1378.82C446.614 1370.97 422.21 1364.27 396.88 1359.72C235.624 1330.78 58.644 1399.49 -56.1412 1509.88C-171.038 1620.3 -232.565 1765.62 -265.832 1912.37" stroke="url(#paint20_linear)" stroke-width="0.8669" stroke-miterlimit="10"/>
<path opacity="0.54" d="M1800.34 175.862C1849.25 230.613 1833.68 313.558 1785.02 367.917C1780.68 372.757 1776.08 377.434 1771.3 381.85C1722.27 427.182 1654.69 452.497 1586.45 471.369C1573.33 474.999 1560.16 478.401 1546.96 481.704C1484.95 497.207 1421.49 511.337 1363.78 537.241C1345.2 545.581 1327.44 555.033 1310.64 565.794C1196.33 639.123 1138.14 765.11 1105.88 887.663C1103.54 896.559 1101.28 905.488 1099.13 914.385C1067.34 1046.06 1043.13 1178.26 987.532 1291.04C960.978 1344.87 930.343 1401.72 868.667 1431.29C794.938 1466.74 700.847 1453.98 623.075 1428.05C570.115 1410.42 520.381 1387.26 468.57 1369.4C444.241 1361.03 419.429 1353.8 393.616 1348.83C229.357 1317.17 48.2227 1386.9 -68.528 1499.58C-185.353 1612.32 -246.992 1760.87 -280.296 1910.54" stroke="url(#paint21_linear)" stroke-width="0.8669" stroke-miterlimit="10"/>
<path opacity="0.54" d="M1791.51 158.396C1840.47 213.049 1825.56 295.798 1777.57 350.648C1773.26 355.554 1768.74 360.231 1764.03 364.712C1715.56 410.534 1648.39 436.569 1580.37 456.193C1567.32 459.954 1554.15 463.487 1541.02 466.921C1479.24 483.045 1415.93 497.698 1358.44 523.864C1339.94 532.269 1322.21 541.787 1305.48 552.613C1191.44 626.335 1133.8 752.322 1102.65 875.071C1100.39 884 1098.24 892.929 1096.16 901.825C1065.75 1033.67 1044.68 1166.36 992.131 1280.93C966.541 1336.7 936.055 1395.54 873.451 1426.22C798.572 1462.98 702.516 1449.44 623.52 1422.06C569.744 1403.42 519.305 1379.02 466.641 1360.02C441.904 1351.09 416.685 1343.37 390.39 1337.97C223.126 1303.6 37.8011 1374.31 -80.8781 1489.31C-199.632 1604.34 -261.382 1756.16 -294.686 1908.74" stroke="url(#paint22_linear)" stroke-width="0.8669" stroke-miterlimit="10"/>
<path opacity="0.54" d="M1782.65 140.931C1831.6 195.519 1817.4 278.038 1770.04 333.378C1765.81 338.317 1761.36 343.06 1756.65 347.573C1708.69 393.886 1641.97 420.673 1574.18 440.984C1561.16 444.877 1548.07 448.572 1534.98 452.105C1473.41 468.818 1410.25 484.059 1352.99 510.454C1334.56 518.958 1316.9 528.508 1300.21 539.4C1186.47 613.514 1129.35 739.468 1099.31 862.446C1097.12 871.375 1095.05 880.337 1093.08 889.266C1064.04 1021.27 1046.13 1154.42 996.618 1270.86C972.067 1328.59 941.655 1389.42 878.162 1421.15C802.17 1459.18 704.111 1444.89 623.854 1416.08C569.225 1396.45 518.118 1370.78 464.639 1350.63C439.531 1341.18 413.903 1332.97 387.126 1327.11C216.859 1289.99 27.3424 1361.75 -93.2655 1479.04C-213.91 1596.39 -275.809 1751.45 -309.15 1906.94" stroke="url(#paint23_linear)" stroke-width="0.8669" stroke-miterlimit="10"/>
<path opacity="0.54" d="M1773.78 123.432C1822.77 177.922 1809.2 260.245 1762.54 316.043C1758.39 321.015 1753.98 325.823 1749.34 330.369C1701.94 377.14 1635.63 404.679 1568.1 425.743C1555.12 429.765 1542.06 433.592 1529.01 437.288C1467.66 454.623 1404.69 470.387 1347.61 497.044C1329.25 505.613 1311.64 515.229 1294.99 526.185C1181.5 600.725 1124.94 726.614 1096.01 849.821C1093.9 858.783 1091.93 867.744 1090.04 876.673C1062.37 1008.84 1047.72 1142.45 1001.11 1260.72C977.593 1320.38 947.218 1383.24 882.835 1416.04C805.73 1455.39 705.669 1440.31 624.188 1410.03C568.743 1389.42 516.932 1362.47 462.636 1341.18C437.12 1331.17 411.085 1322.47 383.825 1316.19C210.554 1276.35 16.8468 1349.09 -105.69 1468.7C-228.263 1588.34 -290.273 1746.68 -323.651 1905.08" stroke="url(#paint24_linear)" stroke-width="0.8669" stroke-miterlimit="10"/>
<path opacity="0.54" d="M1764.92 105.967C1813.91 160.391 1801.04 242.486 1755.02 298.774C1750.9 303.811 1746.56 308.619 1741.96 313.264C1695.08 360.525 1629.22 388.817 1561.9 410.6C1549 414.786 1535.98 418.711 1522.96 422.537C1461.84 440.494 1399.02 456.782 1342.12 483.699C1323.84 492.334 1306.3 502.048 1289.68 513.005C1176.45 587.937 1120.45 713.826 1092.6 837.229C1090.56 846.191 1088.67 855.152 1086.89 864.114C1060.59 996.446 1049.25 1130.48 1005.52 1250.64C983.119 1312.26 952.744 1377.09 887.434 1410.97C809.216 1451.63 707.152 1435.77 624.448 1404.04C568.149 1382.45 515.634 1354.2 460.522 1331.79C434.635 1321.26 408.155 1312.04 380.45 1305.33C204.175 1262.75 6.27702 1336.53 -118.225 1458.46C-242.727 1580.4 -304.848 1742 -338.264 1903.31" stroke="url(#paint25_linear)" stroke-width="0.8669" stroke-miterlimit="10"/>
<path opacity="0.54" d="M1756.09 88.5012C1805.12 142.828 1792.88 224.758 1747.56 281.505C1743.52 286.575 1739.22 291.448 1734.69 296.125C1688.37 343.877 1622.91 372.888 1555.82 395.391C1542.95 399.708 1529.97 403.796 1517.03 407.721C1456.13 426.299 1393.45 443.143 1336.78 470.29C1318.57 479.022 1301.07 488.769 1284.53 499.791C1171.56 575.115 1116.11 700.972 1089.37 824.604C1087.45 833.599 1085.63 842.56 1083.92 851.555C1059 984.051 1050.99 1118.48 1010.12 1240.54C988.83 1304.09 958.456 1370.94 892.255 1405.9C812.925 1447.84 708.858 1431.22 624.93 1398.06C567.815 1375.49 514.595 1345.95 458.667 1322.4C432.41 1311.35 405.521 1301.6 377.335 1294.47C198.055 1249.17 -4.03331 1323.97 -130.464 1448.19C-256.894 1572.45 -319.127 1737.29 -352.58 1901.51" stroke="url(#paint26_linear)" stroke-width="0.8669" stroke-miterlimit="10"/>
<path opacity="0.54" d="M1747.23 71.0355C1796.26 125.296 1784.72 206.998 1740.07 264.236C1736.06 269.338 1731.84 274.276 1727.39 278.986C1681.58 327.196 1616.57 356.96 1549.7 380.214C1536.87 384.662 1523.96 388.882 1511.06 392.97C1450.38 412.169 1387.89 429.536 1331.41 456.945C1313.27 465.743 1295.8 475.555 1279.3 486.643C1166.59 562.359 1111.74 688.216 1086.07 812.044C1084.22 821.039 1082.48 830.033 1080.88 839.028C1057.33 971.687 1052.73 1106.47 1014.64 1230.5C994.541 1295.98 964.056 1364.82 896.965 1400.87C816.523 1444.11 710.453 1426.74 625.264 1392.07C567.296 1368.49 513.408 1337.71 456.628 1313.02C429.962 1301.41 402.666 1291.17 373.997 1283.61C191.713 1235.6 -14.566 1311.38 -142.925 1437.92C-271.284 1564.47 -333.628 1732.58 -367.118 1899.71" stroke="url(#paint27_linear)" stroke-width="0.8669" stroke-miterlimit="10"/>
<path opacity="0.54" d="M1738.36 53.5373C1787.43 107.7 1776.56 189.206 1732.54 246.901C1728.61 252.036 1724.42 257.007 1720.01 261.783C1674.76 310.483 1610.15 340.999 1543.51 364.94C1530.71 369.519 1517.84 373.902 1505.01 378.089C1444.52 397.876 1382.21 415.8 1325.95 443.47C1307.89 452.366 1290.5 462.211 1274.03 473.364C1161.62 549.506 1107.29 675.297 1082.74 799.354C1080.95 808.381 1079.32 817.376 1077.8 826.37C1055.62 959.193 1054.47 1094.31 1019.13 1220.29C1000.22 1287.7 969.656 1358.58 901.638 1395.7C820.083 1440.25 712.011 1422.09 625.597 1385.99C566.777 1361.42 512.222 1329.37 454.625 1303.53C427.588 1291.4 399.847 1280.64 370.734 1272.66C185.446 1221.9 -25.0246 1298.72 -155.312 1427.56C-285.6 1556.42 -348.055 1727.77 -381.545 1897.82" stroke="url(#paint28_linear)" stroke-width="0.8669" stroke-miterlimit="10"/>
<path opacity="0.54" d="M1729.54 36.072C1778.6 90.1693 1768.4 171.446 1725.09 229.632C1721.23 234.832 1717.08 239.836 1712.74 244.644C1668.05 293.835 1603.85 325.071 1537.46 349.764C1524.74 354.507 1511.91 358.988 1499.08 363.338C1438.81 383.747 1376.65 402.226 1320.61 430.125C1302.63 439.087 1285.27 448.997 1268.88 460.216C1156.72 536.75 1102.95 662.541 1079.51 786.795C1077.8 795.822 1076.24 804.849 1074.84 813.843C1054.03 946.83 1056.37 1082.24 1023.73 1210.25C1006.08 1279.56 975.367 1352.46 906.459 1390.66C823.792 1436.49 713.717 1417.58 626.079 1380.03C566.443 1354.49 511.183 1321.16 452.77 1294.15C425.326 1281.49 397.214 1270.2 367.618 1261.8C179.326 1208.32 -35.3351 1286.13 -167.551 1417.29C-299.767 1548.44 -362.334 1723.06 -395.86 1896.02" stroke="url(#paint29_linear)" stroke-width="0.8669" stroke-miterlimit="10"/>
<path opacity="0.54" d="M1720.67 18.6063C1769.74 72.6055 1760.25 153.686 1717.56 212.362C1713.74 217.595 1709.7 222.665 1705.36 227.506C1661.19 277.187 1597.43 309.175 1531.27 334.556C1518.58 339.429 1505.79 344.041 1493.03 348.521C1432.99 369.552 1371.01 388.555 1315.16 416.715C1297.21 425.743 1279.97 435.718 1263.57 446.969C1151.68 523.896 1098.46 649.654 1076.1 774.137C1074.46 783.197 1073.02 792.224 1071.68 801.251C1052.25 934.434 1058.07 1070.07 1028.14 1200.11C1011.75 1271.32 980.893 1346.28 911.058 1385.56C827.278 1432.69 715.2 1413 626.339 1374.02C565.85 1347.49 509.922 1312.85 450.657 1284.73C422.841 1271.51 394.284 1259.74 364.206 1250.91C172.91 1194.72 -45.9419 1273.54 -180.087 1406.98C-314.231 1540.46 -376.946 1718.32 -410.473 1894.19" stroke="url(#paint30_linear)" stroke-width="0.8669" stroke-miterlimit="10"/>
<path opacity="0.54" d="M1711.81 1.14105C1765.29 59.8827 1750.05 150.579 1698.05 210.367C1646.05 270.123 1566.09 305.152 1487.06 333.738C1408.03 362.324 1325.51 387.279 1258.34 433.789C1138.63 516.733 1086.7 655.378 1068.68 788.692C1050.62 922.038 1060 1057.9 1032.7 1190.01C1017.61 1263.11 986.531 1340.1 915.805 1380.46C830.913 1428.9 716.832 1408.42 626.71 1367.96C536.588 1327.51 456.591 1268.99 360.98 1239.98C166.68 1181.04 -56.3633 1260.88 -192.437 1396.65C-328.51 1532.42 -391.336 1713.55 -424.9 1892.32" stroke="url(#paint31_linear)" stroke-width="0.8669" stroke-miterlimit="10"/>
</g>
<defs>
<linearGradient id="paint0_linear" x1="73.9633" y1="2000.24" x2="1754.08" y2="309.881" gradientUnits="userSpaceOnUse">
<stop stop-color="#7ED4EF"/>
<stop offset="0.2294" stop-color="#66BFE6"/>
<stop offset="0.711" stop-color="#298BD0"/>
<stop offset="1" stop-color="#0169C2"/>
</linearGradient>
<linearGradient id="paint1_linear" x1="54.6853" y1="1993.65" x2="1745.42" y2="292.601" gradientUnits="userSpaceOnUse">
<stop stop-color="#7ED4EF"/>
<stop offset="0.2294" stop-color="#66BFE6"/>
<stop offset="0.711" stop-color="#298BD0"/>
<stop offset="1" stop-color="#0169C2"/>
</linearGradient>
<linearGradient id="paint2_linear" x1="35.4121" y1="1987.06" x2="1736.77" y2="275.326" gradientUnits="userSpaceOnUse">
<stop stop-color="#7ED4EF"/>
<stop offset="0.2294" stop-color="#66BFE6"/>
<stop offset="0.711" stop-color="#298BD0"/>
<stop offset="1" stop-color="#0169C2"/>
</linearGradient>
<linearGradient id="paint3_linear" x1="17.655" y1="1981.97" x2="1729.63" y2="259.557" gradientUnits="userSpaceOnUse">
<stop stop-color="#7ED4EF"/>
<stop offset="0.2294" stop-color="#66BFE6"/>
<stop offset="0.711" stop-color="#298BD0"/>
<stop offset="1" stop-color="#0169C2"/>
</linearGradient>
<linearGradient id="paint4_linear" x1="2.49002" y1="1979.46" x2="1725.08" y2="246.365" gradientUnits="userSpaceOnUse">
<stop stop-color="#7ED4EF"/>
<stop offset="0.2294" stop-color="#66BFE6"/>
<stop offset="0.711" stop-color="#298BD0"/>
<stop offset="1" stop-color="#0169C2"/>
</linearGradient>
<linearGradient id="paint5_linear" x1="-12.5206" y1="1977.1" x2="1720.69" y2="233.325" gradientUnits="userSpaceOnUse">
<stop stop-color="#7ED4EF"/>
<stop offset="0.2294" stop-color="#66BFE6"/>
<stop offset="0.711" stop-color="#298BD0"/>
<stop offset="1" stop-color="#0169C2"/>
</linearGradient>
<linearGradient id="paint6_linear" x1="-27.3661" y1="1974.91" x2="1716.46" y2="220.449" gradientUnits="userSpaceOnUse">
<stop stop-color="#7ED4EF"/>
<stop offset="0.2294" stop-color="#66BFE6"/>
<stop offset="0.711" stop-color="#298BD0"/>
<stop offset="1" stop-color="#0169C2"/>
</linearGradient>
<linearGradient id="paint7_linear" x1="-42.0344" y1="1972.89" x2="1712.41" y2="207.748" gradientUnits="userSpaceOnUse">
<stop stop-color="#7ED4EF"/>
<stop offset="0.2294" stop-color="#66BFE6"/>
<stop offset="0.711" stop-color="#298BD0"/>
<stop offset="1" stop-color="#0169C2"/>
</linearGradient>
<linearGradient id="paint8_linear" x1="-56.3216" y1="1971.25" x2="1708.74" y2="195.427" gradientUnits="userSpaceOnUse">
<stop stop-color="#7ED4EF"/>
<stop offset="0.2294" stop-color="#66BFE6"/>
<stop offset="0.711" stop-color="#298BD0"/>
<stop offset="1" stop-color="#0169C2"/>
</linearGradient>
<linearGradient id="paint9_linear" x1="-70.2976" y1="1969.92" x2="1705.38" y2="183.414" gradientUnits="userSpaceOnUse">
<stop stop-color="#7ED4EF"/>
<stop offset="0.2294" stop-color="#66BFE6"/>
<stop offset="0.711" stop-color="#298BD0"/>
<stop offset="1" stop-color="#0169C2"/>
</linearGradient>
<linearGradient id="paint10_linear" x1="-84.0841" y1="1968.78" x2="1702.21" y2="171.59" gradientUnits="userSpaceOnUse">
<stop stop-color="#7ED4EF"/>
<stop offset="0.2294" stop-color="#66BFE6"/>
<stop offset="0.711" stop-color="#298BD0"/>
<stop offset="1" stop-color="#0169C2"/>
</linearGradient>
<linearGradient id="paint11_linear" x1="-97.7392" y1="1967.76" x2="1699.17" y2="159.895" gradientUnits="userSpaceOnUse">
<stop stop-color="#7ED4EF"/>
<stop offset="0.2294" stop-color="#66BFE6"/>
<stop offset="0.711" stop-color="#298BD0"/>
<stop offset="1" stop-color="#0169C2"/>
</linearGradient>
<linearGradient id="paint12_linear" x1="-111.3" y1="1966.84" x2="1696.22" y2="148.295" gradientUnits="userSpaceOnUse">
<stop stop-color="#7ED4EF"/>
<stop offset="0.2294" stop-color="#66BFE6"/>
<stop offset="0.711" stop-color="#298BD0"/>
<stop offset="1" stop-color="#0169C2"/>
</linearGradient>
<linearGradient id="paint13_linear" x1="-124.789" y1="1965.99" x2="1693.35" y2="136.765" gradientUnits="userSpaceOnUse">
<stop stop-color="#7ED4EF"/>
<stop offset="0.2294" stop-color="#66BFE6"/>
<stop offset="0.711" stop-color="#298BD0"/>
<stop offset="1" stop-color="#0169C2"/>
</linearGradient>
<linearGradient id="paint14_linear" x1="-138.223" y1="1965.2" x2="1690.53" y2="125.29" gradientUnits="userSpaceOnUse">
<stop stop-color="#7ED4EF"/>
<stop offset="0.2294" stop-color="#66BFE6"/>
<stop offset="0.711" stop-color="#298BD0"/>
<stop offset="1" stop-color="#0169C2"/>
</linearGradient>
<linearGradient id="paint15_linear" x1="-151.613" y1="1964.45" x2="1687.76" y2="113.859" gradientUnits="userSpaceOnUse">
<stop stop-color="#7ED4EF"/>
<stop offset="0.2294" stop-color="#66BFE6"/>
<stop offset="0.711" stop-color="#298BD0"/>
<stop offset="1" stop-color="#0169C2"/>
</linearGradient>
<linearGradient id="paint16_linear" x1="-164.969" y1="1963.73" x2="1685.01" y2="102.46" gradientUnits="userSpaceOnUse">
<stop stop-color="#7ED4EF"/>
<stop offset="0.2294" stop-color="#66BFE6"/>
<stop offset="0.711" stop-color="#298BD0"/>
<stop offset="1" stop-color="#0169C2"/>
</linearGradient>
<linearGradient id="paint17_linear" x1="-178.297" y1="1963.04" x2="1682.3" y2="91.0909" gradientUnits="userSpaceOnUse">
<stop stop-color="#7ED4EF"/>
<stop offset="0.2294" stop-color="#66BFE6"/>
<stop offset="0.711" stop-color="#298BD0"/>
<stop offset="1" stop-color="#0169C2"/>
</linearGradient>
<linearGradient id="paint18_linear" x1="-191.601" y1="1962.37" x2="1679.61" y2="79.7434" gradientUnits="userSpaceOnUse">
<stop stop-color="#7ED4EF"/>
<stop offset="0.2294" stop-color="#66BFE6"/>
<stop offset="0.711" stop-color="#298BD0"/>
<stop offset="1" stop-color="#0169C2"/>
</linearGradient>
<linearGradient id="paint19_linear" x1="-204.886" y1="1961.72" x2="1676.94" y2="68.4159" gradientUnits="userSpaceOnUse">
<stop stop-color="#7ED4EF"/>
<stop offset="0.2294" stop-color="#66BFE6"/>
<stop offset="0.711" stop-color="#298BD0"/>
<stop offset="1" stop-color="#0169C2"/>
</linearGradient>
<linearGradient id="paint20_linear" x1="-218.155" y1="1961.09" x2="1674.29" y2="57.1042" gradientUnits="userSpaceOnUse">
<stop stop-color="#7ED4EF"/>
<stop offset="0.2294" stop-color="#66BFE6"/>
<stop offset="0.711" stop-color="#298BD0"/>
<stop offset="1" stop-color="#0169C2"/>
</linearGradient>
<linearGradient id="paint21_linear" x1="-231.41" y1="1960.47" x2="1671.65" y2="45.8059" gradientUnits="userSpaceOnUse">
<stop stop-color="#7ED4EF"/>
<stop offset="0.2294" stop-color="#66BFE6"/>
<stop offset="0.711" stop-color="#298BD0"/>
<stop offset="1" stop-color="#0169C2"/>
</linearGradient>
<linearGradient id="paint22_linear" x1="-244.653" y1="1959.86" x2="1669.02" y2="34.5198" gradientUnits="userSpaceOnUse">
<stop stop-color="#7ED4EF"/>
<stop offset="0.2294" stop-color="#66BFE6"/>
<stop offset="0.711" stop-color="#298BD0"/>
<stop offset="1" stop-color="#0169C2"/>
</linearGradient>
<linearGradient id="paint23_linear" x1="-257.885" y1="1959.26" x2="1666.4" y2="23.2435" gradientUnits="userSpaceOnUse">
<stop stop-color="#7ED4EF"/>
<stop offset="0.2294" stop-color="#66BFE6"/>
<stop offset="0.711" stop-color="#298BD0"/>
<stop offset="1" stop-color="#0169C2"/>
</linearGradient>
<linearGradient id="paint24_linear" x1="-271.109" y1="1958.68" x2="1663.79" y2="11.9757" gradientUnits="userSpaceOnUse">
<stop stop-color="#7ED4EF"/>
<stop offset="0.2294" stop-color="#66BFE6"/>
<stop offset="0.711" stop-color="#298BD0"/>
<stop offset="1" stop-color="#0169C2"/>
</linearGradient>
<linearGradient id="paint25_linear" x1="-284.325" y1="1958.09" x2="1661.19" y2="0.716064" gradientUnits="userSpaceOnUse">
<stop stop-color="#7ED4EF"/>
<stop offset="0.2294" stop-color="#66BFE6"/>
<stop offset="0.711" stop-color="#298BD0"/>
<stop offset="1" stop-color="#0169C2"/>
</linearGradient>
<linearGradient id="paint26_linear" x1="-297.533" y1="1957.52" x2="1658.59" y2="-10.5372" gradientUnits="userSpaceOnUse">
<stop stop-color="#7ED4EF"/>
<stop offset="0.2294" stop-color="#66BFE6"/>
<stop offset="0.711" stop-color="#298BD0"/>
<stop offset="1" stop-color="#0169C2"/>
</linearGradient>
<linearGradient id="paint27_linear" x1="-310.736" y1="1956.95" x2="1656" y2="-21.7839" gradientUnits="userSpaceOnUse">
<stop stop-color="#7ED4EF"/>
<stop offset="0.2294" stop-color="#66BFE6"/>
<stop offset="0.711" stop-color="#298BD0"/>
<stop offset="1" stop-color="#0169C2"/>
</linearGradient>
<linearGradient id="paint28_linear" x1="-323.934" y1="1956.39" x2="1653.42" y2="-33.0255" gradientUnits="userSpaceOnUse">
<stop stop-color="#7ED4EF"/>
<stop offset="0.2294" stop-color="#66BFE6"/>
<stop offset="0.711" stop-color="#298BD0"/>
<stop offset="1" stop-color="#0169C2"/>
</linearGradient>
<linearGradient id="paint29_linear" x1="-337.126" y1="1955.83" x2="1650.84" y2="-44.2623" gradientUnits="userSpaceOnUse">
<stop stop-color="#7ED4EF"/>
<stop offset="0.2294" stop-color="#66BFE6"/>
<stop offset="0.711" stop-color="#298BD0"/>
<stop offset="1" stop-color="#0169C2"/>
</linearGradient>
<linearGradient id="paint30_linear" x1="-350.314" y1="1955.28" x2="1648.27" y2="-55.4947" gradientUnits="userSpaceOnUse">
<stop stop-color="#7ED4EF"/>
<stop offset="0.2294" stop-color="#66BFE6"/>
<stop offset="0.711" stop-color="#298BD0"/>
<stop offset="1" stop-color="#0169C2"/>
</linearGradient>
<linearGradient id="paint31_linear" x1="-363.497" y1="1954.72" x2="1645.7" y2="-66.7227" gradientUnits="userSpaceOnUse">
<stop stop-color="#7ED4EF"/>
<stop offset="0.2294" stop-color="#66BFE6"/>
<stop offset="0.711" stop-color="#298BD0"/>
<stop offset="1" stop-color="#0169C2"/>
</linearGradient>
</defs>
</svg>
