<svg width="1280" height="1443" viewBox="0 0 1280 1443" fill="none" xmlns="http://www.w3.org/2000/svg">
<g opacity="0.54">
<path opacity="0.54" d="M-300.819 900.14C-349.403 843.655 -319.659 756.393 -257.019 712.009C-194.378 667.593 -110.005 656.31 -29.7478 652.287C50.509 648.231 133.028 649.474 208.241 624.518C363.896 572.841 446.564 425.987 510.132 290.45C573.699 154.912 644.499 6.32425 792.737 -60.2344C908.968 -112.402 1047.27 -101.576 1175.14 -124.144C1398.37 -163.523 1591.63 -314.956 1662.17 -505.867" stroke="url(#paint0_linear)" stroke-width="0.8669" stroke-miterlimit="10"/>
<path opacity="0.54" d="M-291.955 917.605C-340.539 861.219 -311.463 774.153 -249.49 729.279C-243.964 725.256 -238.215 721.527 -232.356 717.995C-172.497 682.279 -96.4308 671.845 -23.6284 667.463C-9.57236 666.612 4.5579 665.925 18.6882 665.239C85.0373 662.033 151.831 658.697 213.619 637.863C233.646 631.125 252.486 622.785 270.214 613.104C389.858 547.853 459.137 421.277 513.395 303.009C517.327 294.407 521.295 285.772 525.3 277.105C584.603 148.796 653.808 15.8092 788.138 -50.1934C826.56 -69.0653 867.393 -82.0173 910.971 -90.0632C962.411 -99.5809 1016.52 -102.23 1069.59 -105.337C1105.83 -107.463 1141.76 -109.851 1177.11 -114.79C1193.72 -117.112 1210.23 -120.055 1226.58 -123.653C1330.72 -146.515 1428.15 -196.034 1506.26 -262.527C1584.55 -329.184 1643.85 -412.554 1676.64 -504.068" stroke="url(#paint1_linear)" stroke-width="0.8669" stroke-miterlimit="10"/>
<path opacity="0.54" d="M-283.091 935.071C-331.712 878.749 -303.303 791.913 -241.998 746.548C-236.509 742.492 -230.835 738.698 -225.012 735.133C-165.71 698.959 -90.0517 687.774 -17.4719 682.639C-3.45287 681.657 10.6032 680.84 24.6964 680.022C90.823 676.195 157.469 672.336 219.034 651.24C238.987 644.404 257.79 636.031 275.481 626.284C394.864 560.609 463.587 434.066 516.733 315.601C520.59 306.999 524.484 298.332 528.379 289.664C586.309 161.192 653.808 29.3826 783.687 -40.087C821.628 -60.398 861.83 -75.8685 906.298 -84.9937C958.851 -95.787 1014.96 -97.684 1069.26 -99.3521C1106.31 -100.497 1142.95 -101.609 1179.11 -105.403C1196.13 -107.202 1213.01 -109.622 1229.85 -112.795C1336.99 -132.942 1438.61 -183.474 1518.65 -252.29C1598.87 -321.236 1658.28 -407.877 1691.06 -502.302" stroke="url(#paint2_linear)" stroke-width="0.8669" stroke-miterlimit="10"/>
<path opacity="0.54" d="M-274.264 952.537C-322.886 896.313 -295.181 809.673 -234.507 763.85C-229.092 759.762 -223.492 755.902 -217.706 752.305C-158.923 715.64 -83.7098 703.702 -11.3525 697.847C2.59228 696.735 16.6484 695.754 30.6674 694.806C96.5714 690.358 163.032 685.975 224.411 664.617C244.29 657.716 263.019 649.278 280.673 639.498C399.76 573.43 467.963 446.92 519.997 328.226C523.78 319.592 527.563 310.924 531.383 302.257C587.941 173.588 653.771 42.8579 779.126 -29.9805C816.621 -51.7633 856.156 -69.6868 901.551 -79.8913C955.216 -91.9929 1013.33 -93.1049 1068.85 -93.3011C1106.75 -93.4647 1144.06 -93.2684 1181.04 -95.9504C1198.43 -97.1933 1215.75 -99.123 1233.04 -101.87C1343.19 -119.303 1449 -170.817 1530.96 -241.954C1613.11 -313.223 1672.63 -403.101 1705.45 -500.437" stroke="url(#paint3_linear)" stroke-width="0.8669" stroke-miterlimit="10"/>
<path opacity="0.54" d="M-265.4 970.035C-314.022 913.877 -286.985 827.465 -227.015 781.152C-221.637 776.998 -216.111 773.139 -210.4 769.476C-152.173 732.321 -77.3679 719.663 -5.23315 713.089C8.67457 711.813 22.6565 710.734 36.6755 709.655C102.357 704.585 168.669 699.646 229.863 678.06C249.668 671.061 268.36 662.589 285.939 652.745C404.767 586.284 472.377 459.774 523.372 340.884C527.08 332.249 530.789 323.549 534.498 314.849C589.684 186.016 653.808 56.1369 774.675 -19.8413C811.688 -43.1287 850.63 -63.5051 896.915 -74.7563C951.73 -88.1662 1011.81 -88.4933 1068.55 -87.2504C1107.27 -86.4 1145.29 -84.9609 1183.12 -86.4981C1200.88 -87.2176 1218.65 -88.6568 1236.41 -90.9462C1349.57 -105.632 1459.57 -158.192 1543.46 -231.619C1627.53 -305.177 1687.17 -398.326 1720.03 -498.573" stroke="url(#paint4_linear)" stroke-width="0.8669" stroke-miterlimit="10"/>
<path opacity="0.54" d="M-256.536 987.5C-305.195 931.441 -278.826 845.192 -219.523 798.421C-214.22 794.235 -208.731 790.31 -203.057 786.614C-145.386 748.969 -70.9888 735.591 0.923401 728.265C14.794 726.859 28.7388 725.648 42.6837 724.438C108.143 718.747 174.306 713.285 235.278 691.437C255.008 684.372 273.626 675.836 291.206 665.926C409.774 599.04 476.827 472.595 526.71 353.476C530.344 344.809 533.942 336.141 537.576 327.409C591.39 198.412 653.771 69.2198 770.188 -9.76751C806.793 -34.5921 845.03 -57.3562 892.205 -69.7194C948.132 -84.4048 1010.22 -83.9796 1068.22 -81.2976C1107.79 -79.4661 1146.51 -76.7514 1185.12 -77.1439C1203.29 -77.3401 1221.43 -78.2559 1239.68 -80.1202C1355.83 -92.0909 1470.02 -145.632 1555.84 -221.382C1641.81 -297.262 1701.6 -393.649 1734.49 -496.807" stroke="url(#paint5_linear)" stroke-width="0.8669" stroke-miterlimit="10"/>
<path opacity="0.54" d="M-247.673 1004.97C-296.331 948.971 -270.667 862.952 -211.995 815.69C-206.765 811.471 -201.314 807.481 -195.713 803.753C-138.562 765.649 -64.6098 751.487 7.0428 743.474C20.8764 741.936 34.747 740.563 48.6547 739.222C113.891 732.942 179.869 726.924 240.656 704.814C260.312 697.651 278.893 689.049 296.398 679.106C414.706 611.828 481.204 485.383 529.973 366.068C533.534 357.401 537.057 348.701 540.58 339.968C593.022 210.808 653.659 82.1389 765.626 0.338847C801.786 -26.0557 839.355 -51.2073 887.458 -64.6172C944.498 -80.6109 1008.58 -79.4007 1067.81 -75.2469C1108.2 -72.4341 1147.62 -68.4439 1187.05 -67.6916C1205.59 -67.3319 1224.17 -67.7571 1242.9 -69.1962C1362.06 -78.4522 1480.45 -133.007 1568.19 -211.046C1656.09 -289.216 1715.99 -388.874 1748.92 -494.943" stroke="url(#paint6_linear)" stroke-width="0.8669" stroke-miterlimit="10"/>
<path opacity="0.54" d="M-238.846 1022.43C-287.541 966.535 -262.508 880.712 -204.54 832.993C-199.348 828.741 -193.97 824.718 -188.407 820.924C-131.812 782.33 -58.2679 767.448 13.1621 758.682C26.9215 757.014 40.7922 755.51 54.6257 754.038C119.677 747.137 185.47 740.563 246.033 718.224C265.615 710.996 284.159 702.328 301.59 692.32C419.639 624.649 485.58 498.237 533.237 378.693C536.686 369.993 540.135 361.293 543.584 352.56C594.654 223.237 653.437 94.9275 761.064 10.4454C796.779 -17.5845 833.681 -45.0257 882.71 -59.5475C940.863 -76.8495 1006.95 -74.8544 1067.4 -69.2615C1108.65 -65.4675 1148.74 -60.2017 1189.01 -58.3047C1207.97 -57.4216 1226.92 -57.3234 1246.13 -58.3374C1368.29 -64.846 1490.87 -120.415 1580.54 -200.776C1670.37 -281.268 1730.38 -384.164 1763.31 -493.144" stroke="url(#paint7_linear)" stroke-width="0.8669" stroke-miterlimit="10"/>
<path opacity="0.54" d="M-229.982 1039.93C-278.678 984.131 -254.348 898.505 -197.011 850.295C-191.893 845.977 -186.553 841.922 -181.064 838.095C-124.988 799.01 -51.926 783.376 19.3186 773.891C33.0409 772.06 46.8374 770.424 60.6339 768.822C125.462 761.299 191.107 754.202 251.448 731.601C270.993 724.307 289.425 715.575 306.856 705.534C424.608 637.438 490.03 511.058 536.575 391.318C539.95 382.618 543.325 373.885 546.663 365.12C596.322 235.633 653.251 107.585 756.577 20.5518C791.847 -9.14616 828.118 -38.8768 878 -54.4453C937.266 -73.0228 1005.36 -70.2755 1067.03 -63.2435C1109.09 -58.4682 1149.89 -51.8942 1190.98 -48.8524C1210.3 -47.446 1229.7 -46.8246 1249.36 -47.4133C1374.52 -51.2073 1501.25 -107.79 1592.89 -190.441C1684.65 -273.222 1744.77 -379.422 1777.74 -491.279" stroke="url(#paint8_linear)" stroke-width="0.8669" stroke-miterlimit="10"/>
<path opacity="0.54" d="M-221.118 1057.4C-269.851 1001.66 -246.152 916.265 -189.52 867.564C-184.439 863.214 -179.172 859.093 -173.758 855.233C-118.238 815.691 -45.584 799.304 25.4381 789.1C39.1233 787.137 52.8827 785.371 66.6421 783.638C131.248 775.494 196.707 767.873 256.863 745.011C276.334 737.619 294.729 728.854 312.086 718.747C429.578 650.259 494.444 523.912 539.913 403.943C543.214 395.243 546.477 386.477 549.741 377.712C598.029 248.061 652.992 120.112 752.089 30.6909C786.877 -0.707789 822.518 -32.6952 873.327 -49.343C933.705 -69.2289 1003.8 -65.7292 1066.74 -57.2254C1109.65 -51.4363 1151.11 -43.6193 1193.06 -39.4328C1212.75 -37.4704 1232.59 -36.3583 1252.73 -36.5219C1380.9 -37.5685 1511.82 -95.1655 1605.39 -180.138C1699.08 -265.209 1759.34 -374.679 1792.31 -489.448" stroke="url(#paint9_linear)" stroke-width="0.8669" stroke-miterlimit="10"/>
<path opacity="0.54" d="M-212.254 1074.86C-260.987 1019.23 -237.993 933.992 -182.028 884.866C-177.021 880.483 -171.829 876.329 -166.414 872.405C-111.414 832.371 -39.205 815.233 31.5946 804.309C45.2057 802.215 58.9279 800.318 72.6502 798.454C137.034 789.721 202.344 781.512 262.277 758.421C281.674 750.964 299.995 742.133 317.315 731.961C434.548 663.08 498.857 536.766 543.214 416.568C546.44 407.835 549.63 399.069 552.782 390.304C599.697 260.49 652.621 132.508 747.565 40.7974C781.87 7.66526 816.881 -26.5135 868.617 -44.2407C930.108 -65.4348 1002.21 -61.1502 1066.37 -51.1745C1110.13 -44.4042 1152.26 -35.3116 1195.02 -29.9804C1215.12 -27.4947 1235.34 -25.8593 1255.96 -25.5977C1387.13 -23.9296 1522.24 -82.5405 1617.74 -169.835C1713.35 -257.228 1773.73 -369.937 1806.74 -487.616" stroke="url(#paint10_linear)" stroke-width="0.8669" stroke-miterlimit="10"/>
<path opacity="0.54" d="M-203.427 1092.33C-252.197 1036.76 -229.871 951.752 -174.536 902.135C-169.604 897.687 -164.449 893.501 -159.108 889.543C-104.664 849.019 -32.8631 831.161 37.6769 819.517C51.2509 817.293 64.9361 815.233 78.5842 813.238C142.745 803.883 207.908 795.151 267.655 771.798C286.978 764.243 305.262 755.379 322.544 745.142C439.518 675.836 503.233 549.554 546.514 429.16C549.667 420.427 552.745 411.629 555.823 402.831C601.366 272.853 652.139 144.773 743.04 50.8711C776.826 15.9728 811.243 -20.3974 863.87 -39.2039C926.473 -61.6736 1000.57 -56.6367 1065.96 -45.2219C1110.54 -37.4704 1153.37 -27.1023 1196.95 -20.6263C1217.42 -17.5845 1238.08 -15.4586 1259.18 -14.7718C1393.36 -10.389 1532.66 -70.0138 1630.09 -159.598C1727.63 -249.281 1788.12 -365.26 1821.17 -485.85" stroke="url(#paint11_linear)" stroke-width="0.8669" stroke-miterlimit="10"/>
<path opacity="0.54" d="M-194.564 1109.82C-243.333 1054.35 -221.674 969.544 -167.045 919.437C-162.149 914.956 -157.068 910.704 -151.765 906.681C-97.8771 865.667 -26.4841 847.057 43.8333 834.693C57.3702 832.306 70.9812 830.147 84.5923 828.021C148.531 818.045 213.508 808.789 273.07 785.175C292.318 777.554 310.565 768.593 327.774 758.323C444.487 688.624 507.647 562.375 549.815 441.752C552.893 432.986 555.897 424.188 558.864 415.39C603.035 285.216 651.545 156.94 738.515 60.9448C771.782 24.2476 805.643 -14.2485 859.16 -34.1343C922.876 -57.9123 998.979 -52.0905 1065.62 -39.2366C1111.06 -30.5039 1154.6 -18.8275 1198.99 -11.2395C1219.87 -7.67442 1240.94 -5.02513 1262.48 -3.9131C1399.67 3.21702 1543.16 -57.4217 1642.52 -149.328C1741.99 -241.333 1802.59 -360.55 1835.63 -484.051" stroke="url(#paint12_linear)" stroke-width="0.8669" stroke-miterlimit="10"/>
<path opacity="0.54" d="M-185.7 1127.29C-234.507 1071.88 -213.515 987.304 -159.516 936.706C-154.695 932.193 -149.651 927.908 -144.422 923.82C-91.053 882.348 -20.1051 862.985 49.9899 849.902C63.4897 847.384 77.0265 845.062 90.6004 842.838C154.316 832.24 219.145 822.428 278.485 798.585C297.659 790.899 315.831 781.872 333.003 771.536C449.42 701.445 512.06 575.196 553.116 454.377C556.083 445.612 559.013 436.781 561.906 427.982C604.704 297.645 650.878 169.107 734.028 71.0841C766.701 32.5553 800.043 -8.06681 854.487 -29.032C919.316 -54.1182 997.421 -47.5114 1065.29 -33.1857C1111.54 -23.439 1155.78 -10.5198 1200.99 -1.78702C1222.24 2.30135 1243.72 5.44123 1265.75 7.01116C1405.94 16.856 1553.62 -44.7967 1654.9 -138.993C1756.3 -233.287 1817.01 -355.774 1850.1 -482.187" stroke="url(#paint13_linear)" stroke-width="0.8669" stroke-miterlimit="10"/>
<path opacity="0.54" d="M-176.873 1144.76C-225.68 1089.45 -205.393 1005.06 -152.062 954.008C-147.314 949.462 -142.308 945.112 -137.152 940.991C-84.3402 899.028 -13.8002 878.913 56.0722 865.111C69.4978 862.461 83.0346 860.008 96.5715 857.621C160.102 846.435 224.745 836.067 283.862 811.962C302.962 804.178 321.098 795.118 338.232 784.75C454.39 714.266 516.474 588.05 556.454 467.002C559.347 458.203 562.202 449.373 564.984 440.574C606.41 310.074 650.173 181.176 729.54 81.1904C761.621 40.7973 794.443 -1.88532 849.777 -23.9298C915.718 -50.2916 995.789 -42.9325 1064.92 -27.1678C1112.02 -16.4399 1156.93 -2.24501 1203 7.63249C1224.62 12.2769 1246.54 15.9073 1269.05 17.9024C1412.24 30.4619 1564.11 -32.1719 1667.33 -128.69C1770.65 -225.307 1831.48 -351.032 1864.6 -480.355" stroke="url(#paint14_linear)" stroke-width="0.8669" stroke-miterlimit="10"/>
<path opacity="0.54" d="M-168.009 1162.22C-216.853 1106.98 -197.197 1022.82 -144.57 971.278C-139.86 966.666 -134.927 962.283 -129.809 958.129C-77.5162 915.676 -7.42125 894.841 62.1916 880.287C75.5801 877.507 89.0427 874.923 102.542 872.404C165.85 860.597 230.308 849.706 289.24 825.339C308.266 817.489 326.327 808.364 343.424 797.931C459.322 727.022 520.85 600.839 559.717 479.594C562.536 470.796 565.28 461.965 567.988 453.101C608.042 322.437 649.246 193.114 724.978 91.2642C756.391 49.0068 788.768 4.231 845.03 -18.8928C912.084 -46.5629 994.158 -38.4189 1064.51 -21.215C1112.43 -9.50595 1158.05 5.96447 1204.92 16.9867C1226.95 22.1544 1249.24 26.3082 1272.24 28.7285C1418.44 44.0354 1574.5 -19.6451 1679.64 -118.453C1784.9 -217.359 1845.83 -346.355 1878.99 -478.589" stroke="url(#paint15_linear)" stroke-width="0.8669" stroke-miterlimit="10"/>
<path opacity="0.54" d="M-159.145 1179.72C-207.989 1124.58 -189.038 1040.58 -137.041 988.579C-132.405 983.935 -127.547 979.52 -122.466 975.3C-70.7292 932.356 -1.04219 910.802 68.3481 895.528C81.6995 892.585 95.1252 889.87 108.551 887.221C171.636 874.792 235.945 863.345 294.655 838.749C313.606 830.801 331.631 821.643 348.654 811.144C464.292 739.843 525.263 613.692 563.018 492.219C565.763 483.388 568.433 474.557 571.029 465.694C609.711 334.866 648.319 205.117 720.454 101.371C751.162 57.2163 783.168 10.4126 840.32 -13.7906C908.486 -42.7689 992.563 -33.8399 1064.18 -15.1969C1112.95 -2.50662 1159.23 14.272 1206.93 26.4063C1229.33 32.13 1252.06 36.7744 1275.5 39.6199C1424.7 57.6415 1584.96 -7.02023 1692.03 -108.15C1799.21 -209.378 1860.26 -341.612 1893.45 -476.758" stroke="url(#paint16_linear)" stroke-width="0.8669" stroke-miterlimit="10"/>
<path opacity="0.54" d="M-150.281 1197.18C-199.125 1142.11 -180.878 1058.34 -129.55 1005.88C-124.951 1001.2 -120.166 996.724 -115.123 992.472C-63.9422 949.069 5.33683 926.731 74.5046 910.737C87.8189 907.663 101.17 904.817 114.559 902.037C177.422 888.987 241.583 877.016 300.069 852.159C318.947 844.146 336.934 834.922 353.92 824.358C469.299 752.664 529.714 626.546 566.356 504.844C569.026 496.013 571.585 487.149 574.107 478.286C611.417 347.294 647.28 217.088 715.966 111.51C745.933 65.4257 777.568 16.5942 835.61 -8.65557C904.889 -38.9095 990.968 -29.2283 1063.81 -9.11352C1113.39 4.55799 1160.38 22.6123 1208.93 35.8913C1231.74 42.1383 1254.88 47.306 1278.8 50.5767C1431.01 71.3456 1595.45 5.63737 1704.45 -97.782C1813.56 -201.3 1874.72 -336.805 1907.91 -474.861" stroke="url(#paint17_linear)" stroke-width="0.8669" stroke-miterlimit="10"/>
<path opacity="0.54" d="M-141.455 1214.65C-190.336 1159.67 -172.719 1076.1 -122.058 1023.15C-117.533 1018.41 -112.786 1013.89 -107.816 1009.61C-57.1553 965.718 11.6787 942.659 80.624 925.946C93.8641 922.741 107.216 919.732 120.53 916.853C183.17 903.182 247.146 890.688 305.484 865.569C324.287 857.49 342.2 848.169 359.149 837.572C474.231 765.453 534.127 639.367 569.657 517.469C572.253 508.605 574.738 499.741 577.148 490.878C613.086 359.723 646.168 228.993 711.441 121.616C740.629 73.6024 771.931 22.7758 830.9 -3.58597C901.291 -35.1482 989.373 -24.7147 1063.44 -3.12808C1113.88 11.5573 1161.57 30.8545 1210.9 45.311C1234.08 52.0813 1257.63 57.7723 1282.03 61.4682C1437.28 84.9518 1605.88 18.2623 1716.8 -87.512C1827.84 -193.319 1889.11 -332.095 1922.34 -473.062" stroke="url(#paint18_linear)" stroke-width="0.8669" stroke-miterlimit="10"/>
<path opacity="0.54" d="M-132.591 1232.12C-181.472 1177.2 -164.56 1093.86 -114.566 1040.42C-110.116 1035.65 -105.406 1031.1 -100.51 1026.75C-50.4054 982.365 18.0206 958.555 86.7433 941.122C99.9464 937.786 113.224 934.646 126.538 931.604C188.956 917.344 252.783 904.261 310.899 878.881C329.628 870.704 347.504 861.35 364.379 850.72C479.201 778.209 538.503 652.156 572.995 530.028C575.479 521.165 577.927 512.268 580.264 503.372C614.829 372.054 645.018 240.833 706.991 131.657C735.326 81.7139 766.368 28.8594 826.264 1.45101C897.768 -31.4195 987.853 -20.2011 1063.14 2.82464C1114.43 18.4913 1162.79 39.064 1212.94 54.6652C1236.52 61.9916 1260.48 68.1732 1285.37 72.2943C1443.62 98.4926 1616.41 30.7891 1729.26 -77.2747C1842.23 -185.404 1903.65 -327.417 1936.88 -471.295" stroke="url(#paint19_linear)" stroke-width="0.8669" stroke-miterlimit="10"/>
<path opacity="0.54" d="M-123.727 1249.61C-172.645 1194.8 -156.401 1111.66 -107.075 1057.72C-102.661 1052.91 -98.0254 1048.3 -93.167 1043.92C-43.5813 999.079 24.3997 974.516 92.8628 956.331C106.029 952.831 119.269 949.593 132.509 946.42C194.704 931.539 258.383 917.933 316.277 892.29C334.931 884.048 352.733 874.629 369.571 863.933C484.134 791.03 542.88 664.977 576.258 542.653C578.669 533.757 581.005 524.86 583.268 515.964C616.424 384.482 643.683 252.771 702.429 141.797C729.911 89.9233 760.731 35.0737 821.479 6.55322C894.096 -27.5928 986.184 -15.6221 1062.73 8.87539C1114.84 25.5232 1163.91 47.3715 1214.9 64.1175C1238.86 71.9672 1263.26 78.6721 1288.59 83.2183C1449.85 112.164 1626.83 43.4467 1741.61 -66.9393C1856.51 -177.358 1918.04 -322.675 1951.31 -469.431" stroke="url(#paint20_linear)" stroke-width="0.8669" stroke-miterlimit="10"/>
<path opacity="0.54" d="M-114.863 1267.08C-163.781 1212.33 -148.205 1129.38 -99.546 1075.02C-95.2068 1070.18 -90.608 1065.51 -85.8237 1061.09C-36.7943 1015.76 30.7787 990.444 99.0192 971.572C112.148 967.942 125.314 964.54 138.517 961.237C200.527 945.733 263.983 931.604 321.691 905.7C340.272 897.36 358.037 887.908 374.837 877.147C489.14 803.818 547.33 677.831 579.596 555.278C581.933 546.382 584.195 537.453 586.346 528.556C618.13 396.878 642.348 264.677 697.942 151.903C724.496 98.0673 755.13 41.2226 816.806 11.6555C890.536 -23.7989 984.626 -11.0432 1062.4 14.8935C1115.36 32.5225 1165.09 55.679 1216.9 73.537C1241.23 81.91 1266.04 89.1383 1291.86 94.1097C1456.12 125.77 1637.25 56.0388 1754 -56.6367C1870.83 -169.378 1932.47 -317.933 1965.77 -467.6" stroke="url(#paint21_linear)" stroke-width="0.8669" stroke-miterlimit="10"/>
<path opacity="0.54" d="M-106.036 1284.55C-154.992 1229.89 -140.082 1147.14 -92.0915 1092.29C-87.7894 1087.39 -83.2647 1082.71 -78.5546 1078.23C-30.0816 1032.41 37.0835 1006.37 105.102 986.748C118.156 982.987 131.322 979.455 144.451 976.02C206.239 959.896 269.546 945.243 327.032 919.077C345.538 910.672 363.266 901.154 379.992 890.328C494.036 816.607 551.669 690.619 582.823 567.87C585.085 558.941 587.236 550.012 589.313 541.116C619.725 409.274 640.79 276.582 693.343 162.009C718.933 106.244 749.419 47.4042 812.022 16.7251C886.901 -20.0375 982.957 -6.49682 1061.95 20.8789C1115.73 39.5219 1166.17 63.9213 1218.83 82.924C1243.57 91.853 1268.79 99.5718 1295.08 104.968C1462.35 139.343 1647.67 68.631 1766.35 -46.3666C1885.11 -161.397 1946.86 -313.223 1980.16 -465.801" stroke="url(#paint22_linear)" stroke-width="0.8669" stroke-miterlimit="10"/>
<path opacity="0.54" d="M-97.1725 1302.01C-146.128 1247.42 -131.923 1164.9 -84.5628 1109.56C-80.3348 1104.62 -75.8843 1099.88 -71.1743 1095.37C-23.2204 1049.05 43.4996 1022.27 111.295 1001.96C124.313 998.065 137.405 994.369 150.496 990.836C212.061 974.123 275.221 958.882 332.484 932.487C350.916 923.983 368.57 914.433 385.259 903.541C499.006 829.427 556.12 703.473 586.161 580.495C588.349 571.566 590.426 562.604 592.391 553.675C621.431 421.67 639.344 288.52 688.855 172.083C713.407 114.355 743.819 53.5203 807.312 21.7946C883.304 -16.2436 981.363 -1.9507 1061.62 26.8641C1116.25 46.4883 1167.36 72.1633 1220.84 92.3108C1245.94 101.763 1271.57 109.973 1298.35 115.827C1468.62 152.949 1658.13 81.1904 1778.74 -36.0968C1899.38 -153.449 1961.28 -308.513 1994.62 -464.002" stroke="url(#paint23_linear)" stroke-width="0.8669" stroke-miterlimit="10"/>
<path opacity="0.54" d="M-88.3086 1319.51C-137.301 1265.02 -123.727 1182.7 -77.0711 1126.9C-72.9173 1121.93 -68.504 1117.12 -63.8681 1112.57C-16.4705 1065.8 49.8415 1038.26 117.377 1017.2C130.358 1013.18 143.413 1009.35 156.467 1005.65C217.81 988.318 280.784 972.553 337.861 945.897C356.219 937.328 373.836 927.712 390.488 916.755C503.975 842.216 560.533 716.327 589.461 593.12C591.575 584.158 593.541 575.196 595.432 566.267C623.099 434.099 637.749 300.491 684.368 182.222C707.881 122.565 738.255 59.702 802.639 26.8969C879.743 -12.4495 979.805 2.62835 1061.29 32.915C1116.73 53.5204 1168.54 80.4709 1222.84 101.763C1248.35 111.771 1274.39 120.472 1301.65 126.751C1474.92 166.588 1668.63 93.8481 1791.16 -25.7613C1913.74 -145.403 1975.75 -303.738 2009.13 -462.138" stroke="url(#paint24_linear)" stroke-width="0.8669" stroke-miterlimit="10"/>
<path opacity="0.54" d="M-79.4447 1336.97C-128.437 1282.55 -115.568 1200.46 -69.5424 1144.17C-65.4257 1139.13 -61.0865 1134.32 -56.4877 1129.68C-9.60936 1082.42 56.2576 1054.12 123.571 1032.34C136.477 1028.15 149.495 1024.23 162.513 1020.4C223.632 1002.45 286.458 986.159 343.35 959.241C361.634 950.607 379.177 940.893 395.792 929.936C509.019 855.004 565.021 729.115 592.873 605.712C594.913 596.75 596.805 587.789 598.585 578.827C624.88 446.494 636.228 312.461 679.954 192.296C702.355 130.676 732.729 65.8509 798.04 31.9665C876.257 -8.68827 978.321 7.17459 1061.03 38.9003C1117.32 60.4869 1169.84 88.7457 1224.95 111.15C1250.84 121.682 1277.32 130.905 1305.02 137.61C1481.3 180.194 1679.2 106.408 1803.7 -15.524C1928.2 -137.456 1990.32 -299.061 2023.74 -460.371" stroke="url(#paint25_linear)" stroke-width="0.8669" stroke-miterlimit="10"/>
<path opacity="0.54" d="M-70.618 1354.44C-119.647 1300.11 -107.409 1218.18 -62.0879 1161.44C-58.0454 1156.37 -53.7433 1151.49 -49.2186 1146.82C-2.89662 1099.06 62.5624 1070.05 129.653 1047.55C142.523 1043.23 155.503 1039.14 168.447 1035.22C229.344 1016.64 292.021 999.798 348.691 972.651C366.901 963.918 384.406 954.172 400.947 943.15C513.915 867.825 569.36 741.969 596.1 618.337C598.029 609.342 599.846 600.381 601.552 591.386C626.474 458.89 634.485 324.465 675.355 202.402C696.644 138.853 727.018 71.9998 793.219 37.036C872.548 -4.89428 976.615 11.7208 1060.54 44.8857C1117.66 67.4535 1170.88 96.9879 1226.81 120.537C1253.06 131.592 1279.95 141.338 1308.14 148.469C1487.42 193.768 1689.51 118.967 1815.94 -5.25403C1942.37 -129.508 2004.6 -294.351 2038.05 -458.573" stroke="url(#paint26_linear)" stroke-width="0.8669" stroke-miterlimit="10"/>
<path opacity="0.54" d="M-61.754 1371.91C-110.783 1317.64 -99.2493 1235.94 -54.5962 1178.71C-50.5908 1173.6 -46.3628 1168.66 -41.9124 1163.95C3.89043 1115.74 68.9044 1085.98 135.773 1062.73C148.605 1058.28 161.511 1054.06 174.418 1049.97C235.092 1030.77 297.585 1013.4 354.068 985.996C372.204 977.198 389.672 967.386 406.176 956.298C518.884 880.581 573.736 754.725 599.401 630.896C601.255 621.902 602.998 612.908 604.593 603.913C628.143 471.254 632.742 336.468 670.831 212.444C690.932 146.964 721.418 78.1161 788.509 42.073C868.951 -1.16557 975.021 16.2018 1060.21 50.8712C1118.18 74.4529 1172.07 105.23 1228.85 129.924C1255.51 141.535 1282.81 151.772 1311.48 159.327C1493.76 207.341 1700.04 131.559 1828.4 5.01604C1956.76 -121.527 2019.1 -289.641 2052.59 -456.774" stroke="url(#paint27_linear)" stroke-width="0.8669" stroke-miterlimit="10"/>
<path opacity="0.54" d="M-52.8902 1389.4C-101.957 1335.24 -91.0901 1253.73 -47.0675 1196.04C-43.1363 1190.9 -38.9454 1185.93 -34.532 1181.16C10.7145 1132.46 75.3205 1101.94 141.966 1078C154.761 1073.42 167.631 1069.04 180.463 1064.85C240.952 1045.06 303.259 1027.14 359.52 999.471C377.582 990.575 394.976 980.73 411.442 969.577C523.854 893.435 578.187 767.644 602.739 643.587C604.519 634.559 606.151 625.565 607.671 616.571C629.849 483.748 630.999 348.635 666.343 222.648C685.258 155.239 715.818 84.3631 783.836 47.2407C865.391 2.69379 973.463 20.8462 1059.88 56.9546C1118.7 81.5176 1173.25 113.57 1230.85 139.409C1257.89 151.543 1285.63 162.304 1314.74 170.284C1500.03 221.045 1710.5 144.217 1840.79 15.3841C1971.07 -113.481 2033.53 -284.833 2067.02 -454.877" stroke="url(#paint28_linear)" stroke-width="0.8669" stroke-miterlimit="10"/>
<path opacity="0.54" d="M-44.0635 1406.87C-93.13 1352.77 -82.931 1271.49 -39.613 1213.31C-35.756 1208.11 -31.6022 1203.1 -27.263 1198.3C17.4272 1149.11 81.6253 1117.87 148.011 1093.18C160.732 1088.43 173.565 1083.95 186.397 1079.6C246.664 1059.19 308.822 1040.71 364.861 1012.82C382.848 1003.85 400.205 993.944 416.597 982.725C528.749 906.191 582.526 780.4 605.965 656.146C607.671 647.119 609.229 638.092 610.638 629.098C631.444 496.111 629.108 360.704 661.744 232.689C679.398 163.383 710.106 90.4793 779.014 52.2776C861.682 6.45512 971.757 25.3597 1059.39 62.9073C1119.03 88.4515 1174.29 121.78 1232.7 148.796C1260.15 161.453 1288.26 172.737 1317.86 181.143C1506.15 234.619 1720.81 156.809 1853.02 25.6541C1985.24 -105.501 2047.81 -280.123 2081.33 -453.078" stroke="url(#paint29_linear)" stroke-width="0.8669" stroke-miterlimit="10"/>
<path opacity="0.54" d="M-35.1996 1424.33C-84.266 1370.34 -74.7717 1289.25 -32.0842 1230.58C-28.2642 1225.35 -24.2217 1220.28 -19.8825 1215.44C24.2884 1165.75 88.0415 1133.77 154.205 1108.39C166.889 1103.51 179.684 1098.9 192.442 1094.42C252.486 1073.39 314.459 1054.39 370.313 1026.23C388.263 1017.2 405.509 1007.22 421.901 995.971C533.793 919.045 587.014 793.287 609.377 668.804C611.009 659.744 612.456 650.717 613.791 641.69C633.224 508.507 627.402 372.871 657.331 242.828C673.724 171.625 704.58 96.6609 774.416 57.3798C858.196 10.2491 970.273 29.9387 1059.13 68.9254C1119.62 95.4507 1175.55 130.087 1234.82 158.215C1262.63 171.429 1291.19 183.204 1321.27 192.034C1512.56 248.225 1731.42 169.401 1865.56 35.9568C1999.7 -97.5203 2062.42 -275.381 2095.95 -451.246" stroke="url(#paint30_linear)" stroke-width="0.8669" stroke-miterlimit="10"/>
<path opacity="0.54" d="M-26.3358 1441.8C-79.8156 1383.06 -64.5727 1292.36 -12.5764 1232.57C39.42 1172.82 119.38 1137.79 198.413 1109.2C277.446 1080.62 359.965 1055.66 427.13 1009.15C546.848 926.207 598.77 787.563 616.795 654.249C634.856 520.903 625.473 385.038 652.769 252.935C667.864 179.835 698.943 102.842 769.668 62.4821C854.561 14.0431 968.642 34.5177 1058.76 74.9762C1148.89 115.435 1228.88 173.947 1324.49 202.958C1518.79 261.896 1741.84 182.059 1877.91 46.2921C2013.98 -89.4745 2076.81 -270.606 2110.37 -449.382" stroke="url(#paint31_linear)" stroke-width="0.8669" stroke-miterlimit="10"/>
</g>
<defs>
<linearGradient id="paint0_linear" x1="1611.51" y1="-557.301" x2="-68.6036" y2="1133.06" gradientUnits="userSpaceOnUse">
<stop stop-color="#7ED4EF"/>
<stop offset="0.2294" stop-color="#66BFE6"/>
<stop offset="0.711" stop-color="#298BD0"/>
<stop offset="1" stop-color="#0169C2"/>
</linearGradient>
<linearGradient id="paint1_linear" x1="1630.79" y1="-550.706" x2="-59.9454" y2="1150.34" gradientUnits="userSpaceOnUse">
<stop stop-color="#7ED4EF"/>
<stop offset="0.2294" stop-color="#66BFE6"/>
<stop offset="0.711" stop-color="#298BD0"/>
<stop offset="1" stop-color="#0169C2"/>
</linearGradient>
<linearGradient id="paint2_linear" x1="1650.06" y1="-544.115" x2="-51.2916" y2="1167.61" gradientUnits="userSpaceOnUse">
<stop stop-color="#7ED4EF"/>
<stop offset="0.2294" stop-color="#66BFE6"/>
<stop offset="0.711" stop-color="#298BD0"/>
<stop offset="1" stop-color="#0169C2"/>
</linearGradient>
<linearGradient id="paint3_linear" x1="1667.82" y1="-539.03" x2="-44.1531" y2="1183.38" gradientUnits="userSpaceOnUse">
<stop stop-color="#7ED4EF"/>
<stop offset="0.2294" stop-color="#66BFE6"/>
<stop offset="0.711" stop-color="#298BD0"/>
<stop offset="1" stop-color="#0169C2"/>
</linearGradient>
<linearGradient id="paint4_linear" x1="1682.98" y1="-536.52" x2="-39.6066" y2="1196.58" gradientUnits="userSpaceOnUse">
<stop stop-color="#7ED4EF"/>
<stop offset="0.2294" stop-color="#66BFE6"/>
<stop offset="0.711" stop-color="#298BD0"/>
<stop offset="1" stop-color="#0169C2"/>
</linearGradient>
<linearGradient id="paint5_linear" x1="1697.99" y1="-534.163" x2="-35.2137" y2="1209.62" gradientUnits="userSpaceOnUse">
<stop stop-color="#7ED4EF"/>
<stop offset="0.2294" stop-color="#66BFE6"/>
<stop offset="0.711" stop-color="#298BD0"/>
<stop offset="1" stop-color="#0169C2"/>
</linearGradient>
<linearGradient id="paint6_linear" x1="1712.84" y1="-531.969" x2="-30.9853" y2="1222.49" gradientUnits="userSpaceOnUse">
<stop stop-color="#7ED4EF"/>
<stop offset="0.2294" stop-color="#66BFE6"/>
<stop offset="0.711" stop-color="#298BD0"/>
<stop offset="1" stop-color="#0169C2"/>
</linearGradient>
<linearGradient id="paint7_linear" x1="1727.51" y1="-529.95" x2="-26.9336" y2="1235.19" gradientUnits="userSpaceOnUse">
<stop stop-color="#7ED4EF"/>
<stop offset="0.2294" stop-color="#66BFE6"/>
<stop offset="0.711" stop-color="#298BD0"/>
<stop offset="1" stop-color="#0169C2"/>
</linearGradient>
<linearGradient id="paint8_linear" x1="1741.8" y1="-528.311" x2="-23.2634" y2="1247.51" gradientUnits="userSpaceOnUse">
<stop stop-color="#7ED4EF"/>
<stop offset="0.2294" stop-color="#66BFE6"/>
<stop offset="0.711" stop-color="#298BD0"/>
<stop offset="1" stop-color="#0169C2"/>
</linearGradient>
<linearGradient id="paint9_linear" x1="1755.77" y1="-526.979" x2="-19.904" y2="1259.53" gradientUnits="userSpaceOnUse">
<stop stop-color="#7ED4EF"/>
<stop offset="0.2294" stop-color="#66BFE6"/>
<stop offset="0.711" stop-color="#298BD0"/>
<stop offset="1" stop-color="#0169C2"/>
</linearGradient>
<linearGradient id="paint10_linear" x1="1769.56" y1="-525.835" x2="-16.7337" y2="1271.35" gradientUnits="userSpaceOnUse">
<stop stop-color="#7ED4EF"/>
<stop offset="0.2294" stop-color="#66BFE6"/>
<stop offset="0.711" stop-color="#298BD0"/>
<stop offset="1" stop-color="#0169C2"/>
</linearGradient>
<linearGradient id="paint11_linear" x1="1783.21" y1="-524.822" x2="-13.6945" y2="1283.05" gradientUnits="userSpaceOnUse">
<stop stop-color="#7ED4EF"/>
<stop offset="0.2294" stop-color="#66BFE6"/>
<stop offset="0.711" stop-color="#298BD0"/>
<stop offset="1" stop-color="#0169C2"/>
</linearGradient>
<linearGradient id="paint12_linear" x1="1796.77" y1="-523.902" x2="-10.75" y2="1294.65" gradientUnits="userSpaceOnUse">
<stop stop-color="#7ED4EF"/>
<stop offset="0.2294" stop-color="#66BFE6"/>
<stop offset="0.711" stop-color="#298BD0"/>
<stop offset="1" stop-color="#0169C2"/>
</linearGradient>
<linearGradient id="paint13_linear" x1="1810.26" y1="-523.053" x2="-7.87663" y2="1306.18" gradientUnits="userSpaceOnUse">
<stop stop-color="#7ED4EF"/>
<stop offset="0.2294" stop-color="#66BFE6"/>
<stop offset="0.711" stop-color="#298BD0"/>
<stop offset="1" stop-color="#0169C2"/>
</linearGradient>
<linearGradient id="paint14_linear" x1="1823.7" y1="-522.258" x2="-5.05777" y2="1317.65" gradientUnits="userSpaceOnUse">
<stop stop-color="#7ED4EF"/>
<stop offset="0.2294" stop-color="#66BFE6"/>
<stop offset="0.711" stop-color="#298BD0"/>
<stop offset="1" stop-color="#0169C2"/>
</linearGradient>
<linearGradient id="paint15_linear" x1="1837.09" y1="-521.505" x2="-2.28219" y2="1329.08" gradientUnits="userSpaceOnUse">
<stop stop-color="#7ED4EF"/>
<stop offset="0.2294" stop-color="#66BFE6"/>
<stop offset="0.711" stop-color="#298BD0"/>
<stop offset="1" stop-color="#0169C2"/>
</linearGradient>
<linearGradient id="paint16_linear" x1="1850.44" y1="-520.787" x2="0.458897" y2="1340.48" gradientUnits="userSpaceOnUse">
<stop stop-color="#7ED4EF"/>
<stop offset="0.2294" stop-color="#66BFE6"/>
<stop offset="0.711" stop-color="#298BD0"/>
<stop offset="1" stop-color="#0169C2"/>
</linearGradient>
<linearGradient id="paint17_linear" x1="1863.77" y1="-520.097" x2="3.17134" y2="1351.85" gradientUnits="userSpaceOnUse">
<stop stop-color="#7ED4EF"/>
<stop offset="0.2294" stop-color="#66BFE6"/>
<stop offset="0.711" stop-color="#298BD0"/>
<stop offset="1" stop-color="#0169C2"/>
</linearGradient>
<linearGradient id="paint18_linear" x1="1877.07" y1="-519.43" x2="5.86125" y2="1363.2" gradientUnits="userSpaceOnUse">
<stop stop-color="#7ED4EF"/>
<stop offset="0.2294" stop-color="#66BFE6"/>
<stop offset="0.711" stop-color="#298BD0"/>
<stop offset="1" stop-color="#0169C2"/>
</linearGradient>
<linearGradient id="paint19_linear" x1="1890.36" y1="-518.781" x2="8.53138" y2="1374.53" gradientUnits="userSpaceOnUse">
<stop stop-color="#7ED4EF"/>
<stop offset="0.2294" stop-color="#66BFE6"/>
<stop offset="0.711" stop-color="#298BD0"/>
<stop offset="1" stop-color="#0169C2"/>
</linearGradient>
<linearGradient id="paint20_linear" x1="1903.63" y1="-518.148" x2="11.1858" y2="1385.84" gradientUnits="userSpaceOnUse">
<stop stop-color="#7ED4EF"/>
<stop offset="0.2294" stop-color="#66BFE6"/>
<stop offset="0.711" stop-color="#298BD0"/>
<stop offset="1" stop-color="#0169C2"/>
</linearGradient>
<linearGradient id="paint21_linear" x1="1916.88" y1="-517.529" x2="13.8265" y2="1397.13" gradientUnits="userSpaceOnUse">
<stop stop-color="#7ED4EF"/>
<stop offset="0.2294" stop-color="#66BFE6"/>
<stop offset="0.711" stop-color="#298BD0"/>
<stop offset="1" stop-color="#0169C2"/>
</linearGradient>
<linearGradient id="paint22_linear" x1="1930.13" y1="-516.921" x2="16.4553" y2="1408.42" gradientUnits="userSpaceOnUse">
<stop stop-color="#7ED4EF"/>
<stop offset="0.2294" stop-color="#66BFE6"/>
<stop offset="0.711" stop-color="#298BD0"/>
<stop offset="1" stop-color="#0169C2"/>
</linearGradient>
<linearGradient id="paint23_linear" x1="1943.36" y1="-516.324" x2="19.074" y2="1419.7" gradientUnits="userSpaceOnUse">
<stop stop-color="#7ED4EF"/>
<stop offset="0.2294" stop-color="#66BFE6"/>
<stop offset="0.711" stop-color="#298BD0"/>
<stop offset="1" stop-color="#0169C2"/>
</linearGradient>
<linearGradient id="paint24_linear" x1="1956.58" y1="-515.735" x2="21.6836" y2="1430.97" gradientUnits="userSpaceOnUse">
<stop stop-color="#7ED4EF"/>
<stop offset="0.2294" stop-color="#66BFE6"/>
<stop offset="0.711" stop-color="#298BD0"/>
<stop offset="1" stop-color="#0169C2"/>
</linearGradient>
<linearGradient id="paint25_linear" x1="1969.8" y1="-515.154" x2="24.2861" y2="1442.22" gradientUnits="userSpaceOnUse">
<stop stop-color="#7ED4EF"/>
<stop offset="0.2294" stop-color="#66BFE6"/>
<stop offset="0.711" stop-color="#298BD0"/>
<stop offset="1" stop-color="#0169C2"/>
</linearGradient>
<linearGradient id="paint26_linear" x1="1983.01" y1="-514.579" x2="26.8812" y2="1453.48" gradientUnits="userSpaceOnUse">
<stop stop-color="#7ED4EF"/>
<stop offset="0.2294" stop-color="#66BFE6"/>
<stop offset="0.711" stop-color="#298BD0"/>
<stop offset="1" stop-color="#0169C2"/>
</linearGradient>
<linearGradient id="paint27_linear" x1="1996.21" y1="-514.011" x2="29.4702" y2="1464.72" gradientUnits="userSpaceOnUse">
<stop stop-color="#7ED4EF"/>
<stop offset="0.2294" stop-color="#66BFE6"/>
<stop offset="0.711" stop-color="#298BD0"/>
<stop offset="1" stop-color="#0169C2"/>
</linearGradient>
<linearGradient id="paint28_linear" x1="2009.41" y1="-513.447" x2="32.0539" y2="1475.97" gradientUnits="userSpaceOnUse">
<stop stop-color="#7ED4EF"/>
<stop offset="0.2294" stop-color="#66BFE6"/>
<stop offset="0.711" stop-color="#298BD0"/>
<stop offset="1" stop-color="#0169C2"/>
</linearGradient>
<linearGradient id="paint29_linear" x1="2022.6" y1="-512.888" x2="34.6327" y2="1487.2" gradientUnits="userSpaceOnUse">
<stop stop-color="#7ED4EF"/>
<stop offset="0.2294" stop-color="#66BFE6"/>
<stop offset="0.711" stop-color="#298BD0"/>
<stop offset="1" stop-color="#0169C2"/>
</linearGradient>
<linearGradient id="paint30_linear" x1="2035.79" y1="-512.334" x2="37.2074" y2="1498.44" gradientUnits="userSpaceOnUse">
<stop stop-color="#7ED4EF"/>
<stop offset="0.2294" stop-color="#66BFE6"/>
<stop offset="0.711" stop-color="#298BD0"/>
<stop offset="1" stop-color="#0169C2"/>
</linearGradient>
<linearGradient id="paint31_linear" x1="2048.97" y1="-511.784" x2="39.7781" y2="1509.66" gradientUnits="userSpaceOnUse">
<stop stop-color="#7ED4EF"/>
<stop offset="0.2294" stop-color="#66BFE6"/>
<stop offset="0.711" stop-color="#298BD0"/>
<stop offset="1" stop-color="#0169C2"/>
</linearGradient>
</defs>
</svg>
